<?xml version="1.0" encoding="UTF-8" standalone="no"?>
<!-- Created with Inkscape (http://www.inkscape.org/) -->
<svg xmlns:rdf="http://www.w3.org/1999/02/22-rdf-syntax-ns#" xmlns="http://www.w3.org/2000/svg" height="66" width="49.8" version="1.1" xmlns:cc="http://creativecommons.org/ns#" xmlns:dc="http://purl.org/dc/elements/1.1/">
 <metadata>
  <rdf:RDF>
   <cc:Work rdf:about="">
    <dc:format>image/svg+xml</dc:format>
    <dc:type rdf:resource="http://purl.org/dc/dcmitype/StillImage"/>
    <dc:title/>
   </cc:Work>
  </rdf:RDF>
 </metadata>
 <g transform="translate(931 562)">
  <path d="m-930-528l-1-1c0-2 0-3 1-5 0-4 1-2 1-4 1-8 5-14 11-18 2 11 5 19 5 19-1-8-3-15-3-20 0-1 0-2 1-3 6-2 12-2 18 0 1 1 1 2 1 3 0 5-1 12-2 20 0 0 3-8 5-19 5 4 9 10 10 18 0 2 2 0 2 4v5 1h-6-1l-1 1h-33c-1 0-1-1-2-1h-6zm30 31c7-3 11-9 13-16 3-2 4-7 4-10v-3h-3c0 1-1 1-1 2 0 4-1 8-3 8 0-1 0 0-1 0-1 8-5 13-10 15-3 1-7 1-9 0-6-2-10-7-11-15 0 0-1-1-1 0-1 0-3-4-3-8v-2h-4v3c0 3 1 8 4 10 2 7 6 13 13 16 4 2 8 2 12 0" fill-rule="evenodd" fill="#bc6293"/>
 </g>
</svg>
