<?xml version="1.0" encoding="UTF-8" standalone="no"?>
<!-- Created with Inkscape (http://www.inkscape.org/) -->
<svg xmlns:rdf="http://www.w3.org/1999/02/22-rdf-syntax-ns#" xmlns="http://www.w3.org/2000/svg" height="15.3" width="11.5" version="1.1" xmlns:cc="http://creativecommons.org/ns#" xmlns:dc="http://purl.org/dc/elements/1.1/">
 <metadata>
  <rdf:RDF>
   <cc:Work rdf:about="">
    <dc:format>image/svg+xml</dc:format>
    <dc:type rdf:resource="http://purl.org/dc/dcmitype/StillImage"/>
    <dc:title/>
   </cc:Work>
  </rdf:RDF>
 </metadata>
 <g transform="translate(1.06e3 441)">
  <g transform="matrix(1.25 0 0 -1.25 -1.06e3 -433)">
   <path d="m0 0c-0.026 0.039-0.042 0.091-0.05 0.156-0.009 0.296 0.001 0.587 0.033 0.894 0.064 0.63 0.337 0.43 0.351 0.75 0.116 1.37 0.896 2.56 1.95 3.29 0.31-1.95 0.91-3.47 0.91-3.47-0.19 1.44-0.44 2.7-0.47 3.66-0.01 0.16 0.03 0.43 0.2 0.51 1.05 0.46 2.24 0.46 3.29 0 0.17-0.08 0.2-0.35 0.2-0.51-0.03-0.96-0.29-2.22-0.47-3.66 0 0 0.6 1.52 0.91 3.47 1.05-0.73 1.83-1.92 1.94-3.29 0.02-0.32 0.29-0.12 0.35-0.75 0.04-0.307 0.05-0.598 0.04-0.894-0.01-0.065-0.03-0.117-0.05-0.156h-1.13c-0.07 0-0.12-0.023-0.14-0.068-0.06-0.1-0.13-0.22-0.23-0.22h-6.13c-0.1 0-0.18 0.12-0.23 0.22-0.03 0.045-0.07 0.068-0.14 0.068h-1.13zm5.62-5.87c1.31 0.56 2.05 1.72 2.38 3.05 0.56 0.32 0.77 1.29 0.83 1.84 0.01 0.144 0.02 0.328 0.02 0.524h-0.71c0-0.128-0.01-0.263-0.02-0.403-0.08-0.751-0.35-1.36-0.61-1.36-0.07 0-0.11-0.03-0.12-0.1-0.3-1.38-0.98-2.37-2.03-2.82-0.53-0.22-1.14-0.22-1.66 0-1.05 0.45-1.73 1.44-2.03 2.82-0.02 0.07-0.06 0.1-0.12 0.1-0.26 0-0.53 0.61-0.61 1.36-0.013 0.141-0.02 0.276-0.02 0.404h-0.711c-0.005-0.196 0.007-0.38 0.021-0.528 0.058-0.546 0.267-1.52 0.82-1.84 0.34-1.33 1.08-2.49 2.39-3.05 0.69-0.3 1.49-0.3 2.18 0"/>
  </g>
 </g>
</svg>
