<?xml version="1.0" encoding="UTF-8" standalone="no"?>
<!-- Created with Inkscape (http://www.inkscape.org/) -->

<svg
   xmlns:dc="http://purl.org/dc/elements/1.1/"
   xmlns:cc="http://creativecommons.org/ns#"
   xmlns:rdf="http://www.w3.org/1999/02/22-rdf-syntax-ns#"
   xmlns:svg="http://www.w3.org/2000/svg"
   xmlns="http://www.w3.org/2000/svg"
   version="1.1"
   width="15.6935"
   height="12.612875"
   id="svg5509">
  <defs
     id="defs5511">
    <clipPath
       id="clipPath3509">
      <path
         d="M 0,841.89 595.28,841.89 595.28,0 0,0 0,841.89 Z"
         id="path3511" />
    </clipPath>
  </defs>
  <metadata
     id="metadata5514">
    <rdf:RDF>
      <cc:Work
         rdf:about="">
        <dc:format>image/svg+xml</dc:format>
        <dc:type
           rdf:resource="http://purl.org/dc/dcmitype/StillImage" />
        <dc:title></dc:title>
      </cc:Work>
    </rdf:RDF>
  </metadata>
  <g
     transform="translate(1070.7039,459.65854)"
     id="layer1">
    <g
       transform="matrix(1.25,0,0,-1.25,-1218.9615,426.88783)"
       id="g3505">
      <g
         clip-path="url(#clipPath3509)"
         id="g3507">
        <g
           transform="translate(128.1641,707.0181)"
           id="g3513">
          <path
             d="M 0,0 -2.674,0 C -3.259,0 -3.761,-0.795 -3.979,-0.795 L -7.082,-0.795 C -7.698,-0.795 -8.202,-1.297 -8.202,-1.915 L -8.202,-6.443 C -8.202,-6.798 -8.326,-6.87 -8.477,-6.86 -8.718,-6.839 -8.909,-6.642 -8.909,-6.396 L -8.909,1.1 C -8.909,1.359 -8.698,1.571 -8.438,1.571 L -5.294,1.571 C -4.882,1.571 -4.544,1.295 -4.243,1.05 -3.987,0.841 -3.745,0.645 -3.416,0.645 L -0.472,0.645 C -0.212,0.645 0,0.433 0,0.173 L 0,0 Z M 1.51,0 0.648,0 0.648,0.173 C 0.648,0.79 0.146,1.292 -0.472,1.292 L -3.416,1.292 C -3.701,1.292 -4.306,2.219 -5.294,2.219 L -8.438,2.219 C -9.054,2.219 -9.558,1.717 -9.558,1.1 L -9.558,-6.396 C -9.558,-7.003 -9.069,-7.498 -8.466,-7.514 -8.462,-7.514 -8.458,-7.516 -8.453,-7.517 L -2.179,-7.517 C -2.29,-7.427 -2.394,-7.33 -2.491,-7.228 -2.511,-7.208 -2.529,-7.186 -2.548,-7.165 -2.628,-7.078 -2.704,-6.989 -2.774,-6.895 -3.201,-6.325 -3.458,-5.622 -3.458,-4.857 -3.458,-2.976 -1.927,-1.444 -0.046,-1.444 -0.028,-1.444 -0.011,-1.447 0.006,-1.447 0.114,-1.448 0.222,-1.455 0.327,-1.466 0.328,-1.466 0.329,-1.467 0.331,-1.467 0.437,-1.478 0.544,-1.494 0.648,-1.516 1.295,-1.648 1.89,-1.966 2.368,-2.444 2.463,-2.539 2.549,-2.64 2.631,-2.743 L 2.631,-1.12 C 2.631,-0.502 2.128,0 1.51,0"
             id="path3515"
             style="fill:#ffffff;fill-opacity:1;fill-rule:nonzero;stroke:none" />
        </g>
        <g
           transform="translate(130.3369,701.0918)"
           id="g3517">
          <path
             d="M 0,0 -0.384,0.22 C -0.471,0.269 -0.58,0.239 -0.631,0.152 -0.681,0.065 -0.65,-0.045 -0.563,-0.095 L -0.18,-0.314 C -0.35,-0.562 -0.564,-0.776 -0.813,-0.945 L -1.035,-0.562 C -1.085,-0.475 -1.196,-0.445 -1.282,-0.496 -1.369,-0.545 -1.398,-0.656 -1.349,-0.743 L -1.129,-1.124 C -1.389,-1.248 -1.674,-1.328 -1.975,-1.351 L -1.977,-0.908 C -1.977,-0.808 -2.058,-0.728 -2.158,-0.728 -2.258,-0.728 -2.338,-0.809 -2.338,-0.909 L -2.338,-1.351 C -2.643,-1.329 -2.932,-1.249 -3.195,-1.122 L -2.975,-0.736 C -2.926,-0.649 -2.957,-0.539 -3.043,-0.489 -3.131,-0.439 -3.24,-0.47 -3.291,-0.557 L -3.51,-0.943 C -3.755,-0.775 -3.968,-0.562 -4.137,-0.318 L -3.754,-0.094 C -3.668,-0.043 -3.639,0.068 -3.689,0.154 -3.74,0.241 -3.852,0.269 -3.938,0.218 L -4.316,-0.003 C -4.445,0.262 -4.527,0.554 -4.55,0.862 L -4.105,0.864 C -4.006,0.865 -3.925,0.946 -3.926,1.046 -3.926,1.146 -4.008,1.227 -4.107,1.226 L -4.549,1.224 C -4.525,1.528 -4.445,1.816 -4.318,2.078 L -3.936,1.859 C -3.85,1.809 -3.738,1.839 -3.688,1.927 -3.639,2.013 -3.67,2.123 -3.756,2.174 L -4.139,2.393 C -3.969,2.641 -3.754,2.855 -3.506,3.024 L -3.285,2.641 C -3.234,2.554 -3.123,2.524 -3.037,2.575 -2.95,2.624 -2.92,2.735 -2.971,2.822 L -3.189,3.203 C -2.93,3.326 -2.646,3.406 -2.345,3.429 L -2.343,2.987 C -2.342,2.886 -2.261,2.806 -2.161,2.806 -2.061,2.807 -1.98,2.888 -1.98,2.988 L -1.982,3.43 C -1.678,3.407 -1.388,3.327 -1.125,3.201 L -1.344,2.815 C -1.393,2.729 -1.363,2.617 -1.276,2.568 -1.189,2.519 -1.078,2.549 -1.029,2.636 L -0.81,3.021 C -0.564,2.854 -0.352,2.642 -0.184,2.396 L -0.564,2.172 C -0.651,2.122 -0.681,2.011 -0.629,1.924 -0.579,1.838 -0.468,1.809 -0.382,1.86 L -0.002,2.083 C 0.126,1.818 0.208,1.527 0.23,1.219 L -0.211,1.218 C -0.311,1.218 -0.392,1.137 -0.392,1.037 -0.391,0.937 -0.311,0.856 -0.21,0.856 L 0.23,0.857 C 0.208,0.552 0.127,0.263 0,0 M -2.16,4.024 C -3.806,4.024 -5.145,2.685 -5.145,1.039 -5.145,-0.606 -3.806,-1.945 -2.16,-1.945 -0.514,-1.945 0.824,-0.606 0.824,1.039 0.824,2.685 -0.514,4.024 -2.16,4.024"
             id="path3519"
             style="fill:#ffffff;fill-opacity:1;fill-rule:nonzero;stroke:none" />
        </g>
        <g
           transform="translate(129.3018,703.5122)"
           id="g3521">
          <path
             d="M 0,0 -0.98,-0.981 C -1.025,-0.965 -1.073,-0.955 -1.124,-0.955 -1.176,-0.955 -1.223,-0.965 -1.269,-0.981 L -1.918,-0.331 C -1.988,-0.26 -2.104,-0.26 -2.175,-0.331 -2.245,-0.401 -2.245,-0.517 -2.175,-0.587 L -1.524,-1.237 C -1.541,-1.283 -1.551,-1.33 -1.551,-1.381 -1.551,-1.616 -1.359,-1.808 -1.124,-1.808 -0.889,-1.808 -0.697,-1.616 -0.697,-1.381 -0.697,-1.33 -0.708,-1.283 -0.725,-1.237 L 0.256,-0.256 C 0.328,-0.186 0.328,-0.071 0.256,0 0.186,0.071 0.071,0.071 0,0"
             id="path3523"
             style="fill:#ffffff;fill-opacity:1;fill-rule:nonzero;stroke:none" />
        </g>
      </g>
    </g>
  </g>
</svg>
