<?xml version="1.0" encoding="UTF-8" standalone="no"?>
<!-- Created with Inkscape (http://www.inkscape.org/) -->

<svg
   xmlns:dc="http://purl.org/dc/elements/1.1/"
   xmlns:cc="http://creativecommons.org/ns#"
   xmlns:rdf="http://www.w3.org/1999/02/22-rdf-syntax-ns#"
   xmlns:svg="http://www.w3.org/2000/svg"
   xmlns="http://www.w3.org/2000/svg"
   xmlns:sodipodi="http://sodipodi.sourceforge.net/DTD/sodipodi-0.dtd"
   xmlns:inkscape="http://www.inkscape.org/namespaces/inkscape"
   version="1.1"
   width="306.84201"
   height="299.10565"
   id="svg8862"
   inkscape:version="0.48+devel r11876"
   sodipodi:docname="map-region.svg">
  <sodipodi:namedview
     pagecolor="#ffffff"
     bordercolor="#666666"
     borderopacity="1"
     objecttolerance="10"
     gridtolerance="10"
     guidetolerance="10"
     inkscape:pageopacity="0"
     inkscape:pageshadow="2"
     inkscape:window-width="1198"
     inkscape:window-height="1899"
     id="namedview277"
     showgrid="false"
     fit-margin-top="0"
     fit-margin-left="0"
     fit-margin-right="0"
     fit-margin-bottom="0"
     inkscape:zoom="0.22425739"
     inkscape:cx="-389.37902"
     inkscape:cy="-206.04461"
     inkscape:window-x="0"
     inkscape:window-y="19"
     inkscape:window-maximized="0"
     inkscape:current-layer="svg8862" />
  <defs
     id="defs8864">
    <clipPath
       id="clipPath140">
      <path
         d="M 338.298,890.642 583.773,890.642 583.773,651.357 338.298,651.357 338.298,890.642 Z"
         id="path142"
         inkscape:connector-curvature="0" />
    </clipPath>
  </defs>
  <metadata
     id="metadata8867">
    <rdf:RDF>
      <cc:Work
         rdf:about="">
        <dc:format>image/svg+xml</dc:format>
        <dc:type
           rdf:resource="http://purl.org/dc/dcmitype/StillImage" />
        <dc:title></dc:title>
      </cc:Work>
    </rdf:RDF>
  </metadata>
  <g
     id="layer1"
     transform="translate(1236.2782,594.3335)">
    <g
       transform="matrix(1.25,0,0,-1.25,-1659.1507,518.9684)"
       clip-path="url(#clipPath140)"
       id="g158"
       style="opacity:0.80000299">
      <g
         transform="translate(527.5439,665.2832)"
         id="g160">
        <path
           d="M 0,0 C -4.172,0.912 -8.166,2.368 -9.074,4.736 -9.982,7.104 -10.89,8.38 -12.887,10.749 -14.881,13.117 -15.975,13.662 -17.607,15.849 -19.242,18.035 -17.789,18.217 -16.518,19.31 -15.248,20.404 -15.248,22.59 -17.244,23.683 -19.242,24.776 -19.965,26.416 -20.695,28.663 -21.42,30.908 -21.783,30.423 -23.959,28.663 -26.142,26.901 -26.502,27.145 -26.889,28.663 -27.277,30.179 -26.684,36.071 -26.865,38.986 -27.046,41.901 -26.142,49.732 -25.232,53.741 -24.324,57.75 -23.236,57.021 -21.237,59.389 -19.242,61.756 -19.965,62.303 -17.607,64.081 -15.248,65.858 -14.158,66.857 -13.066,69.226 -11.981,71.595 -5.261,83.254 -4.535,85.62 -3.811,87.989 -3.266,89.083 -0.825,91.029 1.615,92.975 5.631,96.188 6.902,98.373 8.171,100.56 9.987,100.377 11.803,100.923 13.615,101.471 14.89,101.471 16.704,99.476 18.52,97.48 33.768,87.26 39.213,82.919 44.66,78.577 44.66,81.978 47.622,84.201 L 47.62,84.199 C 47.105,85.001 46.609,85.902 46.112,86.896 44.299,90.54 46.477,92.908 47.746,97.827 49.018,102.746 49.018,101.288 50.652,103.656 52.285,106.025 51.195,106.752 50.652,111.126 50.109,115.497 49.563,114.587 50.652,117.502 51.741,120.416 53.012,121.874 52.285,124.607 51.559,127.339 52.828,130.252 53.737,134.626 54.646,138.997 54.826,150.292 54.102,154.765 53.373,159.237 54.464,167.052 55.37,174.519 56.277,181.987 55.734,185.269 55.37,189.459 55.008,193.649 55.37,193.831 53.556,197.292 51.739,200.753 51.015,202.211 50.652,204.214 50.287,206.219 50.287,212.778 50.652,215.511 L 50.652,216.785 49.018,216.239 C 47.385,215.692 47.564,215.511 45.568,216.833 43.571,218.156 44.842,217.332 42.481,216.833 40.123,216.334 41.573,214.417 40.85,213.141 40.123,211.867 37.943,211.867 37.219,213.688 36.492,215.509 36.492,215.328 34.678,214.963 32.859,214.6 33.586,212.413 31.953,213.141 30.32,213.87 31.408,214.6 29.956,213.871 28.503,213.141 29.23,212.23 27.959,212.778 26.69,213.324 25.418,214.6 23.421,214.963 21.424,215.328 21.242,212.595 19.79,213.506 18.337,214.417 17.791,212.047 14.89,212.047 11.984,212.047 13.437,212.23 11.438,211.502 9.443,210.773 10.531,212.23 8.618,215.438 6.705,218.646 6.356,215.511 5.266,214.052 4.176,212.595 3.269,213.141 1.092,214.963 -1.088,216.785 -0.725,212.778 1.273,212.959 3.269,213.141 3.087,212.413 2.182,210.591 1.273,208.77 1.998,208.406 -0.543,207.858 -3.084,207.312 -1.812,202.758 -2.539,198.933 -3.266,195.107 -0.36,195.835 3.087,196.746 6.536,197.656 6.537,196.381 7.445,195.471 8.353,194.56 7.627,192.738 5.447,192.738 3.269,192.738 1.82,188.184 4.176,188.871 6.536,189.556 7.445,188.002 7.989,185.816 8.533,183.629 9.078,183.447 7.989,181.011 6.902,178.577 7.082,179.622 3.269,179.985 -0.543,180.351 -0.543,179.805 -4.535,179.622 -8.53,179.44 -8.712,178.893 -9.074,181.011 -9.441,183.131 -10.528,183.995 -12.705,183.447 -14.885,182.901 -17.426,184.357 -20.511,187.82 -23.599,191.282 -22.873,185.451 -22.873,181.011 -22.873,176.573 -24.324,179.985 -24.869,178.826 -25.413,177.666 -25.413,176.524 -24.324,174.157 -23.236,171.79 -23.78,171.971 -25.957,171.424 -28.137,170.877 -27.046,170.33 -29.227,169.785 -31.404,169.238 -29.045,168.146 -28.318,165.958 -27.592,163.773 -28.684,164.685 -29.588,162.679 -30.498,160.677 -30.494,161.588 -32.809,160.696 -35.117,159.807 -33.037,158.673 -35.215,159.4 -37.396,160.129 -37.76,158.855 -38.301,157.033 -38.848,155.21 -39.029,155.939 -40.481,158.127 -41.934,160.312 -41.934,160.128 -42.842,162.316 -43.749,164.501 -44.111,162.679 -45.746,162.133 -47.38,161.588 -47.018,161.588 -49.559,160.696 -52.099,159.807 -51.373,161.952 -54.098,163.752 -56.82,165.555 -56.456,164.319 -57.546,162.316 -58.635,160.312 -58.816,156.304 -57.908,154.765 -57.002,153.224 -55.367,150.11 -57.908,151.202 -60.451,152.296 -60.27,150.11 -60.632,148.335 -60.994,146.557 -60.632,145.556 -62.084,145.556 -63.533,145.556 -64.627,146.103 -66.078,148.335 -67.53,150.565 -67.349,148.653 -69.301,148.335 -71.252,148.015 -69.89,146.466 -69.525,143.734 -69.164,141 -69.164,138.634 -70.071,136.629 -70.979,134.625 -69.89,132.802 -70.979,131.491 -71.525,132.271 -73.158,131.666 -74.654,132.075 -76.154,132.486 -77.244,132.213 -77.244,131.491 -77.244,130.77 -77.244,129.889 -78.877,129.206 -80.508,128.522 -80.374,130.025 -81.19,130.436 -82.007,130.847 -83.096,130.163 -83.777,129.343 -84.458,128.522 -83.912,128.114 -84.869,128.114 -85.82,128.114 -86.91,128.796 -88.271,129.343 -89.632,129.889 -90.994,130.163 -91.811,129.479 -92.629,128.796 -94.397,128.114 -95.352,128.796 -96.307,129.479 -98.346,128.659 -99.302,128.054 -100.254,127.446 -101.205,127.292 -102.159,128.054 -103.113,128.812 -105.291,128.522 -106.789,128.114 -108.285,127.703 -110.6,129.479 -111.555,130.847 -112.507,132.213 -114.414,131.392 -115.23,131.491 -116.047,131.59 -116.32,129.616 -117.815,129.069 -119.314,128.522 -119.452,128.522 -119.586,130.025 -119.724,131.529 -120.131,131.666 -121.196,130.847 -122.262,130.025 -122.174,132.213 -121.494,134.125 -120.813,136.038 -121.357,136.447 -122.582,135.49 -123.807,134.534 -125.85,134.397 -125.713,135.49 -125.578,136.583 -126.531,138.024 -126.531,138.024 -126.531,138.024 -128.981,138.77 -128.981,139.912 -128.981,141.056 -128.573,141.913 -128.436,143.416 -128.301,144.919 -128.573,147.515 -127.756,147.104 -126.939,146.694 -125.578,146.968 -125.033,148.335 -124.49,149.701 -123.4,148.335 -123.674,149.36 -123.943,150.387 -125.713,150.247 -125.713,151.476 -125.713,152.708 -127.076,152.568 -128.573,153.116 -130.072,153.662 -131.295,152.568 -132.249,152.296 -133.201,152.023 -133.068,153.116 -134.478,155.713 -135.891,158.308 -136.062,155.985 -136.471,156.805 -136.879,157.625 -137.56,159.538 -136.879,160.696 -136.199,161.855 -134.019,161.177 -134.562,162.679 -135.109,164.183 -136.333,163.227 -137.832,162.679 -139.33,162.133 -139.603,161.45 -140.281,162.679 -140.965,163.909 -143.141,163.09 -144.232,163.637 -145.318,164.183 -146.409,162.679 -147.227,161.588 -148.043,160.494 -148.586,160.083 -150.525,159.674 -152.461,159.265 -153.762,158.581 -154.713,157.761 -154.713,157.761 -155.125,156.532 -154.307,155.301 -153.49,154.073 -153.215,153.935 -154.852,153.526 -156.483,153.116 -158.117,152.708 -161.115,152.433 -164.108,152.16 -163.154,151.75 -162.34,150.247 -161.521,148.744 -163.02,148.881 -164.52,149.36 -166.016,149.841 -166.559,148.881 -167.649,147.924 -168.738,146.968 -168.058,146.285 -167.649,145.055 -167.241,143.825 -166.832,143.963 -165.334,144.099 -163.836,144.235 -163.836,144.509 -162.611,145.327 -161.387,146.149 -160.297,145.738 -159.889,146.557 -159.479,147.378 -159.344,147.651 -158.391,147.651 -157.437,147.651 -156.348,147.787 -155.395,148.335 -154.444,148.881 -153.762,148.881 -153.624,149.36 -153.49,149.841 -152.264,151.75 -152.129,149.36 -151.991,146.972 -150.086,148.744 -148.043,149.36 -146,149.977 -146.274,149.701 -146.137,148.335 -146,146.968 -145.047,146.421 -144.232,145.463 -143.412,144.509 -143.822,142.869 -145.047,143.143 -146.274,143.416 -146.274,141.776 -146.137,140.545 -146,139.316 -146.137,138.634 -147.906,138.411 -149.678,138.187 -149.539,137.813 -151.581,136.857 -153.624,135.901 -154.578,135.354 -154.034,134.262 -153.49,133.169 -153.353,131.802 -154.169,131.491 -154.986,131.18 -154.986,129.616 -154.713,127.292 -154.444,124.971 -154.444,124.288 -154.444,122.92 -154.444,121.555 -154.307,119.096 -153.762,116.91 -153.215,114.724 -151.857,112.537 -150.525,112.127 -149.194,111.718 -149.948,111.854 -149.814,113.221 -149.678,114.587 -148.996,114.996 -148.314,114.996 -147.633,114.996 -146.274,114.313 -147.09,111.854 -147.906,109.395 -146,109.94 -145.047,110.078 -144.094,110.213 -144.232,111.17 -143.141,111.307 -142.052,111.443 -142.052,111.581 -142.732,112.401 -143.412,113.221 -143.55,112.673 -143.141,113.916 -142.732,115.16 -142.598,114.04 -141.371,113.357 -140.148,112.673 -139.738,112.537 -139.738,113.916 -139.738,115.295 -140.689,115.27 -141.371,117.182 -142.052,119.096 -141.509,118.413 -142.598,118.821 -143.686,119.232 -143.959,119.096 -143.959,120.599 -143.959,122.102 -142.732,122.102 -141.371,123.468 -140.01,124.833 -140.01,122.92 -139.875,121.555 -139.738,120.188 -139.466,120.052 -138.376,121.009 -137.287,121.965 -137.56,121.691 -137.287,120.188 -137.016,118.686 -136.333,117.593 -135.244,117.182 -134.156,116.772 -132.113,117.455 -132.385,118.686 -132.657,119.915 -134.701,119.779 -134.156,120.599 -133.61,121.418 -132.113,120.052 -132.249,120.873 -132.385,121.691 -131.705,122.511 -130.887,122.239 -130.072,121.965 -129.118,121.418 -127.621,122.648 -126.123,123.878 -126.395,122.92 -126.258,121.146 -126.123,119.369 -127.076,119.642 -128.573,119.096 -130.072,118.549 -129.662,116.91 -129.798,115.817 -129.934,114.724 -128.029,115.817 -128.164,114.996 -128.301,114.177 -127.349,113.494 -129.662,112.673 -131.978,111.854 -133.068,112.263 -134.428,111.443 -135.789,110.624 -135.109,109.669 -134.156,107.619 -133.201,105.569 -134.156,107.619 -133.61,106.798 -133.068,105.979 -133.884,105.569 -135.789,103.792 -137.693,102.017 -136.199,102.29 -135.518,100.923 -134.836,99.557 -135.789,99.284 -136.333,98.055 -136.879,96.825 -137.56,97.235 -138.376,97.917 -139.192,98.601 -140.01,98.328 -140.01,97.099 -140.01,95.869 -140.01,95.321 -139.875,93.409 -139.738,91.496 -139.603,91.907 -140.689,90.402 -141.781,88.9 -143.006,89.447 -144.502,89.583 -146,89.72 -146,88.627 -146.409,89.72 -146.816,90.813 -147.498,91.36 -148.996,91.36 -150.492,91.36 -151.581,90.813 -153.08,91.634 -154.578,92.452 -155.803,92.452 -156.756,91.224 -157.71,89.993 -158.117,89.447 -158.256,87.808 -158.391,86.167 -158.937,86.578 -160.16,87.397 -161.387,88.218 -161.25,87.808 -161.932,86.852 -162.611,85.895 -162.883,85.62 -163.836,84.528 -164.791,83.435 -165.334,83.162 -163.836,81.932 -162.34,80.702 -162.34,79.474 -162.203,77.15 -162.066,74.829 -161.387,75.783 -159.889,75.103 -158.391,74.418 -157.166,74.69 -157.029,73.188 -156.894,71.685 -157.029,70.455 -156.075,70.455 -155.125,70.455 -153.896,69.091 -152.808,67.86 -151.719,66.631 -148.586,68.68 -147.09,69.5 -145.594,70.318 -145.344,68.844 -144.366,67.587 -143.674,66.695 -143.545,66.533 -143.545,66.533 L -143.918,66.952 C -143.918,66.952 -143.629,65.386 -143.447,63.702 -143.268,62.018 -143.629,61.56 -146.169,61.377 -148.711,61.195 -147.077,60.104 -148.166,59.374 -149.258,58.646 -149.437,58.283 -149.62,55.631 -149.802,52.981 -151.072,54.82 -153.795,55.366 -156.519,55.912 -157.064,55.731 -157.064,53.727 -157.064,51.723 -158.877,51.539 -160.512,53.727 -162.146,55.912 -164.143,55.912 -163.777,53.727 -163.416,51.539 -164.322,51.359 -165.052,49.901 -165.777,48.443 -166.139,48.99 -167.047,46.496 -167.954,44.005 -168.319,46.257 -169.952,46.44 -171.587,46.622 -171.041,46.44 -172.492,44.8 -173.946,43.161 -172.492,41.886 -171.769,40.064 -171.041,38.242 -173.584,38.423 -175.941,38.606 -178.302,38.79 -177.031,37.331 -177.215,34.426 -177.395,31.522 -177.031,32.048 -180.303,31.354 L -180.729,31.453 C -179.721,29.876 -178.814,29.997 -177.543,28.663 -176.271,27.326 -176.637,27.509 -174.094,27.691 -171.552,27.873 -172.279,28.055 -171.189,26.051 -170.099,24.048 -170.186,24.594 -168.236,24.959 -166.287,25.323 -165.017,25.504 -164.835,23.865 -164.654,22.227 -165.743,22.771 -164.835,20.767 -163.928,18.766 -163.928,19.31 -161.566,20.767 -159.207,22.227 -160.843,21.315 -159.207,23.683 -157.576,26.051 -157.392,27.05 -155.395,25.458 -153.398,23.865 -153.762,24.23 -151.402,23.136 -149.041,22.043 -148.678,23.5 -147.408,21.861 -146.137,20.223 -148.496,20.16 -146.318,19.462 -144.141,18.766 -142.062,17.974 -142.465,19.462 -142.869,20.951 -143.412,21.315 -140.871,21.861 -138.332,22.408 -139.057,23.865 -137.059,22.955 -135.064,22.043 -133.61,23.136 -132.884,20.767 -132.158,18.4 -132.884,18.766 -131.795,16.761 -130.707,14.756 -129.98,14.574 -129.436,12.388 -128.891,10.202 -129.618,12.206 -127.256,12.388 -124.898,12.571 -122.535,11.841 -122.174,10.202 -121.813,8.563 -120.904,9.292 -118.543,8.563 -116.183,7.834 -117.092,6.739 -117.271,5.101 -117.453,3.462 -117.635,5.831 -115.637,5.101 -113.642,4.373 -113.461,6.287 -111.283,4.509 -109.102,2.732 -108.922,1.459 -108.197,-0.363 -107.469,-2.186 -107.652,-2.914 -105.836,-4.006 -104.018,-5.1 -103.292,-4.372 -103.474,-6.375 -103.656,-8.379 -103.656,-8.016 -102.385,-9.655 -101.116,-11.294 -102.887,-11.84 -99.821,-12.933 -96.759,-14.026 -97.301,-13.48 -95.305,-12.933 -93.311,-12.387 -96.396,-12.387 -95.305,-10.748 -94.216,-9.108 -94.216,-6.739 -92.4,-8.379 -90.588,-10.019 -90.042,-10.931 -88.768,-9.291 -87.5,-7.651 -88.045,-5.465 -86.227,-5.647 -84.412,-5.829 -82.055,-6.012 -81.873,-4.555 -81.689,-3.096 -79.693,-2.731 -77.879,-4.736 -76.063,-6.739 -74.611,-7.651 -73.34,-6.194 -72.068,-4.736 -70.979,-4.372 -69.709,-6.558 -68.438,-8.744 -67.893,-7.833 -66.805,-6.194 -65.715,-4.555 -66.637,-3.279 -63.726,-5.1 -60.813,-6.922 -60.632,-6.194 -60.088,-4.372 -59.543,-2.551 -59.724,-0.545 -57.546,-1.457 -55.367,-2.367 -55.006,-1.093 -54.822,-0.183 -54.641,0.729 -52.824,1.821 -51.373,0.547 -49.921,-0.729 -50.829,0.001 -50.467,-2.004 -50.102,-4.006 -50.647,-4.372 -48.469,-3.644 -46.291,-2.914 -46.291,-3.279 -44.111,-3.644 -41.934,-4.006 -40.846,-2.914 -38.848,-2.186 -36.852,-1.457 -33.484,-0.364 -32.809,-1.639 -32.13,-2.914 -31.223,-2.914 -29.77,-3.461 -28.318,-4.006 -28.5,-3.279 -27.41,-4.736 -26.321,-6.194 -25.595,-6.194 -25.232,-4.918 -24.869,-3.644 -23.236,-3.279 -22.146,-3.644 -21.059,-4.006 -20.873,-4.007 -20.691,-5.465 -20.511,-6.922 -20.645,-7.104 -18.672,-7.104 -16.699,-7.104 -13.066,-6.741 -11.981,-6.012 -10.89,-5.283 -10.528,-4.554 -9.074,-6.375 -7.621,-8.198 -6.896,-8.744 -5.627,-6.922 -4.354,-5.1 -3.449,-2.367 -1.63,-1.822 0.184,-1.273 -1.63,0 -1.63,0"
           id="path162"
           style="fill:#7b7979;fill-opacity:1;fill-rule:nonzero;stroke:#393536;stroke-width:0.72399998;stroke-linecap:butt;stroke-linejoin:miter;stroke-miterlimit:4;stroke-opacity:1;stroke-dasharray:none"
           inkscape:connector-curvature="0" />
      </g>
      <g
         transform="translate(375.5527,813.6187)"
         id="g164">
        <path
           d="M 0,0 -1.771,-0.821 C -3.538,-1.641 -1.771,-0.821 -1.089,-2.05 -0.409,-3.281 -0.546,-3.964 0.546,-4.647 1.634,-5.33 1.905,-5.603 0.546,-6.559 -0.816,-7.516 -0.409,-7.79 -1.499,-8.336 -2.587,-8.883 -2.178,-9.292 -3.268,-8.198 -4.356,-7.105 -4.084,-7.653 -5.719,-7.38 -7.353,-7.105 -8.986,-7.516 -9.53,-8.607 -10.075,-9.701 -9.124,-11.068 -10.349,-11.341 -11.573,-11.614 -11.981,-11.478 -14.296,-12.024 -14.858,-12.158 -15.794,-12.162 -16.883,-11.752 -17.972,-11.341 -17.02,-10.658 -17.699,-9.925 -18.38,-9.192 -18.788,-10.248 -20.288,-9.925 -21.785,-9.603 -22.058,-10.248 -22.191,-11.426 -22.331,-12.603 -23.011,-13.117 -23.964,-13.392 -24.917,-13.665 -26.415,-15.031 -26.958,-13.528 -27.505,-12.024 -28.183,-11.205 -29.817,-11.478 -31.451,-11.752 -29.817,-12.708 -29.817,-13.528 -29.817,-14.347 -30.905,-14.62 -31.995,-14.269 -33.085,-13.92 -33.628,-14.756 -34.311,-14.347 -34.992,-13.938 -35.497,-15.218 -37.171,-16.845"
           id="path166"
           style="fill:none;stroke:#656263;stroke-width:0.241;stroke-linecap:butt;stroke-linejoin:miter;stroke-miterlimit:4;stroke-opacity:1;stroke-dasharray:none"
           inkscape:connector-curvature="0" />
      </g>
      <g
         transform="translate(338.3818,825.3667)"
         id="g168">
        <path
           d="M 0,0 C 1.498,0.274 4.086,1.23 4.494,0 4.9,-1.229 6.128,-2.87 8.172,-3.416 10.213,-3.961 13.752,-3.961 12.254,-6.83 10.756,-9.699 9.533,-11.066 8.715,-9.836 7.898,-8.607 7.08,-7.651 5.311,-7.924 3.543,-8.197 2.314,-7.924 2.588,-9.29 2.86,-10.656 3.543,-10.248 4.494,-10.929 5.447,-11.615 4.629,-13.253 5.447,-14.346 6.266,-15.438 6.4,-15.438 8.172,-15.165 9.938,-14.891 11.029,-14.891 11.846,-16.531 12.664,-18.171 15.27,-22.06 15.27,-22.06"
           id="path170"
           style="fill:none;stroke:#656263;stroke-width:0.241;stroke-linecap:butt;stroke-linejoin:miter;stroke-miterlimit:4;stroke-opacity:1;stroke-dasharray:none"
           inkscape:connector-curvature="0" />
      </g>
      <g
         transform="translate(372.8311,823.0444)"
         id="g172">
        <path
           d="M 0,0 C 0.951,0.819 2.252,1.503 4.187,1.913 6.127,2.322 6.67,2.733 7.486,3.827 8.304,4.918 9.395,6.421 10.48,5.875 11.572,5.329 13.748,6.148 14.432,4.918 15.11,3.689 15.383,4.372 16.881,4.918 18.38,5.465 19.604,6.421 20.15,4.918 20.694,3.416 18.514,4.094 17.834,2.935 17.153,1.776 17.834,-0.136 18.242,-0.956 18.65,-1.776 18.822,0.546 20.235,-2.048 21.645,-4.645 21.512,-5.738 22.464,-5.465 23.418,-5.193 24.641,-4.099 26.14,-4.645 27.637,-5.193 29,-5.054 29,-6.285 29,-7.514 30.77,-7.374 31.039,-8.401 31.312,-9.426 30.223,-8.061 29.68,-9.426 29.135,-10.793 27.773,-11.067 26.957,-10.657 26.14,-10.247 26.412,-12.842 26.277,-14.346 26.14,-15.849 25.731,-16.706 25.731,-17.849 25.731,-18.991 28.182,-19.737 28.182,-19.737 28.182,-19.737 29.135,-21.178 29,-22.271 28.863,-23.364 30.906,-23.228 32.131,-22.271 33.355,-21.314 33.9,-21.724 33.219,-23.637 32.539,-25.548 32.451,-27.736 33.517,-26.915 34.582,-26.096 34.989,-26.232 35.127,-27.736 35.261,-29.239 35.398,-29.239 36.897,-28.692 38.393,-28.145 38.666,-26.171 39.482,-26.271 40.299,-26.369 42.206,-25.548 43.158,-26.915 44.113,-28.282 46.428,-30.058 47.924,-29.647 49.422,-29.239 51.6,-28.949 52.554,-29.708 53.508,-30.469 54.459,-30.315 55.411,-29.708 56.367,-29.102 58.406,-28.282 59.361,-28.965 60.315,-29.647 62.084,-28.965 62.902,-28.282 63.719,-27.599 65.081,-27.872 66.441,-28.418 67.803,-28.965 68.893,-29.647 69.844,-29.647 70.801,-29.647 70.255,-29.239 70.936,-28.418 71.617,-27.599 72.706,-26.915 73.522,-27.326 74.339,-27.736 74.205,-29.239 75.836,-28.556 77.469,-27.872 77.469,-26.991 77.469,-26.271 77.469,-25.548 78.559,-25.275 80.059,-25.686 81.555,-26.096 83.188,-25.49 83.733,-26.271 84.277,-27.053 83.733,-27.463 84.55,-27.872 85.366,-28.282 86.047,-28.556 86.594,-27.463 87.139,-26.369 87.547,-25.548 88.635,-24.592 89.725,-23.637 89.663,-23.09 90.987,-22.133 92.313,-21.178 91.63,-20.259 92.04,-19.351 92.446,-18.445 92.174,-19.4 93.266,-20.357 94.354,-21.314 95.578,-22.133 96.123,-23.364 96.668,-24.592 95.716,-24.943 96.123,-26.271 96.532,-27.599 96.668,-28.145 98.029,-28.145 99.392,-28.145 99.527,-28.883 99.254,-30.223 98.981,-31.561 97.757,-32.517 98.301,-33.747 98.848,-34.976 99.527,-36.435 100.615,-35.706 101.703,-34.976 102.93,-33.82 103.748,-35.901 104.563,-37.982 105.108,-37.709 106.334,-36.479 107.561,-35.25 110.01,-34.02 109.193,-32.244 108.377,-30.469 109.467,-29.239 110.147,-28.692 110.826,-28.145 110.964,-28.008 110.964,-29.785 110.964,-31.561 112.326,-34.796 112.461,-35.706 112.598,-36.615 113.005,-35.343 113.823,-35.706 114.642,-36.07 113.959,-38.117 115.32,-37.435 116.681,-36.752 117.637,-36.479 117.773,-37.573 117.908,-38.666 117.229,-39.075 116.818,-40.032 116.412,-40.989 115.73,-42.082 116.953,-42.627 118.18,-43.174 119.813,-41.944 120.223,-43.584 120.629,-45.224 121.446,-46.318 121.857,-47.274 122.266,-48.231 121.177,-47.821 120.629,-48.64 120.086,-49.459 120.129,-49.733 121.947,-50.416 123.762,-51.1 123.49,-51.782 122.672,-52.875 121.857,-53.969 121.313,-53.012 120.086,-53.969 118.861,-54.924 116.953,-54.514 118.317,-56.017 119.678,-57.521 120.223,-59.323 119.134,-58.286 118.045,-57.248 116.137,-54.924 115.186,-54.377 114.231,-53.833 113.415,-54.377 113.005,-55.608 112.598,-56.838 113.143,-56.838 113.55,-57.656 113.959,-58.478 112.326,-60.662 112.055,-59.434 111.782,-58.204 110.964,-58.801 110.553,-59.802 110.147,-60.801 109.33,-60.801 108.649,-62.166 107.967,-63.532 108.24,-64.625 106.334,-64.215 104.43,-63.806 104.156,-62.304 103.068,-63.396 101.977,-64.488 101.435,-64.762 100.752,-65.582 100.072,-66.401 98.981,-65.992 98.438,-64.625 97.893,-63.259 97.078,-62.304 98.301,-61.073 99.527,-59.844 98.848,-58.367 97.757,-58.286 96.668,-58.204 96.532,-57.656 95.716,-59.16 94.896,-60.662 93.945,-59.16 92.586,-59.16 91.221,-59.16 91.358,-59.707 89.588,-60.116 87.818,-60.526 88.908,-60.937 87.408,-61.619 85.91,-62.304 87.364,-62.44 85.004,-62.577 82.645,-62.712 81.692,-61.893 81.961,-63.259 82.236,-64.625 84.277,-64.625 82.236,-64.625 80.191,-64.625 79.918,-65.036 78.425,-63.668 76.928,-62.304 75.701,-60.937 74.475,-61.073 73.25,-61.209 72.568,-61.893 72.432,-63.806 72.295,-65.718 73.111,-65.057 73.93,-66.002 74.747,-66.948 76.654,-67.631 75.155,-68.314 73.658,-68.997 73.111,-68.997 73.385,-70.364 73.658,-71.73 75.02,-71.32 73.385,-72.824 71.75,-74.326 71.209,-74.735 70.662,-78.014 70.117,-81.294 70.801,-81.978 69.571,-83.206 68.348,-84.437 66.849,-86.076 65.762,-84.847 64.671,-83.616 64.397,-83.616 63.854,-84.573 63.311,-85.529 63.125,-85.803 61.651,-85.939 60.179,-86.076 59.227,-86.35 58,-85.939 56.773,-85.529 57.729,-85.553 55.823,-86.156 53.916,-86.759 52.298,-86.35 53.582,-84.71 54.869,-83.071 53.916,-83.206 52.42,-81.978 50.92,-80.747 50.104,-80.474 49.422,-81.705 48.742,-82.932 48.742,-83.48 46.699,-83.071 44.657,-82.659 43.296,-81.021 42.616,-82.797 41.934,-84.573 41.252,-84.85 42.344,-86.42 43.43,-87.989 43.977,-88.397 43.022,-89.764 42.068,-91.13 42.889,-91.268 41.934,-92.361 40.98,-93.454 41.662,-92.361 39.895,-92.361 38.122,-92.361 37.714,-92.239 36.623,-92.846 35.533,-93.454 35.127,-92.649 34.174,-92.846 33.219,-93.044 33.628,-94.341 32.539,-93.077 31.451,-91.814 31.857,-91.13 30.496,-92.634 29.135,-94.136 27.773,-94.001 27.229,-92.361 26.684,-90.721 26.957,-91.814 25.459,-89.764 23.961,-87.715 22.735,-86.076 22.735,-84.437 22.735,-82.797 21.645,-82.659 20.012,-83.616 18.38,-84.573 19.195,-85.256 17.834,-85.529 16.473,-85.803 16.064,-84.71 14.975,-85.392 13.886,-86.076 14.564,-85.12 13.886,-87.169 13.204,-89.218 12.932,-89.628 11.98,-90.174 11.027,-90.721 11.163,-91.541 10.347,-90.174 9.529,-88.809 9.119,-87.443 7.623,-88.262 6.127,-89.082 2.994,-91.13 1.905,-89.901 0.816,-88.67 -0.412,-87.306 -1.362,-87.306 -2.316,-87.306 -2.181,-86.076 -2.316,-84.573 -2.453,-83.071 -3.678,-83.343 -5.176,-82.659 -6.674,-81.978 -7.354,-82.932 -7.49,-80.611 -7.627,-78.288 -7.627,-77.059 -9.123,-75.83 -10.621,-74.599 -10.078,-74.326 -9.123,-73.233 -8.17,-72.141 -7.898,-71.866 -7.219,-70.91 -6.537,-69.954 -6.674,-69.543 -5.447,-70.364 -4.224,-71.184 -3.678,-71.594 -3.543,-69.954 -3.404,-68.314 -2.997,-67.768 -2.043,-66.537 -1.09,-65.31 0.135,-65.31 1.633,-66.127 3.132,-66.948 4.221,-66.401 5.717,-66.401 7.215,-66.401 7.896,-66.948 8.304,-68.041 8.713,-69.134 8.713,-68.041 10.211,-68.178 11.707,-68.314 12.932,-68.861 14.023,-67.359 15.11,-65.854 14.975,-66.265 14.838,-64.353 14.703,-62.44 14.703,-61.893 14.703,-60.662 14.703,-59.434 15.521,-59.16 16.337,-59.844 17.153,-60.526 17.834,-60.937 18.38,-59.707 18.924,-58.478 19.877,-58.204 19.195,-56.838 18.514,-55.471 17.02,-55.745 18.924,-53.969 20.829,-52.192 21.645,-51.782 21.103,-50.963 20.557,-50.143 21.512,-52.192 20.557,-50.143 19.604,-48.092 18.924,-47.137 20.285,-46.318 21.645,-45.498 22.735,-45.907 25.051,-45.088 27.364,-44.268 26.412,-43.584 26.549,-42.765 26.684,-41.944 24.779,-43.037 24.915,-41.944 25.051,-40.852 24.641,-39.212 26.14,-38.666 27.637,-38.119 28.59,-38.393 28.455,-36.615 28.318,-34.841 28.59,-33.883 27.092,-35.113 25.595,-36.343 24.641,-35.796 23.826,-35.522 23.008,-35.25 22.328,-36.07 22.464,-36.889 22.6,-37.709 21.103,-36.343 20.557,-37.162 20.012,-37.982 22.056,-37.846 22.328,-39.075 22.6,-40.306 20.557,-40.989 19.469,-40.579 18.38,-40.168 17.697,-39.075 17.426,-37.573 17.153,-36.07 17.426,-35.796 16.337,-36.752 15.247,-37.709 14.975,-37.573 14.838,-36.207 14.703,-34.841 14.703,-32.928 13.342,-34.293 11.98,-35.659 10.754,-35.659 10.754,-37.162 10.754,-38.666 11.027,-38.529 12.115,-38.94 13.204,-39.349 12.661,-38.666 13.342,-40.579 14.023,-42.492 14.975,-42.466 14.975,-43.845 14.975,-45.224 14.564,-45.088 13.342,-44.404 12.115,-43.721 11.98,-42.602 11.572,-43.845 11.163,-45.088 11.301,-44.541 11.98,-45.36 12.661,-46.181 12.661,-46.318 11.572,-46.454 10.48,-46.591 10.619,-47.548 9.666,-47.684 8.713,-47.821 6.807,-48.367 7.623,-45.907 8.438,-43.448 7.08,-42.765 6.398,-42.765 5.717,-42.765 5.035,-43.174 4.898,-44.541 4.765,-45.907 5.519,-46.043 4.187,-45.634 2.855,-45.224 1.498,-43.037 0.951,-40.852 0.406,-38.666 0.269,-36.207 0.269,-34.841 0.269,-33.474 0.269,-32.79 0,-30.469 -0.273,-28.145 -0.273,-26.582 0.544,-26.271 1.36,-25.959 1.223,-24.592 0.679,-23.5 0.135,-22.407 1.089,-21.86 3.132,-20.904 5.174,-19.948 5.035,-19.575 6.807,-19.351 8.576,-19.127 8.713,-18.445 8.576,-17.216 8.438,-15.985 8.438,-14.346 9.666,-14.619 10.891,-14.892 11.301,-13.252 10.48,-12.298 9.666,-11.34 8.713,-10.793 8.576,-9.426 8.438,-8.061 8.713,-7.784 6.67,-8.401 4.627,-9.017 2.722,-10.79 2.584,-8.401 2.449,-6.012 1.223,-7.92 1.089,-8.401 0.951,-8.88 0.269,-8.88 -0.682,-9.426 -1.635,-9.974 -2.725,-10.11 -3.678,-10.11 -4.631,-10.11 -4.766,-10.383 -5.176,-11.204 -5.584,-12.023 -6.674,-11.612 -7.898,-12.434 -9.123,-13.252 -9.123,-13.526 -10.621,-13.662 -12.119,-13.798 -12.528,-13.936 -12.937,-12.707 -13.345,-11.476 -14.025,-10.793 -12.937,-9.837 -11.846,-8.88 -11.303,-7.92 -9.807,-8.401 -8.307,-8.88 -6.809,-9.017 -7.627,-7.514 -8.441,-6.012 -9.396,-5.602 -6.402,-5.329 -3.404,-5.054 -1.771,-4.645 -0.139,-4.235 1.498,-3.826 1.223,-3.688 0.406,-2.46 -0.412,-1.229 0,0 0,0"
           id="path174"
           style="fill:#7b7979;fill-opacity:1;fill-rule:nonzero;stroke:none"
           inkscape:connector-curvature="0" />
      </g>
      <g
         transform="translate(372.8311,823.0444)"
         id="g176">
        <path
           d="M 0,0 C 0.951,0.819 2.252,1.503 4.187,1.913 6.127,2.322 6.67,2.733 7.486,3.827 8.304,4.918 9.395,6.421 10.48,5.875 11.572,5.329 13.748,6.148 14.432,4.918 15.11,3.689 15.383,4.372 16.881,4.918 18.38,5.465 19.604,6.421 20.15,4.918 20.694,3.416 18.514,4.094 17.834,2.935 17.153,1.776 17.834,-0.136 18.242,-0.956 18.65,-1.776 18.822,0.546 20.235,-2.048 21.645,-4.645 21.512,-5.738 22.464,-5.465 23.418,-5.193 24.641,-4.099 26.14,-4.645 27.637,-5.193 29,-5.054 29,-6.285 29,-7.514 30.77,-7.374 31.039,-8.401 31.312,-9.426 30.223,-8.061 29.68,-9.426 29.135,-10.793 27.773,-11.067 26.957,-10.657 26.14,-10.247 26.412,-12.842 26.277,-14.346 26.14,-15.849 25.731,-16.706 25.731,-17.849 25.731,-18.991 28.182,-19.737 28.182,-19.737 28.182,-19.737 29.135,-21.178 29,-22.271 28.863,-23.364 30.906,-23.228 32.131,-22.271 33.355,-21.314 33.9,-21.724 33.219,-23.637 32.539,-25.548 32.451,-27.736 33.517,-26.915 34.582,-26.096 34.989,-26.232 35.127,-27.736 35.261,-29.239 35.398,-29.239 36.897,-28.692 38.393,-28.145 38.666,-26.171 39.482,-26.271 40.299,-26.369 42.206,-25.548 43.158,-26.915 44.113,-28.282 46.428,-30.058 47.924,-29.647 49.422,-29.239 51.6,-28.949 52.554,-29.708 53.508,-30.469 54.459,-30.315 55.411,-29.708 56.367,-29.102 58.406,-28.282 59.361,-28.965 60.315,-29.647 62.084,-28.965 62.902,-28.282 63.719,-27.599 65.081,-27.872 66.441,-28.418 67.803,-28.965 68.893,-29.647 69.844,-29.647 70.801,-29.647 70.255,-29.239 70.936,-28.418 71.617,-27.599 72.706,-26.915 73.522,-27.326 74.339,-27.736 74.205,-29.239 75.836,-28.556 77.469,-27.872 77.469,-26.991 77.469,-26.271 77.469,-25.548 78.559,-25.275 80.059,-25.686 81.555,-26.096 83.188,-25.49 83.733,-26.271 84.277,-27.053 83.733,-27.463 84.55,-27.872 85.366,-28.282 86.047,-28.556 86.594,-27.463 87.139,-26.369 87.547,-25.548 88.635,-24.592 89.725,-23.637 89.663,-23.09 90.987,-22.133 92.313,-21.178 91.63,-20.259 92.04,-19.351 92.446,-18.445 92.174,-19.4 93.266,-20.357 94.354,-21.314 95.578,-22.133 96.123,-23.364 96.668,-24.592 95.716,-24.943 96.123,-26.271 96.532,-27.599 96.668,-28.145 98.029,-28.145 99.392,-28.145 99.527,-28.883 99.254,-30.223 98.981,-31.561 97.757,-32.517 98.301,-33.747 98.848,-34.976 99.527,-36.435 100.615,-35.706 101.703,-34.976 102.93,-33.82 103.748,-35.901 104.563,-37.982 105.108,-37.709 106.334,-36.479 107.561,-35.25 110.01,-34.02 109.193,-32.244 108.377,-30.469 109.467,-29.239 110.147,-28.692 110.826,-28.145 110.964,-28.008 110.964,-29.785 110.964,-31.561 112.326,-34.796 112.461,-35.706 112.598,-36.615 113.005,-35.343 113.823,-35.706 114.642,-36.07 113.959,-38.117 115.32,-37.435 116.681,-36.752 117.637,-36.479 117.773,-37.573 117.908,-38.666 117.229,-39.075 116.818,-40.032 116.412,-40.989 115.73,-42.082 116.953,-42.627 118.18,-43.174 119.813,-41.944 120.223,-43.584 120.629,-45.224 121.446,-46.318 121.857,-47.274 122.266,-48.231 121.177,-47.821 120.629,-48.64 120.086,-49.459 120.129,-49.733 121.947,-50.416 123.762,-51.1 123.49,-51.782 122.672,-52.875 121.857,-53.969 121.313,-53.012 120.086,-53.969 118.861,-54.924 116.953,-54.514 118.317,-56.017 119.678,-57.521 120.223,-59.323 119.134,-58.286 118.045,-57.248 116.137,-54.924 115.186,-54.377 114.231,-53.833 113.415,-54.377 113.005,-55.608 112.598,-56.838 113.143,-56.838 113.55,-57.656 113.959,-58.478 112.326,-60.662 112.055,-59.434 111.782,-58.204 110.964,-58.801 110.553,-59.802 110.147,-60.801 109.33,-60.801 108.649,-62.166 107.967,-63.532 108.24,-64.625 106.334,-64.215 104.43,-63.806 104.156,-62.304 103.068,-63.396 101.977,-64.488 101.435,-64.762 100.752,-65.582 100.072,-66.401 98.981,-65.992 98.438,-64.625 97.893,-63.259 97.078,-62.304 98.301,-61.073 99.527,-59.844 98.848,-58.367 97.757,-58.286 96.668,-58.204 96.532,-57.656 95.716,-59.16 94.896,-60.662 93.945,-59.16 92.586,-59.16 91.221,-59.16 91.358,-59.707 89.588,-60.116 87.818,-60.526 88.908,-60.937 87.408,-61.619 85.91,-62.304 87.364,-62.44 85.004,-62.577 82.645,-62.712 81.692,-61.893 81.961,-63.259 82.236,-64.625 84.277,-64.625 82.236,-64.625 80.191,-64.625 79.918,-65.036 78.425,-63.668 76.928,-62.304 75.701,-60.937 74.475,-61.073 73.25,-61.209 72.568,-61.893 72.432,-63.806 72.295,-65.718 73.111,-65.057 73.93,-66.002 74.747,-66.948 76.654,-67.631 75.155,-68.314 73.658,-68.997 73.111,-68.997 73.385,-70.364 73.658,-71.73 75.02,-71.32 73.385,-72.824 71.75,-74.326 71.209,-74.735 70.662,-78.014 70.117,-81.294 70.801,-81.978 69.571,-83.206 68.348,-84.437 66.849,-86.076 65.762,-84.847 64.671,-83.616 64.397,-83.616 63.854,-84.573 63.311,-85.529 63.125,-85.803 61.651,-85.939 60.179,-86.076 59.227,-86.35 58,-85.939 56.773,-85.529 57.729,-85.553 55.823,-86.156 53.916,-86.759 52.298,-86.35 53.582,-84.71 54.869,-83.071 53.916,-83.206 52.42,-81.978 50.92,-80.747 50.104,-80.474 49.422,-81.705 48.742,-82.932 48.742,-83.48 46.699,-83.071 44.657,-82.659 43.296,-81.021 42.616,-82.797 41.934,-84.573 41.252,-84.85 42.344,-86.42 43.43,-87.989 43.977,-88.397 43.022,-89.764 42.068,-91.13 42.889,-91.268 41.934,-92.361 40.98,-93.454 41.662,-92.361 39.895,-92.361 38.122,-92.361 37.714,-92.239 36.623,-92.846 35.533,-93.454 35.127,-92.649 34.174,-92.846 33.219,-93.044 33.628,-94.341 32.539,-93.077 31.451,-91.814 31.857,-91.13 30.496,-92.634 29.135,-94.136 27.773,-94.001 27.229,-92.361 26.684,-90.721 26.957,-91.814 25.459,-89.764 23.961,-87.715 22.735,-86.076 22.735,-84.437 22.735,-82.797 21.645,-82.659 20.012,-83.616 18.38,-84.573 19.195,-85.256 17.834,-85.529 16.473,-85.803 16.064,-84.71 14.975,-85.392 13.886,-86.076 14.564,-85.12 13.886,-87.169 13.204,-89.218 12.932,-89.628 11.98,-90.174 11.027,-90.721 11.163,-91.541 10.347,-90.174 9.529,-88.809 9.119,-87.443 7.623,-88.262 6.127,-89.082 2.994,-91.13 1.905,-89.901 0.816,-88.67 -0.412,-87.306 -1.362,-87.306 -2.316,-87.306 -2.181,-86.076 -2.316,-84.573 -2.453,-83.071 -3.678,-83.343 -5.176,-82.659 -6.674,-81.978 -7.354,-82.932 -7.49,-80.611 -7.627,-78.288 -7.627,-77.059 -9.123,-75.83 -10.621,-74.599 -10.078,-74.326 -9.123,-73.233 -8.17,-72.141 -7.898,-71.866 -7.219,-70.91 -6.537,-69.954 -6.674,-69.543 -5.447,-70.364 -4.224,-71.184 -3.678,-71.594 -3.543,-69.954 -3.404,-68.314 -2.997,-67.768 -2.043,-66.537 -1.09,-65.31 0.135,-65.31 1.633,-66.127 3.132,-66.948 4.221,-66.401 5.717,-66.401 7.215,-66.401 7.896,-66.948 8.304,-68.041 8.713,-69.134 8.713,-68.041 10.211,-68.178 11.707,-68.314 12.932,-68.861 14.023,-67.359 15.11,-65.854 14.975,-66.265 14.838,-64.353 14.703,-62.44 14.703,-61.893 14.703,-60.662 14.703,-59.434 15.521,-59.16 16.337,-59.844 17.153,-60.526 17.834,-60.937 18.38,-59.707 18.924,-58.478 19.877,-58.204 19.195,-56.838 18.514,-55.471 17.02,-55.745 18.924,-53.969 20.829,-52.192 21.645,-51.782 21.103,-50.963 20.557,-50.143 21.512,-52.192 20.557,-50.143 19.604,-48.092 18.924,-47.137 20.285,-46.318 21.645,-45.498 22.735,-45.907 25.051,-45.088 27.364,-44.268 26.412,-43.584 26.549,-42.765 26.684,-41.944 24.779,-43.037 24.915,-41.944 25.051,-40.852 24.641,-39.212 26.14,-38.666 27.637,-38.119 28.59,-38.393 28.455,-36.615 28.318,-34.841 28.59,-33.883 27.092,-35.113 25.595,-36.343 24.641,-35.796 23.826,-35.522 23.008,-35.25 22.328,-36.07 22.464,-36.889 22.6,-37.709 21.103,-36.343 20.557,-37.162 20.012,-37.982 22.056,-37.846 22.328,-39.075 22.6,-40.306 20.557,-40.989 19.469,-40.579 18.38,-40.168 17.697,-39.075 17.426,-37.573 17.153,-36.07 17.426,-35.796 16.337,-36.752 15.247,-37.709 14.975,-37.573 14.838,-36.207 14.703,-34.841 14.703,-32.928 13.342,-34.293 11.98,-35.659 10.754,-35.659 10.754,-37.162 10.754,-38.666 11.027,-38.529 12.115,-38.94 13.204,-39.349 12.661,-38.666 13.342,-40.579 14.023,-42.492 14.975,-42.466 14.975,-43.845 14.975,-45.224 14.564,-45.088 13.342,-44.404 12.115,-43.721 11.98,-42.602 11.572,-43.845 11.163,-45.088 11.301,-44.541 11.98,-45.36 12.661,-46.181 12.661,-46.318 11.572,-46.454 10.48,-46.591 10.619,-47.548 9.666,-47.684 8.713,-47.821 6.807,-48.367 7.623,-45.907 8.438,-43.448 7.08,-42.765 6.398,-42.765 5.717,-42.765 5.035,-43.174 4.898,-44.541 4.765,-45.907 5.519,-46.043 4.187,-45.634 2.855,-45.224 1.498,-43.037 0.951,-40.852 0.406,-38.666 0.269,-36.207 0.269,-34.841 0.269,-33.474 0.269,-32.79 0,-30.469 -0.273,-28.145 -0.273,-26.582 0.544,-26.271 1.36,-25.959 1.223,-24.592 0.679,-23.5 0.135,-22.407 1.089,-21.86 3.132,-20.904 5.174,-19.948 5.035,-19.575 6.807,-19.351 8.576,-19.127 8.713,-18.445 8.576,-17.216 8.438,-15.985 8.438,-14.346 9.666,-14.619 10.891,-14.892 11.301,-13.252 10.48,-12.298 9.666,-11.34 8.713,-10.793 8.576,-9.426 8.438,-8.061 8.713,-7.784 6.67,-8.401 4.627,-9.017 2.722,-10.79 2.584,-8.401 2.449,-6.012 1.223,-7.92 1.089,-8.401 0.951,-8.88 0.269,-8.88 -0.682,-9.426 -1.635,-9.974 -2.725,-10.11 -3.678,-10.11 -4.631,-10.11 -4.766,-10.383 -5.176,-11.204 -5.584,-12.023 -6.674,-11.612 -7.898,-12.434 -9.123,-13.252 -9.123,-13.526 -10.621,-13.662 -12.119,-13.798 -12.528,-13.936 -12.937,-12.707 -13.345,-11.476 -14.025,-10.793 -12.937,-9.837 -11.846,-8.88 -11.303,-7.92 -9.807,-8.401 -8.307,-8.88 -6.809,-9.017 -7.627,-7.514 -8.441,-6.012 -9.396,-5.602 -6.402,-5.329 -3.404,-5.054 -1.771,-4.645 -0.139,-4.235 1.498,-3.826 1.223,-3.688 0.406,-2.46 -0.412,-1.229 0,0 0,0 Z"
           id="path178"
           style="fill:none;stroke:#393536;stroke-width:0.546;stroke-linecap:butt;stroke-linejoin:miter;stroke-miterlimit:4;stroke-opacity:1;stroke-dasharray:none"
           inkscape:connector-curvature="0" />
      </g>
      <g
         transform="translate(494.7354,769.6133)"
         id="g180">
        <path
           d="M 0,0 C 1.947,-0.125 5.763,-1.402 5.579,-2.313 5.398,-3.224 3.959,-5.41 5.586,-5.957 7.214,-6.503 7.031,-6.868 6.852,-7.778 6.67,-8.689 5.084,-9.782 6.964,-10.329 8.85,-10.876 10.117,-10.329 10.301,-11.969 10.482,-13.608 9.936,-14.701 13.205,-15.065 16.473,-15.43 18.287,-16.706 19.378,-15.977 20.467,-15.247 22.098,-12.15 23.367,-11.969 24.643,-11.786 23.552,-12.333 24.097,-13.79 24.643,-15.247 27.369,-16.117 29.551,-15.753"
           id="path182"
           style="fill:none;stroke:#393536;stroke-width:0.54000002;stroke-linecap:butt;stroke-linejoin:miter;stroke-miterlimit:4;stroke-opacity:1;stroke-dasharray:none"
           inkscape:connector-curvature="0" />
      </g>
      <g
         transform="translate(570.3896,890.6323)"
         id="g184">
        <path
           d="M 0,0 C 0.182,-2.371 2.178,-2.917 3.993,-4.01 5.81,-5.103 8.169,-7.107 7.807,-9.838 7.441,-12.571 7.441,-19.13 7.807,-21.135 8.169,-23.138 8.894,-24.596 10.71,-28.057 12.524,-31.518 12.162,-31.7 12.524,-35.89 12.889,-40.08 13.432,-43.362 12.524,-50.83 11.618,-58.297 10.527,-66.112 11.256,-70.584 11.98,-75.057 11.801,-86.352 10.892,-90.723 9.982,-95.097 8.713,-98.01 9.439,-100.742 10.166,-103.476 8.896,-104.934 7.807,-107.847 6.717,-110.762 7.264,-109.853 7.807,-114.223 8.35,-118.597 9.439,-119.324 7.807,-121.693 6.172,-124.061 6.172,-122.604 4.9,-127.522 3.631,-132.441 1.453,-134.809 3.267,-138.453 5.083,-142.095 6.898,-144.463 9.621,-145.375 12.344,-146.286 11.98,-148.108 11.98,-151.932 11.98,-155.759 9.982,-157.399 9.439,-163.593 8.894,-169.786 9.621,-173.133 11.436,-177.562 13.252,-181.991 11.074,-183.997 11.436,-189.278 11.801,-194.561 11.074,-200.026 10.348,-201.667"
           id="path186"
           style="fill:none;stroke:#656263;stroke-width:0.241;stroke-linecap:butt;stroke-linejoin:miter;stroke-miterlimit:4;stroke-opacity:1;stroke-dasharray:none"
           inkscape:connector-curvature="0" />
      </g>
      <g
         transform="translate(410.5498,767.5781)"
         id="g188">
        <path
           d="M 0,0 0,4.07 0.65,4.07 2.015,1.354 2.015,4.07 2.639,4.07 2.639,0 1.966,0 0.626,2.654 0.626,0 0,0 Z"
           id="path190"
           style="fill:#ffffff;fill-opacity:1;fill-rule:nonzero;stroke:none"
           inkscape:connector-curvature="0" />
      </g>
      <g
         transform="translate(413.9023,767.5781)"
         id="g192">
        <path
           d="M 0,0 0,4.07 0.67,4.07 0.67,2.26 2.027,4.07 2.935,4.07 1.677,2.486 3.001,0 2.132,0 1.214,1.915 0.67,1.231 0.67,0 0,0 Z"
           id="path194"
           style="fill:#ffffff;fill-opacity:1;fill-rule:nonzero;stroke:none"
           inkscape:connector-curvature="0" />
      </g>
      <g
         transform="translate(419.0107,769.1899)"
         id="g196">
        <path
           d="M 0,0 -0.459,1.51 -0.908,0 0,0 Z M 1.237,-1.612 0.508,-1.612 0.216,-0.688 -1.113,-0.688 -1.385,-1.612 -2.1,-1.612 -0.808,2.458 -0.098,2.458 1.237,-1.612 Z"
           id="path198"
           style="fill:#ffffff;fill-opacity:1;fill-rule:nonzero;stroke:none"
           inkscape:connector-curvature="0" />
      </g>
      <g
         transform="translate(420.6055,767.5781)"
         id="g200">
        <path
           d="M 0,0 0,4.07 0.655,4.07 2.013,1.354 2.013,4.07 2.64,4.07 2.64,0 1.965,0 0.626,2.654 0.626,0 0,0 Z"
           id="path202"
           style="fill:#ffffff;fill-opacity:1;fill-rule:nonzero;stroke:none"
           inkscape:connector-curvature="0" />
      </g>
      <g
         transform="translate(425.5,769.0742)"
         id="g204">
        <path
           d="M 0,0 0,0.687 1.444,0.687 1.444,-0.933 C 1.299,-1.107 1.092,-1.253 0.823,-1.377 0.561,-1.502 0.29,-1.564 0.02,-1.564 -0.306,-1.564 -0.598,-1.483 -0.849,-1.322 -1.099,-1.159 -1.295,-0.918 -1.445,-0.593 -1.591,-0.271 -1.663,0.108 -1.663,0.545 -1.663,0.992 -1.591,1.376 -1.44,1.695 -1.29,2.013 -1.101,2.25 -0.864,2.407 -0.626,2.566 -0.341,2.644 -0.013,2.644 0.385,2.644 0.702,2.542 0.94,2.341 1.177,2.136 1.334,1.84 1.403,1.446 L 0.739,1.294 C 0.687,1.503 0.596,1.665 0.463,1.775 0.332,1.885 0.173,1.941 -0.013,1.941 -0.299,1.941 -0.528,1.83 -0.706,1.607 -0.884,1.385 -0.972,1.044 -0.972,0.586 -0.972,0.099 -0.876,-0.277 -0.685,-0.531 -0.52,-0.753 -0.299,-0.862 -0.017,-0.862 0.115,-0.862 0.247,-0.831 0.392,-0.77 0.532,-0.708 0.657,-0.623 0.769,-0.516 L 0.769,0 0,0 Z"
           id="path206"
           style="fill:#ffffff;fill-opacity:1;fill-rule:nonzero;stroke:none"
           inkscape:connector-curvature="0" />
      </g>
      <g
         transform="translate(429.3311,769.1899)"
         id="g208">
        <path
           d="M 0,0 -0.459,1.51 -0.908,0 0,0 Z M 1.236,-1.612 0.507,-1.612 0.214,-0.688 -1.113,-0.688 -1.391,-1.612 -2.103,-1.612 -0.811,2.458 -0.098,2.458 1.236,-1.612 Z"
           id="path210"
           style="fill:#ffffff;fill-opacity:1;fill-rule:nonzero;stroke:none"
           inkscape:connector-curvature="0" />
      </g>
      <g
         transform="translate(430.9346,767.5781)"
         id="g212">
        <path
           d="M 0,0 0,4.036 0.67,4.036 0.67,0.689 2.34,0.689 2.34,0 0,0 Z"
           id="path214"
           style="fill:#ffffff;fill-opacity:1;fill-rule:nonzero;stroke:none"
           inkscape:connector-curvature="0" />
      </g>
      <g
         transform="translate(435.5195,769.1899)"
         id="g216">
        <path
           d="M 0,0 -0.458,1.51 -0.909,0 0,0 Z M 1.235,-1.612 0.507,-1.612 0.218,-0.688 -1.116,-0.688 -1.388,-1.612 -2.104,-1.612 -0.81,2.458 -0.098,2.458 1.235,-1.612 Z"
           id="path218"
           style="fill:#ffffff;fill-opacity:1;fill-rule:nonzero;stroke:none"
           inkscape:connector-curvature="0" />
      </g>
      <g
         transform="translate(432.04,711.0225)"
         id="g220">
        <path
           d="M 0,0 0,0.688 1.447,0.688 1.447,-0.932 C 1.299,-1.105 1.096,-1.252 0.827,-1.376 0.561,-1.5 0.29,-1.562 0.023,-1.562 -0.306,-1.562 -0.594,-1.482 -0.845,-1.319 -1.098,-1.156 -1.297,-0.914 -1.441,-0.592 -1.589,-0.27 -1.662,0.11 -1.662,0.546 -1.662,0.995 -1.589,1.378 -1.437,1.696 -1.29,2.015 -1.098,2.252 -0.859,2.408 -0.621,2.567 -0.339,2.645 -0.007,2.645 0.385,2.645 0.705,2.543 0.941,2.342 1.182,2.139 1.336,1.841 1.403,1.45 L 0.738,1.296 C 0.687,1.505 0.6,1.665 0.467,1.776 0.332,1.887 0.174,1.942 -0.007,1.942 -0.297,1.942 -0.53,1.831 -0.703,1.607 -0.88,1.385 -0.971,1.046 -0.971,0.589 -0.971,0.099 -0.873,-0.274 -0.682,-0.53 -0.518,-0.75 -0.297,-0.861 -0.016,-0.861 0.115,-0.861 0.251,-0.83 0.391,-0.768 0.532,-0.706 0.659,-0.622 0.769,-0.514 L 0.769,0 0,0 Z"
           id="path222"
           style="fill:#ffffff;fill-opacity:1;fill-rule:nonzero;stroke:none"
           inkscape:connector-curvature="0" />
      </g>
      <g
         transform="translate(434.1113,709.5298)"
         id="g224">
        <path
           d="M 0,0 0,4.068 2.466,4.068 2.466,3.379 0.668,3.379 0.668,2.478 2.338,2.478 2.338,1.793 0.668,1.793 0.668,0.687 2.525,0.687 2.525,0 0,0 Z"
           id="path226"
           style="fill:#ffffff;fill-opacity:1;fill-rule:nonzero;stroke:none"
           inkscape:connector-curvature="0" />
      </g>
      <g
         transform="translate(437.876,711.877)"
         id="g228">
        <path
           d="M 0,0 0.499,0 C 0.802,0 0.998,0.015 1.079,0.04 1.162,0.067 1.23,0.123 1.28,0.203 1.332,0.285 1.359,0.394 1.359,0.528 1.359,0.658 1.332,0.762 1.28,0.84 1.23,0.919 1.158,0.974 1.07,1.003 1.008,1.024 0.826,1.032 0.525,1.032 L 0,1.032 0,0 Z M -0.669,-2.347 -0.669,1.721 0.744,1.721 C 1.105,1.721 1.363,1.685 1.519,1.611 1.674,1.54 1.802,1.411 1.9,1.233 2,1.051 2.053,0.834 2.053,0.582 2.053,0.266 1.971,0.008 1.822,-0.186 1.672,-0.379 1.453,-0.503 1.173,-0.552 1.318,-0.657 1.436,-0.768 1.529,-0.892 1.621,-1.014 1.752,-1.235 1.913,-1.553 L 2.319,-2.347 1.519,-2.347 1.029,-1.463 C 0.859,-1.142 0.738,-0.941 0.674,-0.863 0.613,-0.779 0.547,-0.725 0.477,-0.696 0.406,-0.663 0.295,-0.649 0.139,-0.649 L 0,-0.649 0,-2.347 -0.669,-2.347 Z"
           id="path230"
           style="fill:#ffffff;fill-opacity:1;fill-rule:nonzero;stroke:none"
           inkscape:connector-curvature="0" />
      </g>
      <g
         transform="translate(441.3066,709.5298)"
         id="g232">
        <path
           d="M 0,0 0,3.379 -0.987,3.379 -0.987,4.068 1.653,4.068 1.653,3.379 0.668,3.379 0.668,0 0,0 Z"
           id="path234"
           style="fill:#ffffff;fill-opacity:1;fill-rule:nonzero;stroke:none"
           inkscape:connector-curvature="0" />
      </g>
      <g
         transform="translate(444.5166,710.856)"
         id="g236">
        <path
           d="M 0,0 0.654,0.077 C 0.73,-0.442 0.971,-0.703 1.381,-0.703 1.583,-0.703 1.742,-0.649 1.858,-0.541 1.975,-0.436 2.033,-0.305 2.033,-0.147 2.033,-0.055 2.014,0.024 1.969,0.09 1.93,0.154 1.869,0.206 1.786,0.248 1.701,0.291 1.502,0.359 1.184,0.457 0.896,0.544 0.688,0.638 0.555,0.739 0.422,0.844 0.315,0.977 0.239,1.142 0.162,1.306 0.123,1.485 0.123,1.676 0.123,1.897 0.171,2.097 0.27,2.273 0.373,2.451 0.514,2.586 0.688,2.677 0.863,2.765 1.086,2.812 1.344,2.812 1.734,2.812 2.039,2.706 2.258,2.492 2.48,2.281 2.596,1.976 2.607,1.579 L 1.937,1.543 C 1.904,1.763 1.844,1.914 1.744,2 1.648,2.088 1.507,2.132 1.33,2.132 1.146,2.132 1.007,2.094 0.909,2.018 0.813,1.942 0.765,1.849 0.765,1.736 0.765,1.626 0.809,1.531 0.896,1.457 0.985,1.38 1.187,1.297 1.507,1.207 1.844,1.108 2.088,1.006 2.24,0.897 2.389,0.789 2.504,0.65 2.583,0.479 2.664,0.308 2.701,0.1 2.701,-0.145 2.701,-0.497 2.594,-0.796 2.379,-1.036 2.16,-1.276 1.823,-1.396 1.361,-1.396 0.545,-1.396 0.092,-0.931 0,0"
           id="path238"
           style="fill:#ffffff;fill-opacity:1;fill-rule:nonzero;stroke:none"
           inkscape:connector-curvature="0" />
      </g>
      <path
         d="M 447.764,713.598 448.434,713.598 448.434,709.53 447.764,709.53 447.764,713.598 Z"
         id="path240"
         style="fill:#ffffff;fill-opacity:1;fill-rule:nonzero;stroke:none"
         inkscape:connector-curvature="0" />
      <g
         transform="translate(449.7451,711.3027)"
         id="g242">
        <path
           d="M 0,0 0,-1.086 0.622,-1.086 C 0.894,-1.086 1.072,-1.07 1.148,-1.042 1.228,-1.013 1.293,-0.957 1.344,-0.873 1.394,-0.789 1.426,-0.684 1.426,-0.553 1.426,-0.42 1.394,-0.31 1.338,-0.226 1.281,-0.139 1.207,-0.08 1.113,-0.048 1.02,-0.015 0.83,0 0.542,0 L 0,0 Z M 0,1.619 0,0.677 0.439,0.677 C 0.705,0.677 0.871,0.682 0.934,0.691 1.051,0.709 1.136,0.758 1.201,0.836 1.265,0.917 1.299,1.022 1.299,1.156 1.299,1.279 1.27,1.375 1.219,1.451 1.168,1.525 1.104,1.571 1.029,1.59 0.952,1.609 0.738,1.619 0.387,1.619 L 0,1.619 Z M -0.672,2.295 0.66,2.295 C 1.024,2.295 1.281,2.262 1.428,2.195 1.576,2.127 1.699,2.011 1.802,1.843 1.904,1.675 1.954,1.483 1.954,1.271 1.954,1.075 1.91,0.898 1.822,0.74 1.736,0.583 1.625,0.465 1.484,0.389 1.68,0.318 1.834,0.197 1.949,0.028 2.057,-0.142 2.113,-0.349 2.113,-0.594 2.113,-0.89 2.042,-1.14 1.9,-1.344 1.76,-1.549 1.59,-1.676 1.397,-1.724 1.264,-1.757 0.952,-1.773 0.463,-1.773 L -0.672,-1.773 -0.672,2.295 Z"
           id="path244"
           style="fill:#ffffff;fill-opacity:1;fill-rule:nonzero;stroke:none"
           inkscape:connector-curvature="0" />
      </g>
      <g
         transform="translate(454.1904,711.1377)"
         id="g246">
        <path
           d="M 0,0 -0.455,1.511 -0.908,0 0,0 Z M 1.237,-1.608 0.51,-1.608 0.216,-0.687 -1.113,-0.687 -1.389,-1.608 -2.104,-1.608 -0.809,2.46 -0.094,2.46 1.237,-1.608 Z"
           id="path248"
           style="fill:#ffffff;fill-opacity:1;fill-rule:nonzero;stroke:none"
           inkscape:connector-curvature="0" />
      </g>
      <g
         transform="translate(455.7861,709.5298)"
         id="g250">
        <path
           d="M 0,0 0,4.068 0.652,4.068 2.012,1.351 2.012,4.068 2.635,4.068 2.635,0 1.966,0 0.626,2.653 0.626,0 0,0 Z"
           id="path252"
           style="fill:#ffffff;fill-opacity:1;fill-rule:nonzero;stroke:none"
           inkscape:connector-curvature="0" />
      </g>
      <g
         transform="translate(459.7939,712.9092)"
         id="g254">
        <path
           d="M 0,0 0,-2.692 0.51,-2.692 C 0.721,-2.692 0.877,-2.672 0.975,-2.63 1.075,-2.589 1.15,-2.526 1.215,-2.446 1.273,-2.364 1.327,-2.234 1.367,-2.055 1.407,-1.879 1.428,-1.645 1.428,-1.354 1.428,-1.054 1.407,-0.818 1.367,-0.643 1.326,-0.469 1.257,-0.33 1.172,-0.232 1.085,-0.133 0.976,-0.066 0.854,-0.036 0.758,-0.011 0.574,0 0.306,0 L 0,0 Z M -0.666,0.688 0.556,0.688 C 0.867,0.688 1.1,0.653 1.257,0.584 1.414,0.516 1.561,0.398 1.693,0.236 1.826,0.07 1.93,-0.144 2.006,-0.407 2.08,-0.67 2.121,-0.997 2.121,-1.387 2.121,-1.739 2.08,-2.043 2,-2.304 1.921,-2.563 1.82,-2.77 1.699,-2.923 1.576,-3.074 1.43,-3.187 1.257,-3.265 1.086,-3.342 0.865,-3.379 0.594,-3.379 L -0.666,-3.379 -0.666,0.688 Z"
           id="path256"
           style="fill:#ffffff;fill-opacity:1;fill-rule:nonzero;stroke:none"
           inkscape:connector-curvature="0" />
      </g>
      <g
         transform="translate(462.4854,709.5298)"
         id="g258">
        <path
           d="M 0,0 0,4.068 2.467,4.068 2.467,3.379 0.668,3.379 0.668,2.478 2.34,2.478 2.34,1.793 0.668,1.793 0.668,0.687 2.527,0.687 2.527,0 0,0 Z"
           id="path260"
           style="fill:#ffffff;fill-opacity:1;fill-rule:nonzero;stroke:none"
           inkscape:connector-curvature="0" />
      </g>
      <g
         transform="translate(482.1025,800.9448)"
         id="g262">
        <path
           d="M 0,0 -0.328,4.396 2.138,4.396 2.138,3.708 0.34,3.708 0.34,2.806 2.013,2.806 2.013,2.121 0.34,2.121 0.34,1.016 2.201,1.016 2.201,0.327 0,0 Z"
           id="path264"
           style="fill:#ffffff;fill-opacity:1;fill-rule:nonzero;stroke:none"
           inkscape:connector-curvature="0" />
      </g>
      <g
         transform="translate(484.8701,801.2715)"
         id="g266">
        <path
           d="M 0,0 0,4.069 0.669,4.069 0.669,2.47 1.993,2.47 1.993,4.069 2.66,4.069 2.988,-0.327 1.993,0 1.993,1.78 0.669,1.78 0.669,0 0,0 Z"
           id="path268"
           style="fill:#ffffff;fill-opacity:1;fill-rule:nonzero;stroke:none"
           inkscape:connector-curvature="0" />
      </g>
      <g
         transform="translate(488.5684,800.9448)"
         id="g270">
        <path
           d="M 0,0 -0.327,4.363 0.341,4.363 0.341,1.016 2.013,1.016 2.341,0 0,0 Z"
           id="path272"
           style="fill:#ffffff;fill-opacity:1;fill-rule:nonzero;stroke:none"
           inkscape:connector-curvature="0" />
      </g>
      <g
         transform="translate(492.8252,802.8818)"
         id="g274">
        <path
           d="M 0,0 -0.461,1.51 -0.91,0 0,0 Z M 1.562,-1.937 0.508,-1.61 0.216,-0.687 -1.113,-0.687 -1.391,-1.61 -2.104,-1.61 -0.809,2.459 -0.102,2.459 1.562,-1.937 Z"
           id="path276"
           style="fill:#ffffff;fill-opacity:1;fill-rule:nonzero;stroke:none"
           inkscape:connector-curvature="0" />
      </g>
      <g
         transform="translate(494.417,801.2715)"
         id="g278">
        <path
           d="M 0,0 0,4.069 0.654,4.069 2.016,1.353 2.016,4.069 2.641,4.069 2.969,-0.327 1.965,0 0.628,2.655 0.628,0 0,0 Z"
           id="path280"
           style="fill:#ffffff;fill-opacity:1;fill-rule:nonzero;stroke:none"
           inkscape:connector-curvature="0" />
      </g>
      <g
         transform="translate(497.8018,800.9448)"
         id="g282">
        <path
           d="M 0,0 -0.328,1.071 1.42,3.708 -0.129,3.708 -0.129,4.396 2.303,4.396 2.303,3.759 0.482,1.016 2.375,1.016 2.705,0 0,0 Z"
           id="path284"
           style="fill:#ffffff;fill-opacity:1;fill-rule:nonzero;stroke:none"
           inkscape:connector-curvature="0" />
      </g>
      <g
         transform="translate(500.6025,801.2715)"
         id="g286">
        <path
           d="M 0,0 0,4.069 2.469,4.069 2.469,3.382 0.67,3.382 0.67,2.479 2.34,2.479 2.34,1.794 0.67,1.794 0.67,0.689 2.527,0.689 2.854,-0.327 0,0 Z"
           id="path288"
           style="fill:#ffffff;fill-opacity:1;fill-rule:nonzero;stroke:none"
           inkscape:connector-curvature="0" />
      </g>
      <g
         transform="translate(503.7061,801.2715)"
         id="g290">
        <path
           d="M 0,0 0,4.069 0.651,4.069 2.016,1.353 2.016,4.069 2.639,4.069 2.639,0 2.289,-0.327 0.953,2.328 0.627,0 0,0 Z"
           id="path292"
           style="fill:#ffffff;fill-opacity:1;fill-rule:nonzero;stroke:none"
           inkscape:connector-curvature="0" />
      </g>
      <path
         d="M 507.028,805.341 507.699,805.341 507.699,801.272 507.028,801.272 507.028,805.341 Z"
         id="path294"
         style="fill:#ffffff;fill-opacity:1;fill-rule:nonzero;stroke:none"
         inkscape:connector-curvature="0" />
      <g
         transform="translate(533.9355,707.4248)"
         id="g296">
        <path
           d="M 0,0 0,4.035 0.668,4.035 0.668,0.689 2.338,0.689 2.338,0 0,0 Z"
           id="path298"
           style="fill:#656263;fill-opacity:1;fill-rule:nonzero;stroke:none"
           inkscape:connector-curvature="0" />
      </g>
      <g
         transform="translate(536.7559,707.4248)"
         id="g300">
        <path
           d="M 0,0 0,4.069 2.468,4.069 2.468,3.382 0.67,3.382 0.67,2.479 2.338,2.479 2.338,1.793 0.67,1.793 0.67,0.689 2.528,0.689 2.528,0 0,0 Z"
           id="path302"
           style="fill:#656263;fill-opacity:1;fill-rule:nonzero;stroke:none"
           inkscape:connector-curvature="0" />
      </g>
      <g
         transform="translate(539.6816,708.752)"
         id="g304">
        <path
           d="M 0,0 0.657,0.078 C 0.731,-0.443 0.973,-0.703 1.38,-0.703 1.583,-0.703 1.746,-0.648 1.86,-0.542 1.976,-0.437 2.034,-0.307 2.034,-0.148 2.034,-0.057 2.013,0.023 1.971,0.088 1.932,0.153 1.872,0.206 1.787,0.246 1.704,0.288 1.503,0.359 1.185,0.457 0.898,0.543 0.688,0.639 0.556,0.74 0.425,0.841 0.317,0.975 0.239,1.139 0.161,1.307 0.122,1.483 0.122,1.673 0.122,1.895 0.173,2.095 0.272,2.274 0.373,2.451 0.513,2.584 0.688,2.676 0.866,2.767 1.083,2.812 1.344,2.812 1.733,2.812 2.041,2.704 2.259,2.491 2.479,2.279 2.597,1.975 2.608,1.579 L 1.937,1.542 C 1.907,1.76 1.845,1.913 1.746,2 1.647,2.086 1.509,2.131 1.331,2.131 1.147,2.131 1.008,2.093 0.91,2.018 0.813,1.941 0.763,1.846 0.763,1.735 0.763,1.624 0.808,1.532 0.896,1.455 0.987,1.38 1.187,1.297 1.509,1.205 1.845,1.109 2.091,1.004 2.239,0.896 2.392,0.788 2.503,0.649 2.585,0.476 2.663,0.306 2.704,0.099 2.704,-0.146 2.704,-0.497 2.593,-0.794 2.379,-1.035 2.161,-1.278 1.825,-1.397 1.36,-1.397 0.546,-1.397 0.093,-0.931 0,0"
           id="path306"
           style="fill:#656263;fill-opacity:1;fill-rule:nonzero;stroke:none"
           inkscape:connector-curvature="0" />
      </g>
      <g
         transform="translate(543.5039,709.4614)"
         id="g308">
        <path
           d="M 0,0 C 0,-0.468 0.087,-0.819 0.269,-1.053 0.444,-1.287 0.665,-1.403 0.925,-1.403 1.19,-1.403 1.409,-1.288 1.582,-1.055 1.755,-0.823 1.84,-0.466 1.84,0.013 1.84,0.486 1.759,0.836 1.589,1.061 1.421,1.287 1.198,1.4 0.925,1.4 0.653,1.4 0.43,1.285 0.257,1.058 0.085,0.831 0,0.478 0,0 M -0.69,-0.028 C -0.69,0.458 -0.62,0.857 -0.477,1.171 -0.332,1.484 -0.146,1.717 0.083,1.871 0.313,2.025 0.596,2.102 0.923,2.102 1.399,2.102 1.783,1.918 2.084,1.554 2.384,1.189 2.532,0.671 2.532,-0.002 2.532,-0.685 2.375,-1.214 2.059,-1.599 1.78,-1.937 1.403,-2.106 0.923,-2.106 0.444,-2.106 0.063,-1.939 -0.215,-1.603 -0.532,-1.221 -0.69,-0.696 -0.69,-0.028"
           id="path310"
           style="fill:#656263;fill-opacity:1;fill-rule:nonzero;stroke:none"
           inkscape:connector-curvature="0" />
      </g>
      <g
         transform="translate(547.3135,707.4248)"
         id="g312">
        <path
           d="M 0,0 0,3.382 -0.987,3.382 -0.987,4.069 1.653,4.069 1.653,3.382 0.67,3.382 0.67,0 0,0 Z"
           id="path314"
           style="fill:#656263;fill-opacity:1;fill-rule:nonzero;stroke:none"
           inkscape:connector-curvature="0" />
      </g>
      <g
         transform="translate(549.4062,707.4248)"
         id="g316">
        <path
           d="M 0,0 0,4.069 0.667,4.069 0.667,2.466 1.986,2.466 1.986,4.069 2.654,4.069 2.654,0 1.986,0 1.986,1.78 0.667,1.78 0.667,0 0,0 Z"
           id="path318"
           style="fill:#656263;fill-opacity:1;fill-rule:nonzero;stroke:none"
           inkscape:connector-curvature="0" />
      </g>
      <g
         transform="translate(553.3066,709.4614)"
         id="g320">
        <path
           d="M 0,0 C 0,-0.468 0.092,-0.819 0.267,-1.053 0.443,-1.287 0.664,-1.403 0.928,-1.403 1.192,-1.403 1.408,-1.288 1.583,-1.055 1.757,-0.823 1.845,-0.466 1.845,0.013 1.845,0.486 1.761,0.836 1.59,1.061 1.423,1.287 1.198,1.4 0.928,1.4 0.655,1.4 0.431,1.285 0.26,1.058 0.087,0.831 0,0.478 0,0 M -0.688,-0.028 C -0.688,0.458 -0.618,0.857 -0.476,1.171 -0.332,1.484 -0.144,1.717 0.085,1.871 0.315,2.025 0.594,2.102 0.923,2.102 1.399,2.102 1.786,1.918 2.087,1.554 2.386,1.189 2.534,0.671 2.534,-0.002 2.534,-0.685 2.377,-1.214 2.06,-1.599 1.781,-1.937 1.404,-2.106 0.925,-2.106 0.443,-2.106 0.063,-1.939 -0.212,-1.603 -0.53,-1.221 -0.688,-0.696 -0.688,-0.028"
           id="path322"
           style="fill:#656263;fill-opacity:1;fill-rule:nonzero;stroke:none"
           inkscape:connector-curvature="0" />
      </g>
      <g
         transform="translate(345.9912,766.5518)"
         id="g324">
        <path
           d="M 0,0 0,0.687 1.447,0.687 1.447,-0.932 C 1.304,-1.104 1.095,-1.252 0.828,-1.376 0.562,-1.5 0.293,-1.562 0.025,-1.562 -0.305,-1.562 -0.596,-1.481 -0.844,-1.319 -1.096,-1.159 -1.296,-0.916 -1.439,-0.592 -1.59,-0.27 -1.662,0.111 -1.662,0.546 -1.662,0.995 -1.59,1.378 -1.437,1.696 -1.291,2.015 -1.098,2.251 -0.861,2.408 -0.626,2.566 -0.34,2.645 -0.01,2.645 0.385,2.645 0.705,2.543 0.941,2.34 1.18,2.136 1.336,1.842 1.406,1.449 L 0.74,1.297 C 0.688,1.505 0.599,1.666 0.466,1.776 0.331,1.886 0.176,1.942 -0.01,1.942 -0.295,1.942 -0.527,1.832 -0.705,1.609 -0.879,1.386 -0.971,1.045 -0.971,0.588 -0.971,0.097 -0.874,-0.275 -0.685,-0.53 -0.519,-0.75 -0.295,-0.86 -0.017,-0.86 0.116,-0.86 0.25,-0.83 0.394,-0.767 0.535,-0.706 0.658,-0.622 0.77,-0.514 L 0.77,0 0,0 Z"
           id="path326"
           style="fill:#656263;fill-opacity:1;fill-rule:nonzero;stroke:none"
           inkscape:connector-curvature="0" />
      </g>
      <g
         transform="translate(349.8252,766.6689)"
         id="g328">
        <path
           d="M 0,0 -0.461,1.51 -0.912,0 0,0 Z M 1.236,-1.61 0.506,-1.61 0.213,-0.688 -1.115,-0.688 -1.389,-1.61 -2.104,-1.61 -0.811,2.458 -0.098,2.458 1.236,-1.61 Z"
           id="path330"
           style="fill:#656263;fill-opacity:1;fill-rule:nonzero;stroke:none"
           inkscape:connector-curvature="0" />
      </g>
      <g
         transform="translate(351.4053,769.1274)"
         id="g332">
        <path
           d="M 0,0 0.668,0 0.668,-2.204 C 0.668,-2.546 0.678,-2.769 0.695,-2.874 0.725,-3.052 0.793,-3.191 0.904,-3.29 1.02,-3.387 1.164,-3.436 1.35,-3.436 1.504,-3.436 1.631,-3.401 1.727,-3.331 1.824,-3.262 1.893,-3.167 1.93,-3.043 1.967,-2.92 1.98,-2.655 1.98,-2.25 L 1.98,0 2.65,0 2.65,-2.138 C 2.65,-2.681 2.623,-3.077 2.563,-3.32 2.507,-3.563 2.375,-3.762 2.173,-3.912 1.969,-4.063 1.701,-4.138 1.367,-4.138 1.02,-4.138 0.747,-4.076 0.555,-3.95 0.358,-3.825 0.219,-3.65 0.131,-3.423 0.042,-3.197 0,-2.78 0,-2.169 L 0,0 Z"
           id="path334"
           style="fill:#656263;fill-opacity:1;fill-rule:nonzero;stroke:none"
           inkscape:connector-curvature="0" />
      </g>
      <g
         transform="translate(355.5117,765.0586)"
         id="g336">
        <path
           d="M 0,0 0,3.379 -0.989,3.379 -0.989,4.069 1.653,4.069 1.653,3.379 0.67,3.379 0.67,0 0,0 Z"
           id="path338"
           style="fill:#656263;fill-opacity:1;fill-rule:nonzero;stroke:none"
           inkscape:connector-curvature="0" />
      </g>
      <g
         transform="translate(357.6025,765.0586)"
         id="g340">
        <path
           d="M 0,0 0,4.069 2.467,4.069 2.467,3.379 0.669,3.379 0.669,2.478 2.338,2.478 2.338,1.793 0.669,1.793 0.669,0.689 2.529,0.689 2.529,0 0,0 Z"
           id="path342"
           style="fill:#656263;fill-opacity:1;fill-rule:nonzero;stroke:none"
           inkscape:connector-curvature="0" />
      </g>
      <g
         transform="translate(360.7061,765.0586)"
         id="g344">
        <path
           d="M 0,0 0,4.069 0.652,4.069 2.012,1.351 2.012,4.069 2.636,4.069 2.636,0 1.964,0 0.623,2.652 0.623,0 0,0 Z"
           id="path346"
           style="fill:#656263;fill-opacity:1;fill-rule:nonzero;stroke:none"
           inkscape:connector-curvature="0" />
      </g>
      <g
         transform="translate(365.5967,766.5518)"
         id="g348">
        <path
           d="M 0,0 0,0.687 1.447,0.687 1.447,-0.932 C 1.303,-1.104 1.092,-1.252 0.829,-1.376 0.561,-1.5 0.29,-1.562 0.021,-1.562 -0.305,-1.562 -0.596,-1.481 -0.845,-1.319 -1.098,-1.159 -1.294,-0.916 -1.44,-0.592 -1.587,-0.27 -1.661,0.111 -1.661,0.546 -1.661,0.995 -1.587,1.378 -1.438,1.696 -1.288,2.015 -1.098,2.251 -0.861,2.408 -0.624,2.566 -0.34,2.645 -0.009,2.645 0.389,2.645 0.707,2.543 0.941,2.34 1.182,2.136 1.334,1.842 1.403,1.449 L 0.742,1.297 C 0.691,1.505 0.599,1.666 0.468,1.776 0.334,1.886 0.174,1.942 -0.009,1.942 -0.297,1.942 -0.527,1.832 -0.701,1.609 -0.882,1.386 -0.969,1.045 -0.969,0.588 -0.969,0.097 -0.875,-0.275 -0.683,-0.53 -0.516,-0.75 -0.297,-0.86 -0.016,-0.86 0.115,-0.86 0.251,-0.83 0.393,-0.767 0.532,-0.706 0.661,-0.622 0.771,-0.514 L 0.771,0 0,0 Z"
           id="path350"
           style="fill:#656263;fill-opacity:1;fill-rule:nonzero;stroke:none"
           inkscape:connector-curvature="0" />
      </g>
      <g
         transform="translate(424.5771,816.4492)"
         id="g352">
        <path
           d="M 0,0 0,4.035 0.67,4.035 0.67,0.688 2.34,0.688 2.34,0 0,0 Z"
           id="path354"
           style="fill:#656263;fill-opacity:1;fill-rule:nonzero;stroke:none"
           inkscape:connector-curvature="0" />
      </g>
      <path
         d="M 427.374,820.517 428.044,820.517 428.044,816.45 427.374,816.45 427.374,820.517 Z"
         id="path356"
         style="fill:#656263;fill-opacity:1;fill-rule:nonzero;stroke:none"
         inkscape:connector-curvature="0" />
      <g
         transform="translate(428.6768,816.4492)"
         id="g358">
        <path
           d="M 0,0 0,4.067 1.006,4.067 1.608,1.29 2.208,4.067 3.219,4.067 3.219,0 2.592,0 2.592,3.205 1.932,0 1.285,0 0.625,3.205 0.625,0 0,0 Z"
           id="path360"
           style="fill:#656263;fill-opacity:1;fill-rule:nonzero;stroke:none"
           inkscape:connector-curvature="0" />
      </g>
      <g
         transform="translate(433.2236,819.8281)"
         id="g362">
        <path
           d="M 0,0 0,-1.156 0.371,-1.156 C 0.621,-1.156 0.794,-1.139 0.882,-1.105 0.971,-1.068 1.045,-1.006 1.102,-0.914 1.159,-0.822 1.187,-0.708 1.187,-0.575 1.187,-0.439 1.159,-0.325 1.102,-0.233 1.039,-0.139 0.967,-0.079 0.882,-0.046 0.796,-0.014 0.609,0 0.329,0 L 0,0 Z M -0.668,-3.379 -0.668,0.688 0.408,0.688 C 0.813,0.688 1.078,0.668 1.2,0.63 1.395,0.567 1.558,0.435 1.687,0.229 1.814,0.022 1.881,-0.243 1.881,-0.566 1.881,-0.861 1.824,-1.106 1.713,-1.307 1.604,-1.503 1.465,-1.644 1.299,-1.726 1.133,-1.805 0.845,-1.846 0.442,-1.846 L 0,-1.846 0,-3.379 -0.668,-3.379 Z"
           id="path364"
           style="fill:#656263;fill-opacity:1;fill-rule:nonzero;stroke:none"
           inkscape:connector-curvature="0" />
      </g>
      <g
         transform="translate(436.21,818.4849)"
         id="g366">
        <path
           d="M 0,0 C 0,-0.467 0.087,-0.819 0.266,-1.052 0.443,-1.288 0.664,-1.403 0.926,-1.403 1.189,-1.403 1.406,-1.288 1.582,-1.055 1.754,-0.823 1.84,-0.467 1.84,0.016 1.84,0.487 1.756,0.836 1.588,1.061 1.418,1.286 1.198,1.4 0.926,1.4 0.65,1.4 0.43,1.285 0.258,1.058 0.085,0.83 0,0.479 0,0 M -0.692,-0.026 C -0.692,0.458 -0.621,0.856 -0.477,1.17 -0.336,1.485 -0.149,1.717 0.084,1.87 0.313,2.025 0.593,2.102 0.92,2.102 1.396,2.102 1.783,1.92 2.082,1.555 2.383,1.19 2.533,0.671 2.533,-0.003 2.533,-0.683 2.375,-1.214 2.058,-1.598 1.779,-1.936 1.398,-2.105 0.922,-2.105 0.443,-2.105 0.061,-1.938 -0.215,-1.602 -0.533,-1.22 -0.692,-0.696 -0.692,-0.026"
           id="path368"
           style="fill:#656263;fill-opacity:1;fill-rule:nonzero;stroke:none"
           inkscape:connector-curvature="0" />
      </g>
      <g
         transform="translate(439.9355,819.8281)"
         id="g370">
        <path
           d="M 0,0 0,-1.156 0.373,-1.156 C 0.624,-1.156 0.792,-1.139 0.882,-1.105 0.974,-1.068 1.044,-1.006 1.103,-0.914 1.161,-0.822 1.187,-0.708 1.187,-0.575 1.187,-0.439 1.159,-0.325 1.103,-0.233 1.04,-0.139 0.969,-0.079 0.882,-0.046 0.794,-0.014 0.61,0 0.33,0 L 0,0 Z M -0.67,-3.379 -0.67,0.688 0.411,0.688 C 0.812,0.688 1.079,0.668 1.198,0.63 1.399,0.567 1.559,0.435 1.69,0.229 1.815,0.022 1.88,-0.243 1.88,-0.566 1.88,-0.861 1.822,-1.106 1.714,-1.307 1.604,-1.503 1.464,-1.644 1.299,-1.726 1.132,-1.805 0.849,-1.846 0.44,-1.846 L 0,-1.846 0,-3.379 -0.67,-3.379 Z"
           id="path372"
           style="fill:#656263;fill-opacity:1;fill-rule:nonzero;stroke:none"
           inkscape:connector-curvature="0" />
      </g>
      <g
         transform="translate(442.9209,818.4849)"
         id="g374">
        <path
           d="M 0,0 C 0,-0.467 0.088,-0.819 0.266,-1.052 0.445,-1.288 0.664,-1.403 0.926,-1.403 1.189,-1.403 1.406,-1.288 1.581,-1.055 1.754,-0.823 1.843,-0.467 1.843,0.016 1.843,0.487 1.758,0.836 1.59,1.061 1.42,1.286 1.197,1.4 0.926,1.4 0.65,1.4 0.433,1.285 0.257,1.058 0.086,0.83 0,0.479 0,0 M -0.689,-0.026 C -0.689,0.458 -0.623,0.856 -0.477,1.17 -0.334,1.485 -0.146,1.717 0.084,1.87 0.312,2.025 0.595,2.102 0.922,2.102 1.397,2.102 1.785,1.92 2.084,1.555 2.387,1.19 2.533,0.671 2.533,-0.003 2.533,-0.683 2.374,-1.214 2.058,-1.598 1.781,-1.936 1.4,-2.105 0.924,-2.105 0.443,-2.105 0.064,-1.938 -0.217,-1.602 -0.532,-1.22 -0.689,-0.696 -0.689,-0.026"
           id="path376"
           style="fill:#656263;fill-opacity:1;fill-rule:nonzero;stroke:none"
           inkscape:connector-curvature="0" />
      </g>
    </g>
  </g>
</svg>
