<?xml version="1.0" encoding="UTF-8" standalone="no"?>
<!-- Created with Inkscape (http://www.inkscape.org/) -->

<svg
   xmlns:dc="http://purl.org/dc/elements/1.1/"
   xmlns:cc="http://creativecommons.org/ns#"
   xmlns:rdf="http://www.w3.org/1999/02/22-rdf-syntax-ns#"
   xmlns:svg="http://www.w3.org/2000/svg"
   xmlns="http://www.w3.org/2000/svg"
   version="1.1"
   width="15.69351"
   height="12.61288"
   id="svg12012">
  <defs
     id="defs12014" />
  <metadata
     id="metadata12017">
    <rdf:RDF>
      <cc:Work
         rdf:about="">
        <dc:format>image/svg+xml</dc:format>
        <dc:type
           rdf:resource="http://purl.org/dc/dcmitype/StillImage" />
        <dc:title></dc:title>
      </cc:Work>
    </rdf:RDF>
  </metadata>
  <g
     transform="translate(-367.15325,-526.05574)"
     id="layer1">
    <g
       transform="matrix(1.25,0,0,-1.25,379.10075,528.82949)"
       id="g4671">
      <path
         d="m 0,0 -2.674,0 c -0.585,0 -1.087,-0.795 -1.305,-0.795 l -3.103,0 c -0.616,0 -1.12,-0.502 -1.12,-1.12 l 0,-4.528 c 0,-0.355 -0.124,-0.427 -0.275,-0.417 -0.241,0.021 -0.432,0.218 -0.432,0.464 l 0,7.496 c 0,0.259 0.211,0.471 0.471,0.471 l 3.144,0 c 0.412,0 0.75,-0.276 1.051,-0.521 0.256,-0.209 0.498,-0.405 0.827,-0.405 l 2.944,0 C -0.212,0.645 0,0.433 0,0.173 L 0,0 z m 1.51,0 -0.862,0 0,0.173 c 0,0.617 -0.502,1.119 -1.12,1.119 l -2.944,0 c -0.285,0 -0.89,0.927 -1.878,0.927 l -3.144,0 c -0.616,0 -1.12,-0.502 -1.12,-1.119 l 0,-7.496 c 0,-0.607 0.489,-1.102 1.092,-1.118 0.004,0 0.008,-0.002 0.013,-0.003 l 6.274,0 c -0.111,0.09 -0.215,0.187 -0.312,0.289 -0.02,0.02 -0.038,0.042 -0.057,0.063 -0.08,0.087 -0.156,0.176 -0.226,0.27 -0.427,0.57 -0.684,1.273 -0.684,2.038 0,1.881 1.531,3.413 3.412,3.413 0.018,0 0.035,-0.003 0.052,-0.003 0.108,-10e-4 0.216,-0.008 0.321,-0.019 0.001,0 0.002,-0.001 0.004,-0.001 0.106,-0.011 0.213,-0.027 0.317,-0.049 0.647,-0.132 1.242,-0.45 1.72,-0.928 0.095,-0.095 0.181,-0.196 0.263,-0.299 l 0,1.623 C 2.631,-0.502 2.128,0 1.51,0"
         id="path4673"
         style="fill:#4f4c4d;fill-opacity:1;fill-rule:nonzero;stroke:none" />
    </g>
    <g
       transform="matrix(1.25,0,0,-1.25,381.81676,536.23737)"
       id="g4675">
      <path
         d="M 0,0 -0.384,0.22 C -0.471,0.269 -0.58,0.239 -0.631,0.152 -0.681,0.065 -0.65,-0.045 -0.563,-0.095 l 0.383,-0.219 c -0.17,-0.248 -0.384,-0.462 -0.633,-0.631 l -0.222,0.383 c -0.05,0.087 -0.161,0.117 -0.247,0.066 -0.087,-0.049 -0.116,-0.16 -0.067,-0.247 l 0.22,-0.381 c -0.26,-0.124 -0.545,-0.204 -0.846,-0.227 l -0.002,0.443 c 0,0.1 -0.081,0.18 -0.181,0.18 -0.1,0 -0.18,-0.081 -0.18,-0.181 l 0,-0.442 c -0.305,0.022 -0.594,0.102 -0.857,0.229 l 0.22,0.386 c 0.049,0.087 0.018,0.197 -0.068,0.247 -0.088,0.05 -0.197,0.019 -0.248,-0.068 L -3.51,-0.943 c -0.245,0.168 -0.458,0.381 -0.627,0.625 l 0.383,0.224 c 0.086,0.051 0.115,0.162 0.065,0.248 -0.051,0.087 -0.163,0.115 -0.249,0.064 L -4.316,-0.003 C -4.445,0.262 -4.527,0.554 -4.55,0.862 l 0.445,0.002 c 0.099,0.001 0.18,0.082 0.179,0.182 0,0.1 -0.082,0.181 -0.181,0.18 L -4.549,1.224 c 0.024,0.304 0.104,0.592 0.231,0.854 l 0.382,-0.219 c 0.086,-0.05 0.198,-0.02 0.248,0.068 0.049,0.086 0.018,0.196 -0.068,0.247 l -0.383,0.219 c 0.17,0.248 0.385,0.462 0.633,0.631 l 0.221,-0.383 c 0.051,-0.087 0.162,-0.117 0.248,-0.066 0.087,0.049 0.117,0.16 0.066,0.247 l -0.218,0.381 c 0.259,0.123 0.543,0.203 0.844,0.226 l 0.002,-0.442 c 10e-4,-0.101 0.082,-0.181 0.182,-0.181 0.1,10e-4 0.181,0.082 0.181,0.182 L -1.982,3.43 C -1.678,3.407 -1.388,3.327 -1.125,3.201 L -1.344,2.815 C -1.393,2.729 -1.363,2.617 -1.276,2.568 -1.189,2.519 -1.078,2.549 -1.029,2.636 L -0.81,3.021 C -0.564,2.854 -0.352,2.642 -0.184,2.396 L -0.564,2.172 C -0.651,2.122 -0.681,2.011 -0.629,1.924 -0.579,1.838 -0.468,1.809 -0.382,1.86 l 0.38,0.223 C 0.126,1.818 0.208,1.527 0.23,1.219 L -0.211,1.218 c -0.1,0 -0.181,-0.081 -0.181,-0.181 0.001,-0.1 0.081,-0.181 0.182,-0.181 L 0.23,0.857 C 0.208,0.552 0.127,0.263 0,0 m -2.16,4.024 c -1.646,0 -2.985,-1.339 -2.985,-2.985 0,-1.645 1.339,-2.984 2.985,-2.984 1.646,0 2.984,1.339 2.984,2.984 0,1.646 -1.338,2.985 -2.984,2.985"
         id="path4677"
         style="fill:#4f4c4d;fill-opacity:1;fill-rule:nonzero;stroke:none" />
    </g>
    <g
       transform="matrix(1.25,0,0,-1.25,380.52288,533.21187)"
       id="g4679">
      <path
         d="m 0,0 -0.98,-0.981 c -0.045,0.016 -0.093,0.026 -0.144,0.026 -0.052,0 -0.099,-0.01 -0.145,-0.026 l -0.649,0.65 c -0.07,0.071 -0.186,0.071 -0.257,0 -0.07,-0.07 -0.07,-0.186 0,-0.256 l 0.651,-0.65 c -0.017,-0.046 -0.027,-0.093 -0.027,-0.144 0,-0.235 0.192,-0.427 0.427,-0.427 0.235,0 0.427,0.192 0.427,0.427 0,0.051 -0.011,0.098 -0.028,0.144 l 0.981,0.981 c 0.072,0.07 0.072,0.185 0,0.256 C 0.186,0.071 0.071,0.071 0,0"
         id="path4681"
         style="fill:#4f4c4d;fill-opacity:1;fill-rule:nonzero;stroke:none" />
    </g>
  </g>
</svg>
