<?xml version="1.0" encoding="UTF-8" standalone="no"?>
<!-- Created with Inkscape (http://www.inkscape.org/) -->

<svg
   xmlns:dc="http://purl.org/dc/elements/1.1/"
   xmlns:cc="http://creativecommons.org/ns#"
   xmlns:rdf="http://www.w3.org/1999/02/22-rdf-syntax-ns#"
   xmlns:svg="http://www.w3.org/2000/svg"
   xmlns="http://www.w3.org/2000/svg"
   version="1.1"
   width="15.48875"
   height="11.07"
   id="svg11635">
  <defs
     id="defs11637">
    <clipPath
       id="clipPath4623">
      <path
         d="m 0,841.89 595.28,0 L 595.28,0 0,0 0,841.89 z"
         id="path4625" />
    </clipPath>
  </defs>
  <metadata
     id="metadata11640">
    <rdf:RDF>
      <cc:Work
         rdf:about="">
        <dc:format>image/svg+xml</dc:format>
        <dc:type
           rdf:resource="http://purl.org/dc/dcmitype/StillImage" />
        <dc:title></dc:title>
      </cc:Work>
    </rdf:RDF>
  </metadata>
  <g
     transform="translate(-367.25562,-526.82722)"
     id="layer1">
    <g
       transform="matrix(1.25,0,0,-1.25,333.148,1412.6866)"
       id="g4619">
      <g
         clip-path="url(#clipPath4623)"
         id="g4621">
        <g
           transform="translate(29.9863,704.9902)"
           id="g4627">
          <path
             d="m 0,0 c -0.237,0 -0.429,-0.209 -0.429,-0.465 0,-0.258 0.192,-0.467 0.429,-0.467 0.235,0 0.428,0.209 0.428,0.467 C 0.428,-0.209 0.235,0 0,0"
             id="path4629"
             style="fill:#ffffff;fill-opacity:1;fill-rule:nonzero;stroke:none" />
        </g>
        <g
           transform="translate(33.5791,706.2114)"
           id="g4631">
          <path
             d="M 0,0 C 0.236,0 0.428,0.209 0.428,0.466 0.428,0.724 0.236,0.932 0,0.932 -0.237,0.932 -0.43,0.724 -0.43,0.466 -0.43,0.209 -0.237,0 0,0"
             id="path4633"
             style="fill:#ffffff;fill-opacity:1;fill-rule:nonzero;stroke:none" />
        </g>
        <g
           transform="translate(31.5537,706.6421)"
           id="g4635">
          <path
             d="m 0,0 c -0.236,0 -0.428,-0.208 -0.428,-0.465 0,-0.258 0.192,-0.467 0.428,-0.467 0.238,0 0.429,0.209 0.429,0.467 C 0.429,-0.208 0.238,0 0,0"
             id="path4637"
             style="fill:#ffffff;fill-opacity:1;fill-rule:nonzero;stroke:none" />
        </g>
        <g
           transform="translate(29.3438,702.7373)"
           id="g4639">
          <path
             d="m 0,0 c -0.237,0 -0.43,-0.209 -0.43,-0.466 0,-0.258 0.193,-0.466 0.43,-0.466 0.236,0 0.427,0.208 0.427,0.466 C 0.427,-0.209 0.236,0 0,0"
             id="path4641"
             style="fill:#ffffff;fill-opacity:1;fill-rule:nonzero;stroke:none" />
        </g>
        <g
           transform="translate(37.1016,702.271)"
           id="g4643">
          <path
             d="m 0,0 c 0,-0.257 0.191,-0.466 0.428,-0.466 0.238,0 0.428,0.209 0.428,0.466 0,0.257 -0.19,0.466 -0.428,0.466 C 0.191,0.466 0,0.257 0,0"
             id="path4645"
             style="fill:#ffffff;fill-opacity:1;fill-rule:nonzero;stroke:none" />
        </g>
        <g
           transform="translate(38.9561,701.1855)"
           id="g4647">
          <path
             d="m 0,0 c -0.064,-0.327 -0.393,-0.613 -0.7,-0.613 l -9.551,0 c -0.308,0 -0.636,0.286 -0.7,0.611 0,0.001 -0.04,0.223 -0.04,0.765 0,3.308 2.474,5.998 5.514,5.998 3.043,0 5.516,-2.69 5.516,-5.998 C 0.039,0.223 0,0 0,0 m -5.477,7.502 c -3.414,0 -6.193,-3.023 -6.193,-6.739 0,-0.627 0.049,-0.892 0.053,-0.921 0.135,-0.67 0.735,-1.196 1.366,-1.196 l 9.551,0 c 0.632,0 1.232,0.526 1.366,1.196 0.006,0.029 0.055,0.294 0.055,0.921 0,3.716 -2.78,6.739 -6.198,6.739"
             id="path4649"
             style="fill:#ffffff;fill-opacity:1;fill-rule:nonzero;stroke:none" />
        </g>
        <g
           transform="translate(37.417,704.5249)"
           id="g4651">
          <path
             d="m 0,0 c 0,0.256 -0.189,0.465 -0.429,0.465 -0.236,0 -0.427,-0.209 -0.427,-0.465 0,-0.258 0.191,-0.466 0.427,-0.466 C -0.189,-0.466 0,-0.258 0,0"
             id="path4653"
             style="fill:#ffffff;fill-opacity:1;fill-rule:nonzero;stroke:none" />
        </g>
        <g
           transform="translate(33.3428,701.9126)"
           id="g4655">
          <path
             d="m 0,0 c -0.246,0 -0.446,0.217 -0.446,0.486 0,0.267 0.2,0.485 0.446,0.485 0.247,0 0.447,-0.218 0.447,-0.485 C 0.447,0.217 0.247,0 0,0 M 2.048,4.552 C 1.957,4.552 1.891,4.515 1.828,4.456 L -0.919,1.28 C -1.076,1.059 -1.175,0.786 -1.175,0.486 c 0,-0.706 0.528,-1.279 1.175,-1.279 0.389,0 0.732,0.209 0.946,0.526 0.318,0.344 1.431,4.273 1.45,4.358 0.069,0.304 -0.147,0.461 -0.348,0.461"
             id="path4657"
             style="fill:#ffffff;fill-opacity:1;fill-rule:nonzero;stroke:none" />
        </g>
      </g>
    </g>
  </g>
</svg>
