<?xml version="1.0" encoding="UTF-8" standalone="no"?>
<!-- Created with Inkscape (http://www.inkscape.org/) -->

<svg
   xmlns:dc="http://purl.org/dc/elements/1.1/"
   xmlns:cc="http://creativecommons.org/ns#"
   xmlns:rdf="http://www.w3.org/1999/02/22-rdf-syntax-ns#"
   xmlns:svg="http://www.w3.org/2000/svg"
   xmlns="http://www.w3.org/2000/svg"
   xmlns:sodipodi="http://sodipodi.sourceforge.net/DTD/sodipodi-0.dtd"
   xmlns:inkscape="http://www.inkscape.org/namespaces/inkscape"
   version="1.1"
   width="254.38362"
   height="247.95267"
   id="svg3004"
   xml:space="preserve"
   inkscape:version="0.48.3.1 r9886"
   sodipodi:docname="nkangala.svg"><sodipodi:namedview
     pagecolor="#ffffff"
     bordercolor="#666666"
     borderopacity="1"
     objecttolerance="10"
     gridtolerance="10"
     guidetolerance="10"
     inkscape:pageopacity="0"
     inkscape:pageshadow="2"
     inkscape:window-width="640"
     inkscape:window-height="480"
     id="namedview3051"
     showgrid="false"
     fit-margin-top="0"
     fit-margin-left="0"
     fit-margin-right="0"
     fit-margin-bottom="0"
     inkscape:zoom="0.4031716"
     inkscape:cx="133.28925"
     inkscape:cy="126.52359"
     inkscape:window-x="0"
     inkscape:window-y="27"
     inkscape:window-maximized="0"
     inkscape:current-layer="svg3004" /><metadata
     id="metadata3010"><rdf:RDF><cc:Work
         rdf:about=""><dc:format>image/svg+xml</dc:format><dc:type
           rdf:resource="http://purl.org/dc/dcmitype/StillImage" /><dc:title /></cc:Work></rdf:RDF></metadata><defs
     id="defs3008" /><g
     transform="matrix(1.25,0,0,-1.25,-287.65625,419.0691)"
     id="g3012"><g
       id="g3014"><g
         transform="matrix(1,0,0,-1,0,476.22403)"
         id="g3016"><path
           d="m 387.031,327.797 c -3.461,-0.758 -6.773,-1.965 -7.523,-3.93 -0.754,-1.961 -1.508,-3.019 -3.164,-4.984 -1.653,-1.961 -2.559,-2.414 -3.914,-4.227 -1.356,-1.812 -0.149,-1.965 0.906,-2.871 1.051,-0.906 1.051,-2.719 -0.602,-3.625 -1.656,-0.906 -2.257,-2.265 -2.863,-4.129 -0.601,-1.859 -0.902,-1.457 -2.707,0 -1.809,1.461 -2.109,1.262 -2.43,0 -0.32,-1.254 0.172,-6.14 0.024,-8.554 -0.153,-2.418 0.597,-8.915 1.351,-12.235 0.754,-3.324 1.657,-2.719 3.313,-4.683 1.652,-1.961 1.055,-2.418 3.008,-3.891 1.957,-1.473 2.859,-2.301 3.765,-4.262 0.903,-1.965 6.473,-11.633 7.075,-13.594 0.601,-1.964 1.05,-2.871 3.074,-4.484 2.023,-1.613 5.351,-4.277 6.406,-6.09 1.055,-1.812 2.559,-1.66 4.062,-2.113 1.508,-0.453 2.559,-0.453 4.063,1.199 1.508,1.656 14.152,10.129 18.664,13.727 4.516,3.601 4.516,0.781 6.969,-1.063 l 0,0.004 c -0.426,-0.664 -0.836,-1.414 -1.246,-2.238 -1.508,-3.02 0.3,-4.984 1.351,-9.063 1.055,-4.078 1.055,-2.867 2.41,-4.832 1.352,-1.964 0.45,-2.566 0,-6.191 -0.453,-3.625 -0.902,-2.871 0,-5.289 0.903,-2.414 1.954,-3.621 1.352,-5.887 -0.602,-2.265 0.453,-4.683 1.203,-8.308 0.754,-3.625 0.906,-12.989 0.305,-16.696 -0.606,-3.707 0.301,-10.187 1.051,-16.379 0.754,-6.191 0.3,-8.914 0,-12.386 -0.301,-3.473 0,-3.625 -1.504,-6.493 -1.504,-2.871 -2.106,-4.078 -2.407,-5.738 -0.304,-1.664 -0.304,-7.101 0,-9.367 l 0,-1.055 -1.355,0.453 c -1.356,0.454 -1.203,0.602 -2.859,-0.492 -1.657,-1.097 -0.602,-0.414 -2.559,0 -1.957,0.41 -0.754,2 -1.355,3.059 -0.602,1.058 -2.407,1.058 -3.008,-0.453 -0.606,-1.508 -0.606,-1.36 -2.11,-1.059 -1.504,0.305 -0.902,2.117 -2.257,1.512 -1.352,-0.602 -0.454,-1.207 -1.657,-0.606 -1.203,0.606 -0.601,1.36 -1.656,0.907 -1.051,-0.453 -2.105,-1.508 -3.762,-1.813 -1.652,-0.301 -1.804,1.965 -3.007,1.211 -1.208,-0.758 -1.657,1.207 -4.067,1.207 -2.406,0 -1.203,-0.152 -2.859,0.453 -1.653,0.606 -0.75,-0.605 -2.336,-3.265 -1.586,-2.661 -1.875,-0.059 -2.781,1.152 -0.903,1.207 -1.657,0.754 -3.461,-0.758 -1.805,-1.508 -1.504,1.813 0.152,1.664 1.656,-0.152 1.504,0.453 0.754,1.961 -0.754,1.512 -0.152,1.813 -2.258,2.266 -2.109,0.453 -1.055,4.23 -1.656,7.402 -0.602,3.172 1.804,2.567 4.664,1.813 2.859,-0.754 2.863,0.3 3.613,1.054 0.75,0.758 0.152,2.266 -1.656,2.266 -1.805,0 -3.008,3.777 -1.051,3.207 1.953,-0.566 2.707,0.723 3.16,2.535 0.449,1.813 0.903,1.961 0,3.981 -0.902,2.019 -0.754,1.152 -3.914,0.851 -3.16,-0.301 -3.16,0.152 -6.472,0.301 -3.313,0.152 -3.461,0.605 -3.762,-1.152 -0.305,-1.754 -1.207,-2.469 -3.012,-2.02 -1.805,0.457 -3.91,-0.754 -6.473,-3.621 -2.558,-2.871 -1.953,1.961 -1.953,5.641 0,3.679 -1.207,0.851 -1.656,1.812 -0.449,0.965 -0.449,1.91 0.449,3.871 0.903,1.965 0.453,1.813 -1.351,2.266 -1.809,0.453 -0.903,0.906 -2.711,1.359 -1.805,0.453 0.152,1.36 0.754,3.172 0.601,1.813 -0.305,1.059 -1.055,2.719 -0.754,1.66 -0.75,0.906 -2.668,1.644 -1.918,0.739 -0.191,1.68 -1.996,1.075 -1.809,-0.606 -2.109,0.453 -2.563,1.964 -0.449,1.512 -0.601,0.907 -1.804,-0.906 -1.203,-1.812 -1.203,-1.66 -1.957,-3.473 -0.75,-1.812 -1.051,-0.304 -2.407,0.149 -1.355,0.453 -1.054,0.453 -3.16,1.191 -2.109,0.739 -1.507,-1.039 -3.765,-2.531 -2.254,-1.496 -1.953,-0.473 -2.856,1.191 -0.906,1.661 -1.054,4.985 -0.301,6.262 0.75,1.274 2.106,3.856 0,2.949 -2.109,-0.906 -1.957,0.907 -2.257,2.379 -0.301,1.473 0,2.305 -1.204,2.305 -1.203,0 -2.109,-0.453 -3.312,-2.305 -1.203,-1.847 -1.055,-0.261 -2.672,0 -1.617,0.266 -0.488,1.551 -0.187,3.817 0.3,2.265 0.3,4.226 -0.453,5.886 -0.75,1.665 0.152,3.172 -0.75,4.262 -0.454,-0.648 -1.809,-0.144 -3.047,-0.484 -1.246,-0.34 -2.149,-0.113 -2.149,0.484 0,0.598 0,1.328 -1.351,1.895 -1.356,0.566 -1.243,-0.68 -1.918,-1.02 -0.68,-0.34 -1.582,0.227 -2.149,0.906 -0.562,0.68 -0.113,1.02 -0.902,1.02 -0.789,0 -1.692,-0.566 -2.82,-1.02 -1.129,-0.453 -2.258,-0.679 -2.938,-0.113 -0.676,0.567 -2.141,1.133 -2.934,0.567 -0.789,-0.567 -2.484,0.113 -3.273,0.617 -0.789,0.504 -1.582,0.629 -2.371,0 -0.789,-0.629 -2.594,-0.391 -3.836,-0.051 -1.242,0.34 -3.164,-1.133 -3.953,-2.266 -0.789,-1.132 -2.371,-0.453 -3.047,-0.535 -0.68,-0.082 -0.902,1.555 -2.145,2.008 -1.242,0.453 -1.355,0.453 -1.464,-0.793 -0.118,-1.246 -0.453,-1.359 -1.336,-0.68 -0.887,0.68 -0.813,-1.132 -0.25,-2.718 0.566,-1.586 0.117,-1.926 -0.903,-1.133 -1.015,0.793 -2.707,0.906 -2.593,0 0.113,-0.907 -0.68,-2.098 -0.68,-2.098 0,0 -2.031,-0.617 -2.031,-1.566 0,-0.946 0.34,-1.66 0.453,-2.907 0.109,-1.246 -0.113,-3.398 0.562,-3.054 0.68,0.336 1.809,0.113 2.258,-1.02 0.449,-1.133 1.356,0 1.129,-0.851 -0.227,-0.852 -1.695,-0.735 -1.695,-1.754 0,-1.02 -1.125,-0.907 -2.367,-1.36 -1.243,-0.453 -2.258,0.453 -3.047,0.68 -0.793,0.227 -0.68,-0.68 -1.852,-2.832 -1.168,-2.152 -1.312,-0.227 -1.648,-0.906 -0.34,-0.68 -0.907,-2.266 -0.34,-3.227 0.562,-0.961 2.371,-0.398 1.918,-1.644 -0.453,-1.246 -1.465,-0.453 -2.707,0 -1.242,0.453 -1.469,1.019 -2.032,0 -0.566,-1.02 -2.371,-0.34 -3.277,-0.793 -0.902,-0.453 -1.805,0.793 -2.484,1.699 -0.676,0.906 -1.125,1.246 -2.735,1.586 -1.605,0.34 -2.683,0.906 -3.472,1.586 0,0 -0.34,1.019 0.34,2.039 0.675,1.015 0.902,1.133 -0.454,1.473 -1.351,0.335 -2.707,0.675 -5.191,0.906 -2.484,0.226 -1.691,0.566 -1.016,1.812 0.68,1.242 -0.566,1.133 -1.808,0.735 -1.238,-0.399 -1.692,0.394 -2.594,1.187 -0.902,0.793 -0.34,1.36 0,2.379 0.336,1.02 0.676,0.906 1.918,0.793 1.242,-0.109 1.242,-0.34 2.258,-1.02 1.015,-0.679 1.918,-0.339 2.258,-1.019 0.339,-0.68 0.449,-0.902 1.242,-0.902 0.789,0 1.691,-0.114 2.484,-0.567 0.789,-0.453 1.352,-0.453 1.465,-0.851 0.113,-0.399 1.129,-1.981 1.242,0 0.114,1.98 1.692,0.511 3.387,0 1.691,-0.512 1.465,-0.282 1.578,0.851 0.113,1.133 0.906,1.586 1.582,2.379 0.68,0.789 0.34,2.152 -0.676,1.926 -1.019,-0.227 -1.019,1.133 -0.906,2.148 0.113,1.02 0,1.586 -1.465,1.774 -1.468,0.183 -1.355,0.492 -3.047,1.285 -1.695,0.793 -2.484,1.246 -2.035,2.152 0.449,0.907 0.567,2.039 -0.113,2.297 -0.676,0.258 -0.676,1.555 -0.449,3.481 0.226,1.925 0.226,2.492 0.226,3.625 0,1.132 0.11,3.171 0.563,4.984 0.453,1.813 1.582,3.625 2.683,3.965 1.102,0.34 0.477,0.226 0.59,-0.906 0.114,-1.133 0.676,-1.473 1.242,-1.473 0.563,0 1.692,0.566 1.016,2.605 -0.676,2.039 0.902,1.586 1.691,1.473 0.793,-0.113 0.68,-0.906 1.582,-1.019 0.903,-0.114 0.903,-0.227 0.34,-0.907 -0.566,-0.679 -0.679,-0.226 -0.34,-1.258 0.34,-1.031 0.45,-0.101 1.469,0.465 1.016,0.567 1.356,0.68 1.356,-0.465 0,-1.144 -0.793,-1.121 -1.356,-2.707 -0.566,-1.586 -0.113,-1.019 -1.015,-1.359 -0.907,-0.34 -1.129,-0.227 -1.129,-1.473 0,-1.246 1.015,-1.246 2.144,-2.378 1.129,-1.133 1.129,0.453 1.242,1.585 0.114,1.133 0.34,1.247 1.243,0.454 0.902,-0.793 0.675,-0.567 0.902,0.679 0.227,1.246 0.789,2.153 1.695,2.492 0.899,0.34 2.594,-0.226 2.367,-1.246 -0.226,-1.019 -1.918,-0.906 -1.468,-1.586 0.453,-0.679 1.695,0.454 1.582,-0.226 -0.114,-0.68 0.449,-1.36 1.133,-1.133 0.675,0.227 1.464,0.68 2.707,-0.34 1.242,-1.019 1.015,-0.226 1.128,1.246 0.114,1.473 -0.679,1.246 -1.921,1.699 -1.239,0.45 -0.903,1.813 -1.016,2.715 -0.113,0.911 1.469,0 1.355,0.684 -0.113,0.68 0.676,1.246 -1.242,1.926 -1.918,0.679 -2.82,0.34 -3.949,1.019 -1.129,0.68 -0.566,1.469 0.223,3.168 0.793,1.699 0,0 0.453,0.684 0.449,0.68 -0.227,1.015 -1.809,2.488 -1.578,1.477 -0.34,1.25 0.227,2.383 0.566,1.129 -0.227,1.359 -0.676,2.375 -0.453,1.019 -1.016,0.684 -1.695,0.117 -0.676,-0.566 -1.352,-0.344 -1.352,0.68 0,1.019 0,1.472 0.113,3.058 0.114,1.582 0.223,1.243 -0.679,2.493 -0.903,1.242 -1.918,0.789 -3.16,0.679 -1.243,-0.117 -1.243,0.789 -1.582,-0.117 -0.336,-0.906 -0.903,-1.359 -2.145,-1.359 -1.242,0 -2.141,0.453 -3.387,-0.227 -1.238,-0.676 -2.254,-0.676 -3.047,0.34 -0.789,1.023 -1.128,1.473 -1.242,2.832 -0.113,1.359 -0.562,1.023 -1.578,0.344 -1.019,-0.68 -0.906,-0.344 -1.469,0.449 -0.562,0.793 -0.789,1.019 -1.582,1.926 -0.789,0.906 -1.238,1.133 0,2.152 1.243,1.02 1.243,2.039 1.356,3.965 0.113,1.926 0.676,1.133 1.918,1.699 1.242,0.567 2.258,0.34 2.371,1.586 0.113,1.246 0,2.266 0.793,2.266 0.785,0 1.805,1.133 2.707,2.152 0.902,1.02 3.5,-0.68 4.738,-1.359 1.246,-0.68 1.449,0.543 2.258,1.586 0.578,0.738 0.684,0.871 0.684,0.871 l -0.309,-0.344 c 0,0 0.238,1.297 0.391,2.691 0.148,1.395 -0.153,1.778 -2.258,1.926 -2.11,0.152 -0.754,1.059 -1.656,1.664 -0.903,0.602 -1.055,0.903 -1.204,3.102 -0.152,2.195 -1.207,0.672 -3.461,0.219 -2.261,-0.454 -2.711,-0.301 -2.711,1.359 0,1.66 -1.503,1.812 -2.859,0 -1.355,-1.813 -3.012,-1.813 -2.711,0 0.305,1.812 -0.449,1.965 -1.051,3.172 -0.601,1.211 -0.906,0.754 -1.656,2.824 -0.754,2.062 -1.055,0.195 -2.41,0.047 -1.352,-0.152 -0.902,0 -2.105,1.359 -1.204,1.36 0,2.414 0.601,3.926 0.602,1.512 -1.504,1.359 -3.461,1.207 -1.957,-0.152 -0.902,1.059 -1.055,3.465 -0.148,2.41 0.153,1.973 -2.558,2.547 l -0.356,-0.082 c 0.836,1.308 1.59,1.207 2.645,2.316 1.055,1.106 0.75,0.957 2.859,0.805 2.106,-0.152 1.504,-0.301 2.407,1.359 0.906,1.66 0.832,1.207 2.449,0.906 1.617,-0.304 2.672,-0.453 2.82,0.907 0.149,1.359 -0.754,0.906 0,2.566 0.75,1.66 0.75,1.211 2.707,0 1.957,-1.207 0.602,-0.453 1.957,-2.414 1.356,-1.965 1.504,-2.793 3.16,-1.473 1.657,1.321 1.356,1.016 3.313,1.926 1.957,0.906 2.258,-0.305 3.312,1.055 1.051,1.359 -0.906,1.41 0.903,1.988 1.804,0.578 3.527,1.235 3.191,0 -0.332,-1.234 -0.785,-1.535 1.32,-1.988 2.11,-0.453 1.508,-1.66 3.164,-0.906 1.657,0.754 2.86,-0.153 3.461,1.812 0.602,1.965 0,1.66 0.903,3.32 0.902,1.664 1.504,1.817 1.957,3.625 0.449,1.817 -0.153,0.153 1.804,0 1.957,-0.148 3.915,0.454 4.215,1.817 0.301,1.355 1.055,0.754 3.012,1.355 1.957,0.606 1.203,1.512 1.051,2.871 -0.149,1.36 -0.301,-0.605 1.355,0 1.656,0.606 1.805,-0.98 3.614,0.493 1.808,1.472 1.957,2.527 2.558,4.039 0.602,1.511 0.449,2.113 1.957,3.019 1.504,0.906 2.106,0.305 1.953,1.965 -0.148,1.66 -0.148,1.359 0.907,2.719 1.05,1.355 -0.418,1.812 2.125,2.719 2.539,0.902 2.089,0.449 3.742,0 1.656,-0.454 -0.903,-0.454 0,-1.817 0.906,-1.359 0.906,-3.32 2.41,-1.961 1.504,1.36 1.957,2.113 3.012,0.754 1.05,-1.359 0.597,-3.172 2.105,-3.019 1.504,0.152 3.461,0.3 3.613,-0.907 0.149,-1.211 1.805,-1.511 3.313,0.153 1.504,1.66 2.707,2.414 3.762,1.207 1.05,-1.207 1.953,-1.512 3.007,0.3 1.055,1.813 1.508,1.059 2.411,-0.3 0.902,-1.36 0.14,-2.418 2.55,-0.907 2.418,1.512 2.567,0.907 3.016,-0.605 0.453,-1.508 0.301,-3.172 2.109,-2.414 1.805,0.754 2.106,-0.305 2.258,-1.059 0.149,-0.754 1.656,-1.66 2.86,-0.605 1.203,1.058 0.449,0.453 0.75,2.117 0.3,1.66 -0.149,1.961 1.656,1.359 1.804,-0.605 1.804,-0.304 3.613,0 1.805,0.301 2.707,-0.605 4.363,-1.211 1.657,-0.601 4.446,-1.507 5.008,-0.453 0.563,1.059 1.313,1.059 2.52,1.512 1.203,0.453 1.05,-0.152 1.953,1.059 0.906,1.207 1.508,1.207 1.804,0.148 0.305,-1.055 1.657,-1.359 2.563,-1.055 0.898,0.301 1.055,0.301 1.203,1.508 0.152,1.211 0.039,1.36 1.676,1.36 1.637,0 4.644,-0.301 5.547,-0.907 0.906,-0.605 1.203,-1.207 2.41,0.301 1.203,1.512 1.805,1.965 2.859,0.453 1.055,-1.508 1.805,-3.773 3.313,-4.226 1.504,-0.453 0,-1.512 0,-1.512"
           id="path3018"
           style="fill:#e6e7e8;fill-opacity:1;fill-rule:nonzero;stroke:#6d6e71;stroke-width:0.60000002;stroke-linecap:butt;stroke-linejoin:miter;stroke-miterlimit:4;stroke-opacity:1;stroke-dasharray:none"
           inkscape:connector-curvature="0" /></g><g
         transform="matrix(1,0,0,-1,0,476.22403)"
         id="g3020"><path
           d="m 261.02,204.816 -1.469,0.68 c -1.465,0.68 0,0 0.566,1.02 0.563,1.019 0.449,1.586 1.352,2.152 0.906,0.566 1.129,0.793 0,1.586 -1.125,0.793 -0.789,1.019 -1.692,1.473 -0.902,0.453 -0.562,0.793 -1.465,-0.114 -0.906,-0.906 -0.679,-0.453 -2.035,-0.679 -1.351,-0.227 -2.707,0.113 -3.156,1.019 -0.453,0.906 0.336,2.039 -0.68,2.266 -1.015,0.226 -1.355,0.113 -3.273,0.566 -0.465,0.11 -1.242,0.113 -2.145,-0.226 -0.902,-0.34 -0.113,-0.907 -0.679,-1.516 -0.563,-0.605 -0.903,0.269 -2.145,0 -1.242,-0.266 -1.469,0.269 -1.578,1.246 -0.113,0.977 -0.68,1.402 -1.469,1.629 -0.789,0.227 -2.031,1.359 -2.484,0.113 -0.453,-1.246 -1.016,-1.926 -2.371,-1.699 -1.356,0.227 0,1.02 0,1.699 0,0.68 -0.902,0.907 -1.805,0.614 -0.902,-0.29 -1.355,0.406 -1.922,0.066 -0.562,-0.34 -0.98,0.723 -2.367,2.07"
           id="path3022"
           style="fill:none;stroke:#6d6e71;stroke-width:0.2;stroke-linecap:butt;stroke-linejoin:miter;stroke-miterlimit:4;stroke-opacity:1;stroke-dasharray:none"
           inkscape:connector-curvature="0" /></g><g
         transform="matrix(1,0,0,-1,0,476.22403)"
         id="g3024"><path
           d="m 230.207,195.078 c 1.238,-0.226 3.383,-1.019 3.723,0 0.34,1.016 1.355,2.379 3.047,2.832 1.695,0.449 4.628,0.449 3.386,2.828 -1.242,2.379 -2.258,3.516 -2.933,2.492 -0.676,-1.019 -1.356,-1.812 -2.825,-1.585 -1.464,0.23 -2.48,0 -2.257,1.132 0.226,1.133 0.793,0.793 1.582,1.36 0.789,0.566 0.113,1.925 0.789,2.832 0.679,0.906 0.793,0.906 2.258,0.679 1.468,-0.226 2.371,-0.226 3.046,1.133 0.68,1.36 2.84,4.586 2.84,4.586"
           id="path3026"
           style="fill:none;stroke:#6d6e71;stroke-width:0.2;stroke-linecap:butt;stroke-linejoin:miter;stroke-miterlimit:4;stroke-opacity:1;stroke-dasharray:none"
           inkscape:connector-curvature="0" /></g><g
         transform="matrix(1,0,0,-1,0,476.22403)"
         id="g3028"><path
           d="m 258.762,197.004 c 0.789,-0.68 1.867,-1.246 3.476,-1.586 1.606,-0.34 2.055,-0.68 2.735,-1.586 0.675,-0.906 1.582,-2.152 2.48,-1.699 0.906,0.453 2.711,-0.227 3.277,0.793 0.563,1.019 0.79,0.453 2.032,0 1.242,-0.453 2.254,-1.246 2.707,0 0.453,1.246 -1.356,0.683 -1.918,1.644 -0.563,0.961 0,2.547 0.34,3.227 0.339,0.68 0.48,-1.246 1.648,0.906 1.172,2.152 1.059,3.059 1.852,2.832 0.789,-0.226 1.804,-1.133 3.047,-0.68 1.242,0.454 2.371,0.336 2.371,1.36 0,1.019 1.464,0.902 1.691,1.754 0.227,0.851 -0.676,-0.281 -1.129,0.851 -0.449,1.133 -1.578,1.36 -2.258,1.02 -0.675,-0.34 -0.449,1.812 -0.562,3.055 -0.113,1.246 -0.453,1.96 -0.453,2.906 0,0.945 2.031,1.566 2.031,1.566 0,0 0.793,1.192 0.68,2.098 -0.114,0.906 1.582,0.793 2.597,0 1.016,-0.793 1.465,-0.453 0.899,1.133 -0.563,1.586 -0.633,3.398 0.25,2.718 0.883,-0.679 1.218,-0.566 1.336,0.68 0.109,1.246 0.222,1.246 1.464,0.793 1.243,-0.453 1.469,-2.09 2.145,-2.008 0.676,0.082 2.258,-0.597 3.047,0.535 0.793,1.133 2.711,2.606 3.953,2.266 1.242,-0.34 3.047,-0.578 3.836,0.051 0.793,0.629 1.582,0.504 2.371,0 0.789,-0.504 2.484,-1.184 3.273,-0.617 0.793,0.566 2.258,0 2.934,-0.567 0.68,-0.566 1.809,-0.34 2.938,0.113 1.128,0.454 2.031,1.02 2.82,1.02 0.793,0 0.34,-0.34 0.902,-1.02 0.567,-0.679 1.469,-1.246 2.149,-0.906 0.675,0.34 0.566,1.586 1.918,1.02 1.355,-0.567 1.355,-1.297 1.355,-1.895 0,-0.597 0.899,-0.824 2.145,-0.484 1.238,0.34 2.593,-0.164 3.047,0.484 0.449,0.649 0,0.989 0.675,1.328 0.68,0.34 1.242,0.567 1.696,-0.339 0.449,-0.907 0.789,-1.586 1.691,-2.379 0.906,-0.793 0.855,-1.246 1.953,-2.039 1.098,-0.793 0.531,-1.555 0.871,-2.309 0.336,-0.75 0.114,0.043 1.016,0.836 0.902,0.793 1.918,1.473 2.371,2.492 0.449,1.02 -0.34,1.309 0,2.41 0.336,1.102 0.449,1.555 1.578,1.555 1.133,0 1.242,0.609 1.016,1.723 -0.223,1.109 -1.243,1.902 -0.789,2.918 0.453,1.023 1.015,2.23 1.918,1.625 0.902,-0.602 1.918,-1.563 2.597,0.164 0.676,1.726 1.129,1.5 2.145,0.476 1.015,-1.015 3.047,-2.035 2.371,-3.508 -0.676,-1.472 0.226,-2.492 0.789,-2.945 0.566,-0.453 0.68,-0.566 0.68,0.906 0,1.473 1.129,4.153 1.238,4.907 0.113,0.757 0.453,-0.301 1.133,0 0.675,0.3 0.109,2 1.238,1.433 1.129,-0.566 1.918,-0.793 2.035,0.117 0.113,0.907 -0.453,1.246 -0.793,2.039 -0.34,0.789 -0.902,1.7 0.113,2.149 1.016,0.453 2.372,-0.567 2.711,0.793 0.336,1.359 1.016,2.265 1.356,3.058 0.336,0.793 -0.567,0.454 -1.02,1.133 -0.449,0.68 -0.414,0.906 1.094,1.473 1.504,0.566 1.277,1.133 0.602,2.039 -0.676,0.906 -1.129,0.117 -2.145,0.906 -1.016,0.793 -2.598,0.453 -1.469,1.699 1.129,1.247 1.582,2.743 0.68,1.883 -0.906,-0.863 -2.484,-2.785 -3.273,-3.238 -0.793,-0.457 -1.469,0 -1.809,1.016 -0.34,1.019 0.113,1.019 0.453,1.699 0.336,0.679 -1.015,2.492 -1.242,1.472 -0.227,-1.019 -0.902,-0.523 -1.242,0.305 -0.34,0.828 -1.02,0.828 -1.582,1.961 -0.563,1.133 -0.336,2.039 -1.918,1.699 -1.582,-0.34 -1.805,-1.586 -2.711,-0.679 -0.903,0.906 -1.352,1.132 -1.914,1.812 -0.567,0.68 -1.469,0.34 -1.922,-0.793 -0.449,-1.133 -1.129,-1.926 -0.113,-2.945 1.015,-1.02 0.453,-2.242 -0.45,-2.309 -0.906,-0.07 -1.015,-0.523 -1.691,0.723 -0.68,1.246 -1.469,0 -2.598,0 -1.129,0 -1.015,0.453 -2.484,0.793 -1.469,0.34 -0.563,0.68 -1.805,1.246 -1.242,0.566 -0.039,0.68 -1.996,0.793 -1.953,0.113 -2.746,-0.567 -2.519,0.566 0.226,1.133 1.918,1.133 0.226,1.133 -1.695,0 -1.918,0.34 -3.16,-0.793 -1.242,-1.133 -2.258,-2.265 -3.277,-2.152 -1.016,0.113 -1.578,0.679 -1.692,2.265 -0.113,1.586 0.563,1.04 1.242,1.825 0.68,0.781 2.258,1.347 1.016,1.914 -1.242,0.566 -1.691,0.566 -1.469,1.699 0.227,1.133 1.36,0.793 0,2.039 -1.351,1.246 -1.804,1.586 -2.254,4.305 -0.453,2.718 0.114,3.285 -0.902,4.304 -1.019,1.02 -2.258,2.379 -3.16,1.36 -0.906,-1.02 -1.133,-1.02 -1.582,-0.227 -0.449,0.793 -0.606,1.02 -1.828,1.133 -1.219,0.113 -2.008,0.34 -3.028,0 -1.015,-0.34 -0.222,-0.32 -1.804,0.18 -1.582,0.5 -2.922,0.16 -1.856,-1.2 1.067,-1.359 0.278,-1.246 -0.965,-2.265 -1.242,-1.02 -1.921,-1.246 -2.484,-0.227 -0.562,1.02 -0.562,1.473 -2.258,1.133 -1.691,-0.34 -2.82,-1.699 -3.386,-0.226 -0.563,1.472 -1.129,1.703 -0.227,3.003 0.906,1.301 1.355,1.641 0.566,2.774 -0.789,1.133 -0.113,1.246 -0.902,2.152 -0.789,0.906 -0.227,0 -1.695,0 -1.465,0 -1.805,-0.101 -2.707,0.403 -0.903,0.503 -1.242,-0.165 -2.032,0 -0.793,0.164 -0.453,1.238 -1.355,0.191 -0.902,-1.047 -0.566,-1.613 -1.691,-0.367 -1.129,1.246 -2.258,1.133 -2.711,-0.227 -0.453,-1.359 -0.227,-0.453 -1.469,-2.152 -1.242,-1.699 -2.258,-3.059 -2.258,-4.418 0,-1.359 -0.902,-1.473 -2.258,-0.68 -1.351,0.793 -0.675,1.36 -1.804,1.586 -1.129,0.227 -1.469,-0.68 -2.368,-0.113 -0.906,0.566 -0.343,-0.227 -0.906,1.473 -0.562,1.699 -0.789,2.039 -1.582,2.492 -0.789,0.453 -0.676,1.133 -1.351,0 -0.68,-1.133 -1.016,-2.266 -2.258,-1.586 -1.242,0.679 -3.84,2.379 -4.742,1.359 -0.903,-1.019 -1.918,-2.152 -2.707,-2.152 -0.79,0 -0.68,-1.02 -0.79,-2.266 -0.117,-1.246 -1.132,-1.019 -2.371,-1.586 -1.246,-0.566 -1.808,0.227 -1.922,-1.699 -0.113,-1.926 -0.113,-2.945 -1.355,-3.965 -1.238,-1.019 -0.789,-1.246 0,-2.152 0.793,-0.906 1.02,-1.133 1.582,-1.926 0.566,-0.793 0.449,-1.129 1.469,-0.449 1.015,0.68 1.469,1.015 1.578,-0.344 0.117,-1.359 0.453,-1.808 1.242,-2.832 0.793,-1.016 1.809,-1.016 3.051,-0.34 1.242,0.68 2.144,0.227 3.387,0.227 1.238,0 1.804,0.453 2.144,1.359 0.336,0.906 0.336,0 1.578,0.117 1.242,0.11 2.258,0.563 3.164,-0.683 0.899,-1.246 0.789,-0.906 0.676,-2.489 -0.113,-1.585 -0.113,-2.043 -0.113,-3.058 0,-1.02 0.676,-1.246 1.355,-0.68 0.676,0.563 1.242,0.906 1.692,-0.117 0.449,-1.016 1.242,-1.246 0.679,-2.375 -0.566,-1.133 -1.804,-0.906 -0.226,-2.383 1.578,-1.472 2.258,-1.812 1.805,-2.488 -0.45,-0.684 0.339,1.016 -0.45,-0.684 -0.793,-1.699 -1.355,-2.488 -0.226,-3.168 1.129,-0.679 2.031,-0.34 3.949,-1.019 1.918,-0.68 1.129,-1.246 1.242,-1.926 0.113,-0.684 -1.469,0.223 -1.351,-0.684 0.109,-0.906 -0.227,-2.265 1.015,-2.714 1.242,-0.454 2.031,-0.227 1.918,-1.7 -0.113,-1.472 0.113,-2.265 -1.129,-1.246 -1.242,1.02 -2.031,0.567 -2.707,0.34 -0.679,-0.226 -1.246,0.453 -1.129,1.133 0.11,0.68 -1.132,-0.453 -1.582,0.226 -0.453,0.68 1.242,0.567 1.465,1.586 0.227,1.02 -1.465,1.586 -2.367,1.247 -0.902,-0.34 -1.469,-1.247 -1.695,-2.493 -0.227,-1.246 0,-1.472 -0.903,-0.679 -0.902,0.793 -1.129,0.679 -1.242,-0.453 -0.113,-1.133 -0.113,-2.719 -1.242,-1.586 -1.129,1.132 -2.145,1.132 -2.145,2.378 0,1.247 0.227,1.133 1.129,1.473 0.903,0.34 0.45,-0.226 1.016,1.36 0.566,1.585 1.355,1.562 1.355,2.707 0,1.144 -0.339,1.031 -1.355,0.464 -1.016,-0.566 -1.129,-1.496 -1.465,-0.464 -0.344,1.031 -0.226,0.578 0.336,1.257 0.563,0.68 0.563,0.793 -0.336,0.907 -0.906,0.113 -0.793,0.906 -1.582,1.019 -0.793,0.113 -2.371,0.567 -1.695,-1.473 0.676,-2.039 -0.449,-2.605 -1.016,-2.605 -0.566,0 -1.129,0.34 -1.242,1.473 -0.113,1.132 0.512,1.246 -0.59,0.906 -1.101,-0.34 -2.23,-2.152 -2.684,-3.965 -0.449,-1.812 -0.562,-3.851 -0.562,-4.984 0,-1.133 0,-1.699 -0.227,-3.625 -0.226,-1.926 -0.226,-3.223 0.454,-3.481 0.675,-0.258 0.562,-1.39 0.113,-2.297 -0.453,-0.906 0.336,-1.359 2.031,-2.152 1.691,-0.793 1.578,-1.102 3.047,-1.285 1.469,-0.188 1.582,-0.75 1.469,-1.774 -0.117,-1.019 -0.117,-2.378 0.902,-2.148 1.016,0.227 1.356,-1.137 0.676,-1.926 -0.676,-0.793 -1.465,-1.246 -1.578,-2.379 -0.117,-1.132 0.113,-1.363 -1.582,-0.851 -1.696,0.511 -3.274,1.98 -3.387,0 -0.113,-1.981 -1.129,-0.399 -1.242,0 -0.114,0.398 -0.676,0.398 -1.465,0.851 -0.789,0.453 -1.695,0.567 -2.484,0.567 -0.789,0 -0.903,0.222 -1.243,0.902 -0.339,0.68 -1.242,0.34 -2.257,1.02 -1.016,0.679 -1.016,0.91 -2.258,1.019 -1.242,0.113 -1.578,0.227 -1.918,-0.793 -0.34,-1.019 -0.903,-1.582 0,-2.379 0.906,-0.793 1.355,-1.586 2.597,-1.187 1.243,0.394 2.485,0.508 1.805,-0.735 -0.676,-1.246 -1.465,-1.586 1.016,-1.812 2.484,-0.231 3.84,-0.567 5.191,-0.91 1.36,-0.336 1.129,-0.453 0.453,-1.469 -0.691,-1.02 -0.351,-2.039 -0.351,-2.039 z"
           id="path3030"
           style="fill:#6d6e71;fill-opacity:1;fill-rule:nonzero;stroke:#6d6e71;stroke-width:0.45232001;stroke-linecap:butt;stroke-linejoin:miter;stroke-miterlimit:4;stroke-opacity:1;stroke-dasharray:none"
           inkscape:connector-curvature="0" /></g><g
         transform="matrix(1,0,0,-1,0,476.22403)"
         id="g3032"><path
           d="m 422.551,140.969 c 0.152,1.965 1.804,2.418 3.312,3.324 1.504,0.906 3.461,2.566 3.16,4.832 -0.3,2.266 -0.3,7.703 0,9.363 0.301,1.664 0.903,2.871 2.411,5.742 1.5,2.868 1.203,3.02 1.5,6.493 0.304,3.472 0.754,6.195 0,12.386 -0.75,6.192 -1.657,12.668 -1.051,16.379 0.601,3.707 0.449,13.071 -0.301,16.696 -0.754,3.625 -1.809,6.043 -1.203,8.308 0.601,2.266 -0.453,3.473 -1.356,5.887 -0.902,2.418 -0.453,1.664 0,5.289 0.45,3.625 1.356,4.227 0,6.191 -1.355,1.965 -1.355,0.754 -2.41,4.832 -1.051,4.079 -2.855,6.043 -1.351,9.063 1.504,3.019 3.008,4.984 5.265,5.738 2.258,0.754 1.957,2.266 1.957,5.438 0,3.172 -1.656,4.531 -2.105,9.668 -0.453,5.132 0.148,7.906 1.652,11.582 1.508,3.672 -0.301,5.332 0,9.715 0.301,4.378 -0.301,8.906 -0.902,10.269"
           id="path3034"
           style="fill:none;stroke:#6d6e71;stroke-width:0.2;stroke-linecap:butt;stroke-linejoin:miter;stroke-miterlimit:4;stroke-opacity:1;stroke-dasharray:none"
           inkscape:connector-curvature="0" /></g><path
         d="m 290.035,233.236 0,3.375 0.539,0 1.133,-2.25 0,2.25 0.516,0 0,-3.375 -0.559,0 -1.109,2.203 0,-2.203 -0.52,0 z"
         id="path3036"
         style="fill:#e6e7e8;fill-opacity:1;fill-rule:nonzero;stroke:none"
         inkscape:connector-curvature="0" /><path
         d="m 292.816,233.236 0,3.375 0.555,0 0,-1.5 1.125,1.5 0.75,0 -1.043,-1.313 1.098,-2.062 -0.719,0 -0.762,1.59 -0.449,-0.567 0,-1.023 -0.555,0 z"
         id="path3038"
         style="fill:#e6e7e8;fill-opacity:1;fill-rule:nonzero;stroke:none"
         inkscape:connector-curvature="0" /><path
         d="m 298.074,233.236 -0.601,0 -0.243,0.765 -1.105,0 -0.227,-0.765 -0.589,0 1.07,3.375 0.59,0 1.105,-3.375 z m -1.023,1.336 -0.383,1.254 -0.371,-1.254 0.754,0 z"
         id="path3040"
         style="fill:#e6e7e8;fill-opacity:1;fill-rule:nonzero;stroke:none"
         inkscape:connector-curvature="0" /><path
         d="m 298.371,233.236 0,3.375 0.543,0 1.129,-2.25 0,2.25 0.516,0 0,-3.375 -0.559,0 -1.109,2.203 0,-2.203 -0.52,0 z"
         id="path3042"
         style="fill:#e6e7e8;fill-opacity:1;fill-rule:nonzero;stroke:none"
         inkscape:connector-curvature="0" /><path
         d="m 302.43,234.478 0,0.57 1.199,0 0,-1.347 c -0.121,-0.141 -0.293,-0.266 -0.516,-0.368 -0.218,-0.101 -0.445,-0.152 -0.668,-0.152 -0.269,0 -0.511,0.066 -0.718,0.199 -0.207,0.137 -0.372,0.336 -0.497,0.606 -0.117,0.265 -0.179,0.582 -0.179,0.945 0,0.371 0.058,0.688 0.183,0.953 0.125,0.262 0.286,0.457 0.477,0.586 0.199,0.133 0.434,0.199 0.707,0.199 0.332,0 0.594,-0.086 0.789,-0.25 0.199,-0.172 0.328,-0.418 0.383,-0.742 l -0.551,-0.125 c -0.039,0.172 -0.117,0.305 -0.227,0.399 -0.109,0.089 -0.242,0.136 -0.394,0.136 -0.238,0 -0.426,-0.093 -0.574,-0.277 -0.149,-0.184 -0.219,-0.469 -0.219,-0.848 0,-0.402 0.078,-0.715 0.238,-0.925 0.137,-0.184 0.317,-0.274 0.551,-0.274 0.109,0 0.219,0.024 0.34,0.074 0.117,0.051 0.219,0.121 0.312,0.211 l 0,0.43 -0.636,0 z"
         id="path3044"
         style="fill:#e6e7e8;fill-opacity:1;fill-rule:nonzero;stroke:none"
         inkscape:connector-curvature="0" /><path
         d="m 306.629,233.236 -0.602,0 -0.246,0.765 -1.101,0 -0.227,-0.765 -0.59,0 1.071,3.375 0.589,0 1.106,-3.375 z m -1.024,1.336 -0.382,1.254 -0.371,-1.254 0.753,0 z"
         id="path3046"
         style="fill:#e6e7e8;fill-opacity:1;fill-rule:nonzero;stroke:none"
         inkscape:connector-curvature="0" /><path
         d="m 306.934,233.236 0,3.347 0.558,0 0,-2.773 1.383,0 0,-0.574 -1.941,0 z"
         id="path3048"
         style="fill:#e6e7e8;fill-opacity:1;fill-rule:nonzero;stroke:none"
         inkscape:connector-curvature="0" /><path
         d="m 311.762,233.236 -0.602,0 -0.246,0.765 -1.102,0 -0.226,-0.765 -0.594,0 1.074,3.375 0.59,0 1.106,-3.375 z m -1.024,1.336 -0.383,1.254 -0.375,-1.254 0.758,0 z"
         id="path3050"
         style="fill:#e6e7e8;fill-opacity:1;fill-rule:nonzero;stroke:none"
         inkscape:connector-curvature="0" /><path
         d="m 307.852,186.349 0,0.57 1.199,0 0,-1.343 c -0.121,-0.145 -0.289,-0.266 -0.516,-0.368 -0.219,-0.101 -0.445,-0.156 -0.664,-0.156 -0.273,0 -0.512,0.067 -0.723,0.203 -0.207,0.137 -0.371,0.336 -0.492,0.602 -0.121,0.269 -0.183,0.582 -0.183,0.945 0,0.375 0.062,0.692 0.187,0.953 0.121,0.266 0.281,0.461 0.481,0.59 0.195,0.133 0.429,0.195 0.703,0.195 0.328,0 0.59,-0.082 0.789,-0.25 0.199,-0.168 0.324,-0.414 0.383,-0.738 l -0.551,-0.129 c -0.043,0.172 -0.117,0.305 -0.227,0.399 -0.109,0.093 -0.242,0.136 -0.394,0.136 -0.239,0 -0.43,-0.089 -0.574,-0.277 -0.149,-0.184 -0.223,-0.465 -0.223,-0.844 0,-0.406 0.082,-0.715 0.238,-0.929 0.137,-0.18 0.32,-0.274 0.555,-0.274 0.109,0 0.219,0.028 0.336,0.078 0.117,0.051 0.222,0.121 0.316,0.211 l 0,0.426 -0.64,0 z"
         id="path3052"
         style="fill:#6d6e71;fill-opacity:1;fill-rule:nonzero;stroke:none"
         inkscape:connector-curvature="0" /><path
         d="m 309.566,185.111 0,3.375 2.047,0 0,-0.571 -1.488,0 0,-0.75 1.383,0 0,-0.566 -1.383,0 0,-0.918 1.539,0 0,-0.57 -2.098,0 z"
         id="path3054"
         style="fill:#6d6e71;fill-opacity:1;fill-rule:nonzero;stroke:none"
         inkscape:connector-curvature="0" /><path
         d="m 312.137,185.111 0,3.375 1.172,0 c 0.296,0 0.511,-0.032 0.64,-0.094 0.129,-0.059 0.235,-0.164 0.317,-0.313 0.082,-0.152 0.125,-0.328 0.125,-0.539 0,-0.261 -0.063,-0.476 -0.188,-0.636 -0.125,-0.16 -0.308,-0.262 -0.539,-0.305 0.117,-0.086 0.215,-0.18 0.293,-0.281 0.078,-0.102 0.188,-0.285 0.32,-0.551 l 0.336,-0.656 -0.664,0 -0.406,0.734 c -0.141,0.266 -0.242,0.434 -0.293,0.496 -0.051,0.071 -0.105,0.113 -0.164,0.141 -0.059,0.023 -0.152,0.035 -0.281,0.035 l -0.114,0 0,-1.406 -0.554,0 z m 0.554,1.949 0.411,0 c 0.253,0 0.414,0.008 0.484,0.031 0.066,0.024 0.125,0.067 0.168,0.137 0.043,0.066 0.062,0.156 0.062,0.266 0,0.109 -0.019,0.195 -0.062,0.261 -0.043,0.067 -0.102,0.11 -0.176,0.133 -0.051,0.02 -0.203,0.027 -0.453,0.027 l -0.434,0 0,-0.855 z"
         id="path3056"
         style="fill:#6d6e71;fill-opacity:1;fill-rule:nonzero;stroke:none"
         inkscape:connector-curvature="0" /><path
         d="m 315.535,185.111 0,2.804 -0.82,0 0,0.571 2.191,0 0,-0.571 -0.82,0 0,-2.804 -0.551,0 z"
         id="path3058"
         style="fill:#6d6e71;fill-opacity:1;fill-rule:nonzero;stroke:none"
         inkscape:connector-curvature="0" /><path
         d="m 318.195,186.212 0.543,0.063 c 0.063,-0.43 0.262,-0.645 0.602,-0.645 0.168,0 0.301,0.043 0.398,0.133 0.094,0.086 0.141,0.195 0.141,0.324 0,0.078 -0.016,0.145 -0.051,0.2 -0.031,0.05 -0.082,0.093 -0.152,0.128 -0.067,0.036 -0.235,0.094 -0.5,0.176 -0.235,0.071 -0.41,0.149 -0.52,0.235 -0.109,0.082 -0.199,0.195 -0.261,0.332 -0.063,0.136 -0.098,0.281 -0.098,0.441 0,0.184 0.043,0.352 0.125,0.496 0.082,0.149 0.199,0.258 0.348,0.332 0.144,0.078 0.328,0.113 0.539,0.113 0.324,0 0.582,-0.086 0.761,-0.261 0.184,-0.18 0.278,-0.43 0.289,-0.758 l -0.558,-0.031 c -0.024,0.183 -0.074,0.308 -0.156,0.379 -0.083,0.074 -0.196,0.109 -0.344,0.109 -0.153,0 -0.27,-0.031 -0.352,-0.094 -0.078,-0.062 -0.117,-0.14 -0.117,-0.234 0,-0.09 0.035,-0.168 0.109,-0.231 0.071,-0.062 0.239,-0.132 0.508,-0.207 0.278,-0.082 0.481,-0.168 0.606,-0.258 0.121,-0.089 0.218,-0.203 0.285,-0.347 0.062,-0.141 0.098,-0.313 0.098,-0.516 0,-0.293 -0.09,-0.539 -0.27,-0.738 -0.18,-0.199 -0.461,-0.301 -0.844,-0.301 -0.676,0 -1.054,0.387 -1.129,1.16 z"
         id="path3060"
         style="fill:#6d6e71;fill-opacity:1;fill-rule:nonzero;stroke:none"
         inkscape:connector-curvature="0" /><path
         d="m 320.887,188.486 0.555,0 0,-3.375 -0.555,0 0,3.375 z"
         id="path3062"
         style="fill:#6d6e71;fill-opacity:1;fill-rule:nonzero;stroke:none"
         inkscape:connector-curvature="0" /><path
         d="m 321.973,188.486 1.105,0 c 0.301,0 0.516,-0.032 0.637,-0.086 0.121,-0.055 0.226,-0.149 0.308,-0.289 0.086,-0.141 0.129,-0.301 0.129,-0.477 0,-0.16 -0.039,-0.308 -0.109,-0.441 -0.074,-0.129 -0.164,-0.227 -0.281,-0.289 0.16,-0.059 0.289,-0.16 0.383,-0.301 0.089,-0.141 0.136,-0.313 0.136,-0.516 0,-0.246 -0.058,-0.449 -0.176,-0.621 -0.117,-0.168 -0.257,-0.273 -0.417,-0.316 -0.11,-0.028 -0.368,-0.039 -0.778,-0.039 l -0.937,0 0,3.375 z m 0.558,-0.563 0,-0.781 0.364,0 c 0.218,0 0.359,0.004 0.41,0.012 0.093,0.015 0.168,0.054 0.222,0.121 0.051,0.066 0.078,0.152 0.078,0.265 0,0.102 -0.019,0.18 -0.062,0.243 -0.047,0.062 -0.098,0.101 -0.16,0.117 -0.063,0.015 -0.238,0.023 -0.531,0.023 l -0.321,0 z m 0,-1.344 0,-0.898 0.516,0 c 0.226,0 0.371,0.012 0.433,0.035 0.067,0.028 0.122,0.074 0.165,0.141 0.043,0.07 0.066,0.16 0.066,0.265 0,0.11 -0.023,0.204 -0.07,0.274 -0.051,0.07 -0.11,0.121 -0.188,0.148 -0.078,0.024 -0.234,0.039 -0.473,0.039 l -0.449,0 0,-0.004 z"
         id="path3064"
         style="fill:#6d6e71;fill-opacity:1;fill-rule:nonzero;stroke:none"
         inkscape:connector-curvature="0" /><path
         d="m 327.242,185.111 -0.605,0 -0.242,0.765 -1.102,0 -0.231,-0.765 -0.589,0 1.074,3.375 0.59,0 1.105,-3.375 z m -1.023,1.336 -0.383,1.25 -0.371,-1.25 0.754,0 z"
         id="path3066"
         style="fill:#6d6e71;fill-opacity:1;fill-rule:nonzero;stroke:none"
         inkscape:connector-curvature="0" /><path
         d="m 327.539,185.111 0,3.375 0.539,0 1.129,-2.254 0,2.254 0.52,0 0,-3.375 -0.559,0 -1.109,2.199 0,-2.199 -0.52,0 z"
         id="path3068"
         style="fill:#6d6e71;fill-opacity:1;fill-rule:nonzero;stroke:none"
         inkscape:connector-curvature="0" /><path
         d="m 330.309,188.486 1.011,0 c 0.262,0 0.453,-0.032 0.586,-0.086 0.129,-0.059 0.25,-0.156 0.36,-0.289 0.109,-0.141 0.195,-0.317 0.257,-0.535 0.063,-0.219 0.094,-0.489 0.094,-0.813 0,-0.293 -0.031,-0.543 -0.097,-0.762 -0.067,-0.211 -0.149,-0.382 -0.25,-0.511 -0.102,-0.125 -0.223,-0.219 -0.364,-0.286 -0.144,-0.058 -0.328,-0.093 -0.551,-0.093 l -1.046,0 0,3.375 z m 0.554,-0.571 0,-2.234 0.418,0 c 0.18,0 0.309,0.016 0.387,0.051 0.082,0.035 0.144,0.086 0.199,0.152 0.051,0.067 0.094,0.176 0.125,0.324 0.035,0.149 0.051,0.34 0.051,0.582 0,0.25 -0.016,0.446 -0.051,0.59 -0.031,0.145 -0.09,0.258 -0.16,0.34 -0.074,0.082 -0.16,0.137 -0.266,0.164 -0.078,0.02 -0.23,0.028 -0.449,0.028 l -0.254,0 0,0.003 z"
         id="path3070"
         style="fill:#6d6e71;fill-opacity:1;fill-rule:nonzero;stroke:none"
         inkscape:connector-curvature="0" /><path
         d="m 333.094,185.111 0,3.375 2.043,0 0,-0.571 -1.489,0 0,-0.75 1.383,0 0,-0.566 -1.383,0 0,-0.918 1.54,0 0,-0.57 -2.094,0 z"
         id="path3072"
         style="fill:#6d6e71;fill-opacity:1;fill-rule:nonzero;stroke:none"
         inkscape:connector-curvature="0" /><path
         d="m 392.328,183.365 0,3.347 0.555,0 0,-2.773 1.383,0 0,-0.574 -1.938,0 z"
         id="path3074"
         style="fill:#6d6e71;fill-opacity:1;fill-rule:nonzero;stroke:none"
         inkscape:connector-curvature="0" /><path
         d="m 394.664,183.365 0,3.375 2.047,0 0,-0.571 -1.488,0 0,-0.746 1.382,0 0,-0.57 -1.382,0 0,-0.914 1.539,0 0,-0.574 -2.098,0 z"
         id="path3076"
         style="fill:#6d6e71;fill-opacity:1;fill-rule:nonzero;stroke:none"
         inkscape:connector-curvature="0" /><path
         d="m 397.094,184.466 0.543,0.067 c 0.062,-0.434 0.261,-0.649 0.597,-0.649 0.172,0 0.305,0.047 0.399,0.133 0.097,0.086 0.144,0.195 0.144,0.328 0,0.074 -0.015,0.141 -0.05,0.195 -0.036,0.051 -0.082,0.098 -0.153,0.129 -0.07,0.035 -0.234,0.094 -0.5,0.176 -0.238,0.07 -0.41,0.149 -0.519,0.234 -0.11,0.083 -0.2,0.196 -0.262,0.333 -0.066,0.136 -0.098,0.285 -0.098,0.441 0,0.184 0.043,0.351 0.125,0.5 0.082,0.144 0.2,0.258 0.344,0.332 0.148,0.074 0.328,0.113 0.543,0.113 0.324,0 0.578,-0.09 0.762,-0.265 0.183,-0.176 0.277,-0.43 0.289,-0.758 l -0.559,-0.028 c -0.027,0.18 -0.078,0.305 -0.16,0.379 -0.078,0.071 -0.195,0.11 -0.344,0.11 -0.152,0 -0.265,-0.035 -0.347,-0.098 -0.082,-0.059 -0.121,-0.141 -0.121,-0.23 0,-0.094 0.035,-0.168 0.109,-0.235 0.074,-0.058 0.242,-0.129 0.508,-0.207 0.281,-0.078 0.484,-0.164 0.605,-0.254 0.125,-0.09 0.219,-0.207 0.285,-0.347 0.067,-0.141 0.102,-0.317 0.102,-0.516 0,-0.293 -0.094,-0.539 -0.27,-0.738 -0.179,-0.203 -0.461,-0.301 -0.843,-0.301 -0.68,0 -1.055,0.383 -1.129,1.156 z"
         id="path3078"
         style="fill:#6d6e71;fill-opacity:1;fill-rule:nonzero;stroke:none"
         inkscape:connector-curvature="0" /><path
         d="m 399.688,185.033 c 0,0.402 0.058,0.734 0.179,0.992 0.117,0.262 0.274,0.453 0.461,0.582 0.195,0.125 0.426,0.191 0.695,0.191 0.399,0 0.715,-0.152 0.965,-0.453 0.25,-0.305 0.371,-0.734 0.371,-1.293 0,-0.562 -0.129,-1.004 -0.39,-1.32 -0.235,-0.281 -0.547,-0.422 -0.942,-0.422 -0.398,0 -0.715,0.137 -0.945,0.418 -0.262,0.312 -0.394,0.75 -0.394,1.305 z m 0.574,0.023 c 0,-0.391 0.074,-0.68 0.218,-0.875 0.149,-0.191 0.329,-0.289 0.547,-0.289 0.219,0 0.403,0.094 0.543,0.289 0.145,0.191 0.219,0.488 0.219,0.883 0,0.394 -0.07,0.683 -0.211,0.871 -0.14,0.187 -0.324,0.281 -0.551,0.281 -0.226,0 -0.41,-0.097 -0.55,-0.285 -0.145,-0.187 -0.215,-0.48 -0.215,-0.875 z"
         id="path3080"
         style="fill:#6d6e71;fill-opacity:1;fill-rule:nonzero;stroke:none"
         inkscape:connector-curvature="0" /><path
         d="m 403.418,183.365 0,2.804 -0.816,0 0,0.571 2.187,0 0,-0.571 -0.816,0 0,-2.804 -0.555,0 z"
         id="path3082"
         style="fill:#6d6e71;fill-opacity:1;fill-rule:nonzero;stroke:none"
         inkscape:connector-curvature="0" /><path
         d="m 405.152,183.365 0,3.375 0.555,0 0,-1.328 1.094,0 0,1.328 0.554,0 0,-3.375 -0.554,0 0,1.476 -1.094,0 0,-1.476 -0.555,0 z"
         id="path3084"
         style="fill:#6d6e71;fill-opacity:1;fill-rule:nonzero;stroke:none"
         inkscape:connector-curvature="0" /><path
         d="m 407.816,185.033 c 0,0.402 0.059,0.734 0.176,0.992 0.121,0.262 0.278,0.453 0.469,0.582 0.187,0.129 0.418,0.191 0.691,0.191 0.395,0 0.715,-0.152 0.965,-0.453 0.25,-0.305 0.371,-0.734 0.371,-1.293 0,-0.562 -0.129,-1.004 -0.394,-1.32 -0.231,-0.281 -0.543,-0.422 -0.938,-0.422 -0.398,0 -0.715,0.137 -0.945,0.418 -0.266,0.312 -0.395,0.75 -0.395,1.305 z m 0.575,0.023 c 0,-0.391 0.074,-0.68 0.218,-0.875 0.149,-0.191 0.329,-0.289 0.547,-0.289 0.219,0 0.399,0.094 0.543,0.289 0.145,0.191 0.219,0.488 0.219,0.883 0,0.394 -0.07,0.683 -0.211,0.871 -0.141,0.187 -0.324,0.281 -0.551,0.281 -0.226,0 -0.414,-0.097 -0.554,-0.285 -0.141,-0.187 -0.211,-0.48 -0.211,-0.875 z"
         id="path3086"
         style="fill:#6d6e71;fill-opacity:1;fill-rule:nonzero;stroke:none"
         inkscape:connector-curvature="0" /><path
         d="m 236.512,232.384 0,0.57 1.199,0 0,-1.343 c -0.117,-0.141 -0.289,-0.262 -0.512,-0.367 -0.222,-0.102 -0.445,-0.153 -0.664,-0.153 -0.277,0 -0.515,0.067 -0.723,0.199 -0.207,0.137 -0.374,0.336 -0.492,0.606 -0.125,0.266 -0.187,0.582 -0.187,0.941 0,0.375 0.062,0.692 0.187,0.953 0.121,0.266 0.282,0.461 0.481,0.594 0.195,0.129 0.429,0.195 0.703,0.195 0.328,0 0.594,-0.085 0.789,-0.253 0.199,-0.168 0.328,-0.414 0.383,-0.739 l -0.551,-0.125 c -0.039,0.172 -0.117,0.305 -0.227,0.395 -0.109,0.094 -0.238,0.14 -0.394,0.14 -0.234,0 -0.426,-0.093 -0.574,-0.277 -0.145,-0.187 -0.223,-0.469 -0.223,-0.848 0,-0.406 0.082,-0.714 0.238,-0.925 0.137,-0.184 0.325,-0.274 0.555,-0.274 0.109,0 0.219,0.024 0.34,0.078 0.117,0.051 0.219,0.118 0.312,0.207 l 0,0.426 -0.64,0 z"
         id="path3088"
         style="fill:#6d6e71;fill-opacity:1;fill-rule:nonzero;stroke:none"
         inkscape:connector-curvature="0" /><path
         d="m 240.715,231.15 -0.606,0 -0.242,0.762 -1.101,0 -0.227,-0.762 -0.594,0 1.075,3.371 0.589,0 1.106,-3.371 z m -1.024,1.332 -0.382,1.25 -0.375,-1.25 0.757,0 z"
         id="path3090"
         style="fill:#6d6e71;fill-opacity:1;fill-rule:nonzero;stroke:none"
         inkscape:connector-curvature="0" /><path
         d="m 241.004,234.521 0.551,0 0,-1.824 c 0,-0.285 0.007,-0.469 0.023,-0.559 0.024,-0.148 0.082,-0.262 0.172,-0.344 0.094,-0.082 0.215,-0.121 0.371,-0.121 0.125,0 0.231,0.028 0.313,0.086 0.078,0.059 0.136,0.137 0.164,0.238 0.031,0.102 0.047,0.325 0.047,0.661 l 0,1.863 0.554,0 0,-1.774 c 0,-0.449 -0.023,-0.777 -0.074,-0.98 -0.047,-0.199 -0.156,-0.363 -0.324,-0.488 -0.168,-0.125 -0.391,-0.188 -0.668,-0.188 -0.285,0 -0.512,0.051 -0.672,0.156 -0.16,0.102 -0.281,0.247 -0.352,0.438 -0.074,0.184 -0.105,0.531 -0.105,1.039 l 0,1.797 z"
         id="path3092"
         style="fill:#6d6e71;fill-opacity:1;fill-rule:nonzero;stroke:none"
         inkscape:connector-curvature="0" /><path
         d="m 244.406,231.15 0,2.801 -0.82,0 0,0.57 2.191,0 0,-0.57 -0.816,0 0,-2.801 -0.555,0 z"
         id="path3094"
         style="fill:#6d6e71;fill-opacity:1;fill-rule:nonzero;stroke:none"
         inkscape:connector-curvature="0" /><path
         d="m 246.137,231.15 0,3.371 2.047,0 0,-0.57 -1.489,0 0,-0.75 1.383,0 0,-0.567 -1.383,0 0,-0.914 1.539,0 0,-0.574 -2.097,0 0,0.004 z"
         id="path3096"
         style="fill:#6d6e71;fill-opacity:1;fill-rule:nonzero;stroke:none"
         inkscape:connector-curvature="0" /><path
         d="m 248.711,231.15 0,3.371 0.543,0 1.125,-2.254 0,2.254 0.519,0 0,-3.371 -0.558,0 -1.11,2.195 0,-2.195 -0.519,0 z"
         id="path3098"
         style="fill:#6d6e71;fill-opacity:1;fill-rule:nonzero;stroke:none"
         inkscape:connector-curvature="0" /><path
         d="m 252.766,232.384 0,0.57 1.199,0 0,-1.343 c -0.117,-0.141 -0.293,-0.262 -0.512,-0.367 -0.223,-0.102 -0.445,-0.153 -0.668,-0.153 -0.273,0 -0.512,0.067 -0.719,0.199 -0.211,0.137 -0.371,0.336 -0.492,0.606 -0.121,0.266 -0.183,0.582 -0.183,0.941 0,0.375 0.058,0.692 0.183,0.953 0.121,0.266 0.281,0.461 0.477,0.594 0.199,0.129 0.433,0.195 0.707,0.195 0.328,0 0.594,-0.085 0.789,-0.253 0.199,-0.168 0.324,-0.414 0.383,-0.739 l -0.551,-0.125 c -0.043,0.172 -0.117,0.305 -0.227,0.395 -0.109,0.094 -0.242,0.14 -0.394,0.14 -0.238,0 -0.43,-0.093 -0.574,-0.277 -0.149,-0.187 -0.219,-0.469 -0.219,-0.848 0,-0.406 0.078,-0.714 0.234,-0.925 0.137,-0.184 0.321,-0.274 0.555,-0.274 0.109,0 0.219,0.024 0.336,0.078 0.117,0.051 0.222,0.118 0.316,0.207 l 0,0.426 -0.64,0 z"
         id="path3100"
         style="fill:#6d6e71;fill-opacity:1;fill-rule:nonzero;stroke:none"
         inkscape:connector-curvature="0" /><path
         d="m 301.664,273.755 0,3.344 0.555,0 0,-2.773 1.383,0 0,-0.571 -1.938,0 z"
         id="path3102"
         style="fill:#6d6e71;fill-opacity:1;fill-rule:nonzero;stroke:none"
         inkscape:connector-curvature="0" /><path
         d="m 303.984,277.126 0.555,0 0,-3.371 -0.555,0 0,3.371 z"
         id="path3104"
         style="fill:#6d6e71;fill-opacity:1;fill-rule:nonzero;stroke:none"
         inkscape:connector-curvature="0" /><path
         d="m 305.066,273.755 0,3.371 0.832,0 0.5,-2.304 0.497,2.304 0.835,0 0,-3.371 -0.515,0 0,2.657 -0.551,-2.657 -0.535,0 -0.547,2.657 0,-2.657 -0.516,0 z"
         id="path3106"
         style="fill:#6d6e71;fill-opacity:1;fill-rule:nonzero;stroke:none"
         inkscape:connector-curvature="0" /><path
         d="m 308.277,273.755 0,3.371 0.895,0 c 0.336,0 0.555,-0.015 0.656,-0.05 0.16,-0.051 0.297,-0.161 0.402,-0.332 0.11,-0.172 0.161,-0.391 0.161,-0.657 0,-0.246 -0.047,-0.449 -0.137,-0.617 -0.094,-0.16 -0.207,-0.277 -0.344,-0.348 -0.137,-0.066 -0.379,-0.097 -0.711,-0.097 l -0.367,0 0,-1.274 -0.555,0 0,0.004 z m 0.555,2.801 0,-0.961 0.309,0 c 0.207,0 0.351,0.016 0.425,0.043 0.071,0.031 0.133,0.082 0.18,0.16 0.047,0.074 0.074,0.168 0.074,0.281 0,0.11 -0.027,0.208 -0.074,0.282 -0.051,0.078 -0.109,0.129 -0.184,0.156 -0.07,0.027 -0.222,0.039 -0.457,0.039 l -0.273,0 z"
         id="path3108"
         style="fill:#6d6e71;fill-opacity:1;fill-rule:nonzero;stroke:none"
         inkscape:connector-curvature="0" /><path
         d="m 310.734,275.419 c 0,0.403 0.059,0.731 0.176,0.993 0.121,0.261 0.278,0.453 0.469,0.582 0.187,0.128 0.422,0.191 0.691,0.191 0.395,0 0.719,-0.152 0.965,-0.453 0.25,-0.305 0.375,-0.735 0.375,-1.293 0,-0.563 -0.133,-1.004 -0.394,-1.32 -0.231,-0.282 -0.547,-0.422 -0.942,-0.422 -0.398,0 -0.715,0.136 -0.945,0.418 -0.262,0.312 -0.395,0.75 -0.395,1.304 z m 0.575,0.024 c 0,-0.387 0.074,-0.68 0.218,-0.875 0.149,-0.196 0.332,-0.289 0.547,-0.289 0.223,0 0.399,0.093 0.547,0.289 0.145,0.191 0.215,0.488 0.215,0.886 0,0.391 -0.07,0.68 -0.211,0.868 -0.141,0.183 -0.32,0.281 -0.551,0.281 -0.226,0 -0.41,-0.098 -0.551,-0.285 -0.144,-0.188 -0.214,-0.481 -0.214,-0.875 z"
         id="path3110"
         style="fill:#6d6e71;fill-opacity:1;fill-rule:nonzero;stroke:none"
         inkscape:connector-curvature="0" /><path
         d="m 313.844,273.755 0,3.371 0.894,0 c 0.336,0 0.551,-0.015 0.653,-0.05 0.164,-0.051 0.3,-0.161 0.406,-0.332 0.105,-0.172 0.16,-0.391 0.16,-0.657 0,-0.246 -0.051,-0.449 -0.141,-0.617 -0.089,-0.16 -0.207,-0.277 -0.343,-0.348 -0.137,-0.066 -0.371,-0.097 -0.711,-0.097 l -0.364,0 0,-1.274 -0.554,0 0,0.004 z m 0.554,2.801 0,-0.961 0.309,0 c 0.207,0 0.348,0.016 0.422,0.043 0.074,0.031 0.133,0.082 0.183,0.16 0.047,0.074 0.071,0.168 0.071,0.281 0,0.11 -0.024,0.208 -0.074,0.282 -0.051,0.078 -0.11,0.129 -0.18,0.156 -0.07,0.027 -0.227,0.039 -0.457,0.039 l -0.274,0 z"
         id="path3112"
         style="fill:#6d6e71;fill-opacity:1;fill-rule:nonzero;stroke:none"
         inkscape:connector-curvature="0" /><path
         d="m 316.301,275.419 c 0,0.403 0.054,0.731 0.176,0.993 0.121,0.261 0.277,0.453 0.464,0.582 0.192,0.128 0.422,0.191 0.696,0.191 0.394,0 0.718,-0.152 0.965,-0.453 0.246,-0.305 0.371,-0.735 0.371,-1.293 0,-0.563 -0.133,-1.004 -0.395,-1.32 -0.23,-0.282 -0.543,-0.422 -0.941,-0.422 -0.399,0 -0.711,0.136 -0.942,0.418 -0.261,0.312 -0.394,0.75 -0.394,1.304 z m 0.57,0.024 c 0,-0.387 0.074,-0.68 0.223,-0.875 0.148,-0.196 0.328,-0.289 0.547,-0.289 0.218,0 0.398,0.093 0.543,0.289 0.144,0.191 0.218,0.488 0.218,0.886 0,0.391 -0.07,0.68 -0.211,0.868 -0.144,0.183 -0.324,0.281 -0.55,0.281 -0.227,0 -0.411,-0.098 -0.555,-0.285 -0.145,-0.188 -0.215,-0.481 -0.215,-0.875 z"
         id="path3114"
         style="fill:#6d6e71;fill-opacity:1;fill-rule:nonzero;stroke:none"
         inkscape:connector-curvature="0" /><g
         transform="matrix(1,0,0,-1,0,476.22403)"
         id="g3116"><path
           d="m 360.465,240.84 c 0.676,-0.906 0.902,-1.473 -0.602,-2.039 -1.508,-0.567 -1.543,-0.793 -1.09,-1.473 0.454,-0.68 1.356,-0.34 1.016,-1.133 -0.34,-0.793 -1.016,-1.699 -1.355,-3.058 -0.34,-1.36 -1.692,-0.34 -2.707,-0.793 -1.02,-0.453 -0.454,-1.36 -0.114,-2.153 0.34,-0.793 0.903,-1.132 0.789,-2.039 -0.113,-0.906 -0.906,-0.679 -2.031,-0.113 -1.129,0.563 -0.566,-1.133 -1.242,-1.434 -0.68,-0.3 -1.016,0.754 -1.129,0 -0.113,-0.753 -1.242,-3.437 -1.242,-4.91 0,-1.472 -0.113,-1.359 -0.68,-0.906 -0.562,0.453 -1.465,1.473 -0.789,2.945 0.68,1.473 -1.351,2.493 -2.371,3.512 -1.016,1.02 -1.465,1.246 -2.145,-0.48 -0.675,-1.727 -1.695,-0.766 -2.593,-0.161 -0.907,0.602 -1.469,-0.605 -1.922,-1.625 -0.449,-1.019 0.566,-1.812 0.789,-2.921 0.226,-1.11 0.117,-1.723 -1.016,-1.723 -1.125,0 -1.238,-0.453 -1.578,-1.555 -0.34,-1.101 0.449,-1.39 0,-2.41 -0.453,-1.019 -1.465,-1.699 -2.371,-2.492 -0.902,-0.793 -0.676,-1.586 -1.016,-0.832 -0.339,0.75 0.227,1.515 -0.871,2.305 -1.097,0.793 -1.047,1.25 -1.949,2.039 -0.906,0.793 -1.242,1.472 -1.695,2.379 -0.449,0.906 -1.016,0.679 -1.692,0.339 -0.679,-0.339 -0.226,-0.679 -0.679,-1.328 0.906,-1.086 0,-2.597 0.754,-4.258 0.75,-1.664 0.75,-3.625 0.453,-5.89 -0.305,-2.266 -1.43,-3.551 0.183,-3.813 1.618,-0.265 1.469,-1.851 2.672,0 1.203,1.848 2.11,2.301 3.313,2.301 1.203,0 0.902,-0.828 1.203,-2.301 0.301,-1.472 0.152,-3.285 2.258,-2.379 2.109,0.907 0.754,-1.675 0,-2.953 -0.75,-1.277 -0.602,-4.601 0.3,-6.261 0.903,-1.661 0.602,-2.684 2.86,-1.192 2.258,1.492 1.656,3.274 3.762,2.535 2.109,-0.738 1.808,-0.738 3.16,-1.191 1.355,-0.453 1.656,-1.965 2.41,-0.152 0.754,1.812 0.754,1.66 1.957,3.472 1.203,1.813 1.351,2.418 1.805,0.906 0.453,-1.511 0.753,-2.566 2.558,-1.96 1.809,0.601 0.082,-0.34 1.996,-1.075 1.918,-0.738 1.918,0.016 2.672,-1.644 0.75,-1.664 1.656,-0.906 1.051,-2.719 -0.602,-1.812 -2.559,-2.719 -0.754,-3.172 1.809,-0.453 0.906,-0.906 2.711,-1.359 1.805,-0.453 2.258,-0.305 1.355,-2.266 -0.902,-1.965 -0.902,-2.91 -0.453,-3.871 0.453,-0.965 1.656,1.867 1.656,-1.812 0,-3.68 -0.601,-8.516 1.958,-5.645 2.558,2.871 4.664,4.078 6.472,3.625 1.805,-0.453 2.707,0.262 3.012,2.02 0.297,1.753 0.449,1.3 3.762,1.152 3.308,-0.152 3.308,-0.606 6.468,-0.305 3.161,0.305 3.012,1.168 3.914,-0.847 0.907,-2.02 0.454,-2.172 0,-3.985 -0.449,-1.812 -1.203,-3.101 -3.16,-2.531 -1.957,0.566 -0.754,-3.207 1.055,-3.207 1.805,0 2.406,-1.512 1.656,-2.266 -0.754,-0.754 -0.754,-1.812 -3.613,-1.058 -2.859,0.758 -5.27,1.359 -4.668,-1.813 0.605,-3.172 -0.449,-6.945 1.656,-7.398 2.106,-0.453 1.504,-0.758 2.258,-2.266 0.754,-1.512 0.902,-2.117 -0.754,-1.965 -1.652,0.153 -1.953,-3.172 -0.148,-1.66 1.804,1.508 2.558,1.961 3.461,0.754 0.902,-1.207 1.191,-3.809 2.777,-1.148 1.586,2.66 0.684,3.867 2.34,3.261 1.656,-0.601 0.453,-0.449 2.859,-0.449 2.406,0 2.86,-1.965 4.063,-1.211 1.207,0.754 1.355,-1.512 3.011,-1.207 1.657,0.301 2.711,1.36 3.762,1.813 1.055,0.453 0.453,-0.301 1.656,-0.907 1.203,-0.605 0.301,0 1.653,0.606 1.355,0.601 0.754,-1.211 2.261,-1.512 1.504,-0.301 1.504,-0.453 2.106,1.059 0.601,1.508 2.41,1.508 3.012,0.453 0.601,-1.059 -0.602,-2.649 1.351,-3.063 1.957,-0.414 0.903,-1.097 2.559,0 1.656,1.098 1.508,0.946 2.859,0.493 l 1.356,-0.454 0,1.059 c -0.301,2.266 -0.301,7.703 0,9.363 0.3,1.66 0.902,2.871 2.41,5.739 1.504,2.871 1.203,3.019 1.504,6.496 0.3,3.472 0.75,6.195 0,12.382 -0.754,6.192 -1.657,12.672 -1.055,16.379 0.602,3.707 0.453,13.075 -0.301,16.696 -0.754,3.625 -1.804,6.043 -1.203,8.308 0.602,2.266 -0.449,3.473 -1.355,5.891 -0.903,2.418 -0.45,1.66 0,5.285 0.449,3.625 1.355,4.231 0,6.195 -1.352,1.961 -1.352,0.754 -2.411,4.832 -1.05,4.079 -2.855,6.039 -1.351,9.063 0.41,0.824 0.824,1.57 1.25,2.234 -2.453,1.84 -2.453,4.66 -6.969,1.063 -4.515,-3.602 -17.16,-12.074 -18.664,-13.727 -1.504,-1.656 -2.559,-1.656 -4.062,-1.199 -1.504,0.449 -3.012,0.301 -4.063,2.113 -1.055,1.813 -4.383,4.473 -6.406,6.09 0,0 -1.656,1.313 -2.102,2.156 l 0.215,-0.328 c -1.808,0.305 -4.199,-0.215 -4.652,-1.426 -0.449,-1.207 0.453,-1.66 -0.602,-1.507 -1.054,0.148 -2.406,2.715 -3.308,3.32 -0.907,0.605 -2.411,-0.453 -5.118,-0.754 -2.711,-0.301 -2.257,-1.207 -2.41,-2.566 -0.152,-1.36 -1.203,-0.907 -2.765,-1.36 -1.559,-0.453 -0.246,-1.359 -0.094,-2.117 0.148,-0.754 0.301,-1.055 -1.047,-1.512 -1.352,-0.449 -0.156,-2.261 -0.008,-3.015 0.153,-0.758 -3.008,-1.817 -4.625,-1.922"
           id="path3118"
           style="fill:#e6e7e8;fill-opacity:1;fill-rule:nonzero;stroke:#6d6e71;stroke-width:0.45232001;stroke-linecap:butt;stroke-linejoin:miter;stroke-miterlimit:4;stroke-opacity:1;stroke-dasharray:none"
           inkscape:connector-curvature="0" /></g><path
         d="m 349.086,261.169 0,3.375 2.043,0 0,-0.57 -1.492,0 0,-0.75 1.386,0 0,-0.566 -1.386,0 0,-0.914 1.543,0 0,-0.575 -2.094,0 z"
         id="path3120"
         style="fill:#6d6e71;fill-opacity:1;fill-rule:nonzero;stroke:none"
         inkscape:connector-curvature="0" /><path
         d="m 351.652,261.169 0,3.375 0.551,0 0,-1.328 1.098,0 0,1.328 0.554,0 0,-3.375 -0.554,0 0,1.477 -1.098,0 0,-1.477 -0.551,0 z"
         id="path3122"
         style="fill:#6d6e71;fill-opacity:1;fill-rule:nonzero;stroke:none"
         inkscape:connector-curvature="0" /><path
         d="m 354.445,261.169 0,3.348 0.555,0 0,-2.773 1.383,0 0,-0.575 -1.938,0 z"
         id="path3124"
         style="fill:#6d6e71;fill-opacity:1;fill-rule:nonzero;stroke:none"
         inkscape:connector-curvature="0" /><path
         d="m 359.266,261.169 -0.602,0 -0.242,0.766 -1.102,0 -0.226,-0.766 -0.594,0 1.074,3.375 0.59,0 1.102,-3.375 z m -1.02,1.336 -0.383,1.254 -0.371,-1.254 0.754,0 z"
         id="path3126"
         style="fill:#6d6e71;fill-opacity:1;fill-rule:nonzero;stroke:none"
         inkscape:connector-curvature="0" /><path
         d="m 359.566,261.169 0,3.375 0.543,0 1.125,-2.254 0,2.254 0.52,0 0,-3.375 -0.559,0 -1.109,2.203 0,-2.203 -0.52,0 z"
         id="path3128"
         style="fill:#6d6e71;fill-opacity:1;fill-rule:nonzero;stroke:none"
         inkscape:connector-curvature="0" /><path
         d="m 362.102,261.169 0,0.618 1.445,2.187 -1.281,0 0,0.57 2.015,0 0,-0.527 -1.511,-2.273 1.57,0 0,-0.575 -2.238,0 z"
         id="path3130"
         style="fill:#6d6e71;fill-opacity:1;fill-rule:nonzero;stroke:none"
         inkscape:connector-curvature="0" /><path
         d="m 364.695,261.169 0,3.375 2.043,0 0,-0.57 -1.488,0 0,-0.75 1.383,0 0,-0.566 -1.383,0 0,-0.914 1.539,0 0,-0.575 -2.094,0 z"
         id="path3132"
         style="fill:#6d6e71;fill-opacity:1;fill-rule:nonzero;stroke:none"
         inkscape:connector-curvature="0" /><path
         d="m 367.266,261.169 0,3.375 0.539,0 1.133,-2.254 0,2.254 0.515,0 0,-3.375 -0.558,0 -1.11,2.203 0,-2.203 -0.519,0 z"
         id="path3134"
         style="fill:#6d6e71;fill-opacity:1;fill-rule:nonzero;stroke:none"
         inkscape:connector-curvature="0" /><path
         d="m 370.023,264.544 0.551,0 0,-3.375 -0.551,0 0,3.375 z"
         id="path3136"
         style="fill:#6d6e71;fill-opacity:1;fill-rule:nonzero;stroke:none"
         inkscape:connector-curvature="0" /></g></g></svg>