<?xml version="1.0" encoding="UTF-8" standalone="no"?>
<!-- Created with Inkscape (http://www.inkscape.org/) -->

<svg
   xmlns:dc="http://purl.org/dc/elements/1.1/"
   xmlns:cc="http://creativecommons.org/ns#"
   xmlns:rdf="http://www.w3.org/1999/02/22-rdf-syntax-ns#"
   xmlns:svg="http://www.w3.org/2000/svg"
   xmlns="http://www.w3.org/2000/svg"
   version="1.1"
   width="15.48875"
   height="11.07"
   id="svg9456">
  <defs
     id="defs9458">
    <clipPath
       id="clipPath762">
      <path
         d="M 0,841.89 595.28,841.89 595.28,0 0,0 0,841.89 Z"
         id="path764" />
    </clipPath>
  </defs>
  <metadata
     id="metadata9461">
    <rdf:RDF>
      <cc:Work
         rdf:about="">
        <dc:format>image/svg+xml</dc:format>
        <dc:type
           rdf:resource="http://purl.org/dc/dcmitype/StillImage" />
        <dc:title></dc:title>
      </cc:Work>
    </rdf:RDF>
  </metadata>
  <g
     transform="translate(39.172946,-689.68432)"
     id="layer1">
    <g
       transform="matrix(1.25,0,0,-1.25,-73.280571,1575.5437)"
       id="g758">
      <g
         clip-path="url(#clipPath762)"
         id="g760">
        <g
           transform="translate(29.9863,704.9902)"
           id="g766">
          <path
             d="M 0,0 C -0.237,0 -0.429,-0.209 -0.429,-0.465 -0.429,-0.723 -0.237,-0.932 0,-0.932 0.235,-0.932 0.428,-0.723 0.428,-0.465 0.428,-0.209 0.235,0 0,0"
             id="path768"
             style="fill:#4f4c4d;fill-opacity:1;fill-rule:nonzero;stroke:none" />
        </g>
        <g
           transform="translate(33.5791,706.2114)"
           id="g770">
          <path
             d="M 0,0 C 0.236,0 0.428,0.209 0.428,0.466 0.428,0.724 0.236,0.932 0,0.932 -0.237,0.932 -0.43,0.724 -0.43,0.466 -0.43,0.209 -0.237,0 0,0"
             id="path772"
             style="fill:#4f4c4d;fill-opacity:1;fill-rule:nonzero;stroke:none" />
        </g>
        <g
           transform="translate(31.5537,706.6421)"
           id="g774">
          <path
             d="M 0,0 C -0.236,0 -0.428,-0.208 -0.428,-0.465 -0.428,-0.723 -0.236,-0.932 0,-0.932 0.238,-0.932 0.429,-0.723 0.429,-0.465 0.429,-0.208 0.238,0 0,0"
             id="path776"
             style="fill:#4f4c4d;fill-opacity:1;fill-rule:nonzero;stroke:none" />
        </g>
        <g
           transform="translate(29.3438,702.7373)"
           id="g778">
          <path
             d="M 0,0 C -0.237,0 -0.43,-0.209 -0.43,-0.466 -0.43,-0.724 -0.237,-0.932 0,-0.932 0.236,-0.932 0.427,-0.724 0.427,-0.466 0.427,-0.209 0.236,0 0,0"
             id="path780"
             style="fill:#4f4c4d;fill-opacity:1;fill-rule:nonzero;stroke:none" />
        </g>
        <g
           transform="translate(37.1016,702.271)"
           id="g782">
          <path
             d="M 0,0 C 0,-0.257 0.191,-0.466 0.428,-0.466 0.666,-0.466 0.856,-0.257 0.856,0 0.856,0.257 0.666,0.466 0.428,0.466 0.191,0.466 0,0.257 0,0"
             id="path784"
             style="fill:#4f4c4d;fill-opacity:1;fill-rule:nonzero;stroke:none" />
        </g>
        <g
           transform="translate(38.9561,701.1855)"
           id="g786">
          <path
             d="M 0,0 C -0.064,-0.327 -0.393,-0.613 -0.7,-0.613 L -10.251,-0.613 C -10.559,-0.613 -10.887,-0.327 -10.951,-0.002 -10.951,-0.001 -10.991,0.221 -10.991,0.763 -10.991,4.071 -8.517,6.761 -5.477,6.761 -2.434,6.761 0.039,4.071 0.039,0.763 0.039,0.223 0,0 0,0 M -5.477,7.502 C -8.891,7.502 -11.67,4.479 -11.67,0.763 -11.67,0.136 -11.621,-0.129 -11.617,-0.158 -11.482,-0.828 -10.882,-1.354 -10.251,-1.354 L -0.7,-1.354 C -0.068,-1.354 0.532,-0.828 0.666,-0.158 0.672,-0.129 0.721,0.136 0.721,0.763 0.721,4.479 -2.059,7.502 -5.477,7.502"
             id="path788"
             style="fill:#4f4c4d;fill-opacity:1;fill-rule:nonzero;stroke:none" />
        </g>
        <g
           transform="translate(37.417,704.5249)"
           id="g790">
          <path
             d="M 0,0 C 0,0.256 -0.189,0.465 -0.429,0.465 -0.665,0.465 -0.856,0.256 -0.856,0 -0.856,-0.258 -0.665,-0.466 -0.429,-0.466 -0.189,-0.466 0,-0.258 0,0"
             id="path792"
             style="fill:#4f4c4d;fill-opacity:1;fill-rule:nonzero;stroke:none" />
        </g>
        <g
           transform="translate(33.3428,701.9126)"
           id="g794">
          <path
             d="M 0,0 C -0.246,0 -0.446,0.217 -0.446,0.486 -0.446,0.753 -0.246,0.971 0,0.971 0.247,0.971 0.447,0.753 0.447,0.486 0.447,0.217 0.247,0 0,0 M 2.048,4.552 C 1.957,4.552 1.891,4.515 1.828,4.456 L -0.919,1.28 C -1.076,1.059 -1.175,0.786 -1.175,0.486 -1.175,-0.22 -0.647,-0.793 0,-0.793 0.389,-0.793 0.732,-0.584 0.946,-0.267 1.264,0.077 2.377,4.006 2.396,4.091 2.465,4.395 2.249,4.552 2.048,4.552"
             id="path796"
             style="fill:#4f4c4d;fill-opacity:1;fill-rule:nonzero;stroke:none" />
        </g>
      </g>
    </g>
  </g>
</svg>
