<?xml version="1.0" encoding="UTF-8" standalone="no"?>
<!-- Created with Inkscape (http://www.inkscape.org/) -->

<svg
   xmlns:dc="http://purl.org/dc/elements/1.1/"
   xmlns:cc="http://creativecommons.org/ns#"
   xmlns:rdf="http://www.w3.org/1999/02/22-rdf-syntax-ns#"
   xmlns:svg="http://www.w3.org/2000/svg"
   xmlns="http://www.w3.org/2000/svg"
   xmlns:sodipodi="http://sodipodi.sourceforge.net/DTD/sodipodi-0.dtd"
   xmlns:inkscape="http://www.inkscape.org/namespaces/inkscape"
   height="50.000233"
   width="37.77"
   version="1.1"
   id="svg7281"
   inkscape:version="0.48+devel r11876"
   sodipodi:docname="icon-jobs.svg">
  <defs
     id="defs7293" />
  <sodipodi:namedview
     pagecolor="#ffffff"
     bordercolor="#666666"
     borderopacity="1"
     objecttolerance="10"
     gridtolerance="10"
     guidetolerance="10"
     inkscape:pageopacity="0"
     inkscape:pageshadow="2"
     inkscape:window-width="1198"
     inkscape:window-height="948"
     id="namedview7291"
     showgrid="false"
     fit-margin-top="0"
     fit-margin-left="0"
     fit-margin-right="0"
     fit-margin-bottom="0"
     inkscape:zoom="15.424836"
     inkscape:cx="31.265016"
     inkscape:cy="25.326953"
     inkscape:window-x="0"
     inkscape:window-y="19"
     inkscape:window-maximized="0"
     inkscape:current-layer="svg7281" />
  <metadata
     id="metadata7283">
    <rdf:RDF>
      <cc:Work
         rdf:about="">
        <dc:format>image/svg+xml</dc:format>
        <dc:type
           rdf:resource="http://purl.org/dc/dcmitype/StillImage" />
        <dc:title></dc:title>
      </cc:Work>
    </rdf:RDF>
  </metadata>
  <g
     transform="matrix(3.269859,0,0,3.269859,3466.2678,1440.9247)"
     id="g7285">
    <g
       transform="matrix(1.25,0,0,-1.25,-1060,-433)"
       id="g7287">
      <path
         d="M 0,0 C -0.026,0.039 -0.042,0.091 -0.05,0.156 -0.059,0.452 -0.049,0.743 -0.017,1.05 0.047,1.68 0.32,1.48 0.334,1.8 0.45,3.17 1.23,4.36 2.284,5.09 2.594,3.14 3.194,1.62 3.194,1.62 3.004,3.06 2.754,4.32 2.724,5.28 2.714,5.44 2.754,5.71 2.924,5.79 3.974,6.25 5.164,6.25 6.214,5.79 6.384,5.71 6.414,5.44 6.414,5.28 6.384,4.32 6.124,3.06 5.944,1.62 5.944,1.62 6.544,3.14 6.854,5.09 7.904,4.36 8.684,3.17 8.794,1.8 8.814,1.48 9.084,1.68 9.144,1.05 9.184,0.743 9.194,0.452 9.184,0.156 9.174,0.091 9.154,0.039 9.134,0 L 8.004,0 C 7.934,0 7.884,-0.023 7.864,-0.068 7.804,-0.168 7.734,-0.288 7.634,-0.288 L 1.504,-0.288 C 1.404,-0.288 1.324,-0.168 1.274,-0.068 1.244,-0.023 1.204,0 1.134,0 L 0.004,0 Z M 5.62,-5.87 C 6.93,-5.31 7.67,-4.15 8,-2.82 8.56,-2.5 8.77,-1.53 8.83,-0.98 8.84,-0.836 8.85,-0.652 8.85,-0.456 L 8.14,-0.456 C 8.14,-0.584 8.13,-0.719 8.12,-0.859 8.04,-1.61 7.77,-2.219 7.51,-2.219 7.44,-2.219 7.4,-2.249 7.39,-2.319 7.09,-3.699 6.41,-4.689 5.36,-5.139 4.83,-5.359 4.22,-5.359 3.7,-5.139 2.65,-4.689 1.97,-3.699 1.67,-2.319 1.65,-2.249 1.61,-2.219 1.55,-2.219 1.29,-2.219 1.02,-1.609 0.94,-0.859 0.927,-0.718 0.92,-0.583 0.92,-0.455 L 0.209,-0.455 C 0.204,-0.651 0.216,-0.835 0.23,-0.983 0.288,-1.529 0.497,-2.503 1.05,-2.823 1.39,-4.153 2.13,-5.313 3.44,-5.873 4.13,-6.173 4.93,-6.173 5.62,-5.873"
         id="path7289"
         inkscape:connector-curvature="0"
	 fill="#4C4C4C" />
    </g>
  </g>
</svg>
