<?xml version="1.0" encoding="UTF-8" standalone="no"?>
<!-- Created with Inkscape (http://www.inkscape.org/) -->

<svg
   xmlns:dc="http://purl.org/dc/elements/1.1/"
   xmlns:cc="http://creativecommons.org/ns#"
   xmlns:rdf="http://www.w3.org/1999/02/22-rdf-syntax-ns#"
   xmlns:svg="http://www.w3.org/2000/svg"
   xmlns="http://www.w3.org/2000/svg"
   version="1.1"
   width="15.23375"
   height="12.17"
   id="svg12103">
  <defs
     id="defs12105" />
  <metadata
     id="metadata12108">
    <rdf:RDF>
      <cc:Work
         rdf:about="">
        <dc:format>image/svg+xml</dc:format>
        <dc:type
           rdf:resource="http://purl.org/dc/dcmitype/StillImage" />
        <dc:title></dc:title>
      </cc:Work>
    </rdf:RDF>
  </metadata>
  <g
     transform="translate(-367.38313,-526.27718)"
     id="layer1">
    <g
       transform="matrix(1.25,0,0,-1.25,377.82926,534.02093)"
       id="g4683">
      <path
         d="M 0,0 0,-2.702"
         id="path4685"
         style="fill:none;stroke:#ffffff;stroke-width:1.09399998;stroke-linecap:square;stroke-linejoin:round;stroke-miterlimit:4;stroke-opacity:1;stroke-dasharray:none" />
    </g>
    <g
       transform="matrix(1.25,0,0,-1.25,376.32901,534.45981)"
       id="g4687">
      <path
         d="M 0,0 1.2,2.078 2.4,0 0,0 z"
         id="path4689"
         style="fill:#ffffff;fill-opacity:1;fill-rule:nonzero;stroke:none" />
    </g>
    <g
       transform="matrix(1.25,0,0,-1.25,380.52213,536.22368)"
       id="g4691">
      <path
         d="M 0,0 0,2.702"
         id="path4693"
         style="fill:none;stroke:#ffffff;stroke-width:1.09399998;stroke-linecap:square;stroke-linejoin:round;stroke-miterlimit:4;stroke-opacity:1;stroke-dasharray:none" />
    </g>
    <g
       transform="matrix(1.25,0,0,-1.25,382.02239,535.78493)"
       id="g4695">
      <path
         d="M 0,0 -1.2,-2.078 -2.4,0 0,0 z"
         id="path4697"
         style="fill:#ffffff;fill-opacity:1;fill-rule:nonzero;stroke:none" />
    </g>
    <g
       transform="matrix(1.25,0,0,-1.25,369.07563,531.44468)"
       id="g4699">
      <path
         d="m 0,0 0,-4.529 c 0,-0.354 -0.124,-0.427 -0.274,-0.417 -0.241,0.022 -0.433,0.218 -0.433,0.465 l 0,7.495 c 0,0.26 0.212,0.472 0.472,0.472 l 3.143,0 c 0.413,0 0.75,-0.277 1.051,-0.522 C 4.215,2.756 4.457,2.559 4.786,2.559 l 2.945,0 c 0.26,0 0.471,-0.211 0.471,-0.472 l 0,-0.172 -2.674,0 C 4.943,1.915 4.442,1.12 4.224,1.12 l -3.104,0 C 0.505,1.12 0,0.618 0,0 m 4.739,-1.387 c 0,1.37 0.395,1.984 2.008,1.984 l 4.086,0 0,0.198 c 0,0.617 -0.502,1.12 -1.121,1.12 l -0.861,0 0,0.172 c 0,0.618 -0.502,1.12 -1.12,1.12 l -2.945,0 c -0.285,0 -0.89,0.927 -1.878,0.927 l -3.143,0 c -0.617,0 -1.119,-0.503 -1.119,-1.12 l 0,-7.495 c 0,-0.608 0.487,-1.102 1.09,-1.118 0.005,-10e-4 0.009,-0.002 0.013,-0.003 l 4.99,0 0,4.215 z"
         id="path4701"
         style="fill:#ffffff;fill-opacity:1;fill-rule:nonzero;stroke:none" />
    </g>
  </g>
</svg>
