<?xml version="1.0" encoding="UTF-8" standalone="no"?>
<!-- Created with Inkscape (http://www.inkscape.org/) -->

<svg
   xmlns:dc="http://purl.org/dc/elements/1.1/"
   xmlns:cc="http://creativecommons.org/ns#"
   xmlns:rdf="http://www.w3.org/1999/02/22-rdf-syntax-ns#"
   xmlns:svg="http://www.w3.org/2000/svg"
   xmlns="http://www.w3.org/2000/svg"
   version="1.1"
   width="841.89099"
   height="595.28003"
   viewBox="0 0 841.891 595.28"
   id="Layer_1"
   xml:space="preserve"><metadata
     id="metadata375"><rdf:RDF><cc:Work
         rdf:about=""><dc:format>image/svg+xml</dc:format><dc:type
           rdf:resource="http://purl.org/dc/dcmitype/StillImage" /><dc:title></dc:title></cc:Work></rdf:RDF></metadata><defs
     id="defs373" /><path
     d="m 483.787,409.744 c -4.326,-0.944 -8.465,-2.455 -9.404,-4.909 -0.941,-2.453 -1.883,-3.775 -3.951,-6.23 -2.068,-2.454 -3.199,-3.02 -4.893,-5.285 -1.694,-2.265 -0.188,-2.455 1.129,-3.587 1.316,-1.133 1.316,-3.399 -0.752,-4.531 -2.07,-1.133 -2.82,-2.832 -3.576,-5.161 -0.752,-2.326 -1.127,-1.824 -3.385,0 -2.26,1.826 -2.635,1.574 -3.035,0 -0.4,-1.571 0.213,-7.676 0.025,-10.697 -0.188,-3.021 0.75,-11.139 1.691,-15.292 0.941,-4.153 2.07,-3.399 4.141,-5.853 2.068,-2.453 1.318,-3.021 3.762,-4.862 2.445,-1.842 3.574,-2.878 4.703,-5.331 1.129,-2.455 8.092,-14.537 8.844,-16.991 0.752,-2.454 1.316,-3.588 3.846,-5.604 2.529,-2.018 6.689,-5.346 8.006,-7.612 1.316,-2.265 3.199,-2.075 5.08,-2.642 1.881,-0.567 3.197,-0.567 5.078,1.5 1.881,2.067 17.686,12.658 23.328,17.158 5.645,4.5 5.645,0.975 8.713,-1.329 v 0.003 c -0.533,-0.83 -1.049,-1.765 -1.562,-2.796 -1.881,-3.776 0.377,-6.23 1.691,-11.327 1.318,-5.098 1.318,-3.587 3.012,-6.041 1.693,-2.455 0.562,-3.21 0,-7.741 -0.564,-4.531 -1.129,-3.587 0,-6.608 1.129,-3.02 2.445,-4.53 1.693,-7.362 -0.754,-2.832 0.562,-5.853 1.504,-10.384 0.941,-4.531 1.129,-16.235 0.377,-20.87 -0.754,-4.635 0.377,-12.734 1.316,-20.473 0.939,-7.739 0.377,-11.141 0,-15.482 -0.375,-4.343 0,-4.531 -1.879,-8.118 -1.883,-3.586 -2.635,-5.097 -3.012,-7.174 -0.377,-2.077 -0.377,-8.873 0,-11.705 v -1.321 c 0,0 0,0 -1.693,0.565 -1.691,0.567 -1.504,0.756 -3.574,-0.615 -2.07,-1.371 -0.752,-0.517 -3.199,0 -2.445,0.517 -0.941,2.504 -1.691,3.826 -0.754,1.321 -3.01,1.321 -3.762,-0.566 -0.754,-1.888 -0.754,-1.7 -2.635,-1.322 -1.883,0.377 -1.131,2.643 -2.824,1.888 -1.691,-0.755 -0.564,-1.511 -2.068,-0.756 -1.506,0.756 -0.752,1.7 -2.07,1.133 -1.314,-0.566 -2.633,-1.888 -4.703,-2.266 -2.068,-0.377 -2.256,2.455 -3.762,1.51 -1.506,-0.943 -2.07,1.512 -5.08,1.512 -3.008,0 -1.504,-0.189 -3.574,0.565 -2.068,0.755 -0.941,-0.755 -2.924,-4.08 -1.983,-3.325 -2.344,-0.074 -3.473,1.437 -1.129,1.51 -2.07,0.943 -4.326,-0.944 -2.258,-1.888 -1.881,2.266 0.188,2.077 2.069,-0.189 1.881,0.566 0.941,2.455 -0.941,1.887 -0.189,2.265 -2.822,2.832 -2.633,0.566 -1.316,5.286 -2.07,9.25 -0.752,3.964 2.258,3.209 5.832,2.266 3.574,-0.943 3.576,0.378 4.516,1.321 0.939,0.944 0.188,2.832 -2.07,2.832 -2.258,0 -3.762,4.72 -1.316,4.008 2.445,-0.711 3.387,0.9 3.951,3.166 0.564,2.266 1.129,2.454 0,4.979 -1.129,2.524 -0.941,1.44 -4.893,1.063 -3.949,-0.378 -3.949,0.188 -8.088,0.377 -4.141,0.188 -4.328,0.755 -4.703,-1.44 -0.379,-2.196 -1.508,-3.09 -3.764,-2.524 -2.258,0.567 -4.891,-0.943 -8.09,-4.531 -3.199,-3.587 -2.445,2.455 -2.445,7.055 0,4.6 -1.506,1.063 -2.07,2.265 -0.562,1.203 -0.562,2.385 0.564,4.839 1.129,2.454 0.564,2.266 -1.691,2.832 -2.258,0.566 -1.129,1.133 -3.389,1.699 -2.256,0.567 0.189,1.699 0.941,3.965 0.754,2.266 -0.377,1.321 -1.316,3.398 -0.941,2.076 -0.939,1.132 -3.336,2.056 -2.396,0.922 -0.238,2.097 -2.496,1.343 -2.258,-0.756 -2.635,0.565 -3.199,2.454 -0.564,1.888 -0.752,1.132 -2.258,-1.133 -1.504,-2.266 -1.504,-2.076 -2.445,-4.342 -0.939,-2.265 -1.316,-0.377 -3.01,0.19 -1.693,0.565 -1.316,0.565 -3.951,1.489 -2.633,0.922 -1.881,-1.301 -4.703,-3.167 -2.822,-1.867 -2.445,-0.588 -3.574,1.489 -1.129,2.077 -1.316,6.23 -0.375,7.826 0.939,1.596 2.633,4.823 0,3.691 -2.634,-1.133 -2.446,1.132 -2.823,2.972 -0.375,1.841 0,2.879 -1.504,2.879 -1.504,0 -2.635,-0.565 -4.139,-2.879 -1.504,-2.312 -1.318,-0.33 -3.34,0 -2.021,0.331 -0.611,1.937 -0.234,4.768 0.375,2.832 0.375,5.285 -0.564,7.362 -0.941,2.077 0.188,3.965 -0.941,5.325 -0.564,-0.81 -2.258,-0.181 -3.809,-0.605 -1.555,-0.425 -2.682,-0.142 -2.682,0.605 0,0.747 0,1.66 -1.693,2.368 -1.691,0.708 -1.553,-0.849 -2.398,-1.274 -0.848,-0.425 -1.975,0.283 -2.682,1.133 -0.705,0.849 -0.141,1.273 -1.129,1.273 -0.988,0 -2.115,-0.708 -3.527,-1.273 -1.41,-0.567 -2.82,-0.85 -3.67,-0.142 -0.846,0.708 -2.678,1.416 -3.666,0.708 -0.99,-0.708 -3.105,0.143 -4.094,0.771 -0.986,0.629 -1.975,0.788 -2.963,0 -0.988,-0.787 -3.244,-0.487 -4.797,-0.062 -1.551,0.425 -3.951,-1.416 -4.939,-2.832 -0.986,-1.416 -2.963,-0.565 -3.809,-0.668 -0.848,-0.102 -1.129,1.943 -2.682,2.509 -1.551,0.566 -1.693,0.566 -1.832,-0.99 -0.143,-1.559 -0.566,-1.7 -1.67,-0.851 -1.104,0.851 -1.012,-1.416 -0.309,-3.397 0.707,-1.983 0.143,-2.408 -1.127,-1.416 -1.27,0.99 -3.387,1.132 -3.246,0 0.143,-1.133 -0.848,-2.626 -0.848,-2.626 0,0 -2.539,-0.772 -2.539,-1.956 0,-1.184 0.424,-2.073 0.566,-3.631 0.139,-1.558 -0.143,-4.248 0.705,-3.822 0.846,0.424 2.258,0.141 2.822,-1.275 0.562,-1.416 1.693,0 1.41,-1.063 -0.283,-1.064 -2.117,-0.918 -2.117,-2.193 0,-1.275 -1.41,-1.132 -2.963,-1.7 -1.551,-0.566 -2.822,0.567 -3.809,0.85 -0.988,0.283 -0.848,-0.85 -2.311,-3.54 -1.463,-2.69 -1.641,-0.283 -2.064,-1.133 -0.422,-0.85 -1.129,-2.832 -0.422,-4.032 0.703,-1.202 2.963,-0.499 2.398,-2.056 -0.566,-1.558 -1.834,-0.566 -3.387,0 -1.553,0.567 -1.836,1.274 -2.539,0 -0.707,-1.274 -2.963,-0.425 -4.094,-0.992 -1.127,-0.565 -2.258,0.992 -3.104,2.125 -0.848,1.133 -1.41,1.558 -3.418,1.982 -2.008,0.424 -3.355,1.132 -4.342,1.982 0,0 -0.426,1.274 0.422,2.549 0.846,1.273 1.131,1.416 -0.564,1.84 -1.691,0.424 -3.385,0.849 -6.49,1.133 -3.104,0.283 -2.115,0.708 -1.27,2.266 0.848,1.557 -0.705,1.416 -2.258,0.918 -1.551,-0.498 -2.115,0.497 -3.244,1.487 -1.129,0.992 -0.424,1.7 0,2.975 0.422,1.274 0.846,1.132 2.398,0.991 1.551,-0.141 1.551,-0.425 2.822,-1.274 1.268,-0.85 2.398,-0.425 2.822,-1.275 0.424,-0.849 0.562,-1.132 1.551,-1.132 0.989,0 2.117,-0.141 3.105,-0.708 0.986,-0.566 1.691,-0.566 1.834,-1.063 0.139,-0.498 1.41,-2.476 1.551,0 0.143,2.475 2.115,0.639 4.232,0 2.117,-0.64 1.834,-0.353 1.977,1.063 0.141,1.417 1.129,1.983 1.975,2.974 0.848,0.99 0.424,2.69 -0.846,2.407 -1.271,-0.283 -1.271,1.416 -1.129,2.69 0.141,1.274 0,1.982 -1.834,2.214 -1.836,0.232 -1.693,0.618 -3.809,1.609 -2.117,0.991 -3.105,1.557 -2.541,2.689 0.562,1.133 0.705,2.549 -0.141,2.872 -0.848,0.323 -0.848,1.943 -0.564,4.351 0.281,2.406 0.281,3.114 0.281,4.53 0,1.416 0.141,3.965 0.705,6.229 0.566,2.266 1.977,4.531 3.355,4.957 1.377,0.424 0.596,0.283 0.736,-1.132 0.141,-1.417 0.848,-1.841 1.553,-1.841 0.705,0 2.115,0.708 1.27,3.256 -0.845,2.548 1.129,1.982 2.117,1.84 0.988,-0.141 0.846,-1.132 1.977,-1.274 1.127,-0.142 1.127,-0.282 0.422,-1.133 -0.705,-0.849 -0.848,-0.283 -0.422,-1.571 0.422,-1.288 0.562,-0.128 1.834,0.58 1.268,0.708 1.693,0.849 1.693,-0.58 0,-1.429 -0.988,-1.402 -1.693,-3.385 -0.707,-1.982 -0.143,-1.274 -1.271,-1.699 -1.129,-0.425 -1.41,-0.283 -1.41,-1.841 0,-1.557 1.27,-1.557 2.682,-2.973 1.41,-1.416 1.41,0.566 1.551,1.982 0.143,1.416 0.424,1.558 1.553,0.566 1.129,-0.992 0.846,-0.708 1.129,0.849 0.281,1.558 0.988,2.691 2.117,3.115 1.127,0.425 3.244,-0.283 2.961,-1.557 -0.281,-1.275 -2.398,-1.132 -1.834,-1.983 0.564,-0.849 2.117,0.567 1.977,-0.283 -0.143,-0.85 0.562,-1.699 1.412,-1.416 0.846,0.283 1.832,0.85 3.385,-0.425 1.553,-1.273 1.27,-0.283 1.41,1.558 0.143,1.841 -0.846,1.557 -2.398,2.124 -1.551,0.565 -1.129,2.265 -1.27,3.397 -0.143,1.133 1.834,0 1.693,0.851 -0.143,0.849 0.846,1.557 -1.553,2.407 -2.398,0.85 -3.527,0.425 -4.938,1.274 -1.412,0.85 -0.707,1.84 0.281,3.964 0.988,2.124 0,0 0.564,0.85 0.564,0.85 -0.281,1.273 -2.258,3.114 -1.973,1.842 -0.424,1.559 0.283,2.975 0.705,1.415 -0.283,1.699 -0.846,2.973 -0.564,1.274 -1.271,0.85 -2.117,0.143 -0.848,-0.708 -1.693,-0.426 -1.693,0.849 0,1.275 0,1.841 0.141,3.823 0.143,1.982 0.281,1.557 -0.846,3.115 -1.129,1.557 -2.4,0.99 -3.951,0.85 -1.553,-0.143 -1.553,0.99 -1.977,-0.143 -0.422,-1.133 -1.129,-1.699 -2.68,-1.699 -1.553,0 -2.68,0.566 -4.234,-0.283 -1.551,-0.849 -2.82,-0.849 -3.809,0.425 -0.988,1.275 -1.41,1.841 -1.553,3.54 -0.141,1.699 -0.705,1.275 -1.975,0.426 -1.271,-0.85 -1.129,-0.426 -1.834,0.565 -0.705,0.991 -0.986,1.275 -1.977,2.407 -0.988,1.133 -1.551,1.416 0,2.69 1.553,1.274 1.553,2.549 1.693,4.956 0.143,2.406 0.846,1.416 2.4,2.123 1.551,0.708 2.82,0.426 2.963,1.982 0.141,1.558 0,2.832 0.988,2.832 0.984,0 2.256,1.416 3.385,2.69 1.129,1.274 4.375,-0.851 5.926,-1.699 1.553,-0.849 1.811,0.679 2.822,1.982 0.719,0.925 0.854,1.092 0.854,1.092 l -0.387,-0.434 c 0,0 0.299,1.622 0.486,3.367 0.187,1.745 -0.188,2.22 -2.82,2.409 -2.635,0.188 -0.941,1.32 -2.07,2.076 -1.129,0.754 -1.318,1.132 -1.506,3.878 -0.189,2.746 -1.506,0.842 -4.326,0.274 -2.824,-0.564 -3.389,-0.377 -3.389,1.699 0,2.077 -1.879,2.268 -3.574,0 -1.691,-2.264 -3.762,-2.264 -3.385,0 0.377,2.268 -0.564,2.455 -1.318,3.965 -0.752,1.512 -1.129,0.944 -2.07,3.529 -0.939,2.582 -1.316,0.246 -3.01,0.058 -1.691,-0.188 -1.129,0 -2.633,1.7 -1.504,1.699 0,3.02 0.752,4.908 0.754,1.889 -1.881,1.699 -4.326,1.51 -2.445,-0.189 -1.129,1.322 -1.318,4.332 -0.186,3.01 0.189,2.464 -3.197,3.184 l -0.445,-0.104 c 1.045,1.635 1.986,1.509 3.303,2.893 1.318,1.386 0.939,1.197 3.574,1.007 2.633,-0.188 1.881,-0.377 3.01,1.7 1.131,2.076 1.039,1.51 3.061,1.132 2.022,-0.378 3.338,-0.565 3.525,1.134 0.188,1.698 -0.941,1.133 0,3.209 0.939,2.076 0.939,1.511 3.387,0 2.445,-1.511 0.752,-0.566 2.445,-3.021 1.691,-2.454 1.881,-3.49 3.951,-1.839 2.068,1.65 1.691,1.271 4.139,2.406 2.445,1.132 2.822,-0.379 4.139,1.32 1.317,1.699 -1.129,1.764 1.127,2.486 2.258,0.723 4.412,1.542 3.994,0 -0.418,-1.543 -0.982,-1.92 1.65,-2.486 2.635,-0.566 1.883,-2.076 3.951,-1.133 2.07,0.944 3.574,-0.188 4.328,2.266 0.752,2.455 0,2.076 1.129,4.152 1.127,2.077 1.879,2.267 2.443,4.531 0.566,2.267 -0.186,0.189 2.26,0 2.443,-0.188 4.891,0.567 5.268,2.267 0.375,1.698 1.316,0.942 3.762,1.698 2.447,0.755 1.506,1.889 1.316,3.587 -0.188,1.699 -0.375,-0.755 1.693,0 2.07,0.756 2.258,-1.228 4.516,0.614 2.26,1.841 2.445,3.162 3.197,5.049 0.754,1.889 0.564,2.645 2.447,3.777 1.883,1.132 2.635,0.377 2.445,2.453 -0.188,2.078 -0.188,1.699 1.131,3.398 1.314,1.698 -0.521,2.266 2.654,3.398 3.176,1.132 2.613,0.566 4.682,0 2.069,-0.566 -1.129,-0.566 0,-2.266 1.129,-1.7 1.129,-4.153 3.01,-2.453 1.881,1.699 2.445,2.643 3.764,0.943 1.314,-1.699 0.75,-3.965 2.633,-3.775 1.881,0.188 4.326,0.377 4.516,-1.133 0.188,-1.512 2.258,-1.889 4.139,0.188 1.881,2.077 3.387,3.021 4.703,1.512 1.316,-1.512 2.445,-1.889 3.762,0.377 1.318,2.266 1.883,1.32 3.01,-0.377 1.129,-1.699 0.176,-3.021 3.191,-1.134 3.02,1.888 3.205,1.134 3.77,-0.755 0.565,-1.887 0.377,-3.965 2.634,-3.02 2.258,0.942 2.633,-0.379 2.822,-1.322 0.188,-0.944 2.07,-2.076 3.574,-0.756 1.506,1.322 0.564,0.566 0.939,2.644 0.377,2.077 -0.186,2.454 2.07,1.699 2.258,-0.755 2.258,-0.378 4.516,0 2.258,0.378 3.385,-0.755 5.455,-1.511 2.07,-0.754 5.557,-1.887 6.26,-0.566 0.703,1.322 1.641,1.322 3.148,1.889 1.504,0.566 1.316,-0.189 2.445,1.32 1.129,1.512 1.881,1.512 2.256,0.189 0.377,-1.321 2.07,-1.699 3.199,-1.321 1.127,0.378 1.318,0.378 1.506,1.888 0.188,1.51 0.051,1.699 2.094,1.699 2.045,0 5.807,-0.377 6.936,-1.133 1.129,-0.756 1.504,-1.512 3.012,0.377 1.504,1.889 2.256,2.455 3.574,0.566 1.316,-1.888 2.256,-4.72 4.139,-5.285 1.881,-0.566 0,-1.888 0,-1.888"
     id="district-gert-sibande"
     style="fill:#e6e7e8;stroke:#6d6e71;stroke-width:0.75" /><path
     d="m 323.454,246.253 c 0.986,-0.85 2.334,-1.558 4.342,-1.982 2.008,-0.424 2.57,-0.849 3.418,-1.982 0.846,-1.132 1.977,-2.69 3.104,-2.125 1.131,0.567 3.387,-0.282 4.094,0.992 0.703,1.274 0.986,0.567 2.539,0 1.553,-0.566 2.82,-1.558 3.387,0 0.564,1.557 -1.695,0.854 -2.398,2.056 -0.707,1.2 0,3.183 0.422,4.032 0.424,0.85 0.602,-1.557 2.064,1.133 1.462,2.69 1.322,3.823 2.311,3.54 0.986,-0.283 2.258,-1.416 3.809,-0.85 1.553,0.567 2.963,0.424 2.963,1.7 0,1.274 1.834,1.128 2.117,2.193 0.283,1.063 -0.848,-0.353 -1.41,1.063 -0.564,1.417 -1.977,1.7 -2.822,1.275 -0.848,-0.425 -0.566,2.265 -0.705,3.822 -0.143,1.558 -0.566,2.447 -0.566,3.631 0,1.184 2.539,1.956 2.539,1.956 0,0 0.99,1.493 0.848,2.626 -0.141,1.132 1.977,0.99 3.246,0 1.27,-0.992 1.834,-0.567 1.127,1.416 -0.703,1.981 -0.795,4.248 0.309,3.397 1.104,-0.849 1.527,-0.708 1.67,0.851 0.139,1.557 0.281,1.557 1.832,0.99 1.553,-0.566 1.834,-2.611 2.682,-2.509 0.846,0.103 2.822,-0.748 3.809,0.668 0.988,1.417 3.389,3.257 4.939,2.832 1.553,-0.424 3.809,-0.725 4.797,0.062 0.988,0.788 1.977,0.629 2.963,0 0.988,-0.628 3.104,-1.478 4.094,-0.771 0.988,0.708 2.82,0 3.666,-0.708 0.85,-0.708 2.26,-0.425 3.67,0.142 1.412,0.565 2.539,1.273 3.527,1.273 0.988,0 0.424,-0.424 1.129,-1.273 0.707,-0.85 1.834,-1.559 2.682,-1.133 0.846,0.426 0.707,1.982 2.398,1.274 1.693,-0.708 1.693,-1.62 1.693,-2.368 0,-0.748 1.127,-1.03 2.682,-0.605 1.551,0.425 3.244,-0.204 3.809,0.605 0.564,0.811 0,1.235 0.846,1.66 0.848,0.425 1.553,0.708 2.117,-0.424 0.564,-1.133 0.988,-1.983 2.117,-2.974 1.129,-0.99 1.066,-1.557 2.438,-2.549 1.373,-0.99 0.666,-1.943 1.09,-2.883 0.422,-0.939 0.141,0.051 1.27,1.042 1.129,0.991 2.397,1.84 2.962,3.116 0.564,1.273 -0.422,1.636 0,3.012 0.424,1.376 0.564,1.943 1.975,1.943 1.414,0 1.553,0.764 1.27,2.152 -0.281,1.387 -1.551,2.379 -0.988,3.652 0.566,1.275 1.271,2.787 2.4,2.03 1.127,-0.755 2.398,-1.954 3.244,0.204 0.848,2.157 1.412,1.873 2.682,0.598 1.271,-1.273 3.811,-2.548 2.963,-4.388 -0.846,-1.84 0.283,-3.115 0.988,-3.682 0.705,-0.566 0.848,-0.708 0.848,1.133 0,1.84 1.41,5.192 1.551,6.135 0.141,0.944 0.564,-0.376 1.412,0 0.846,0.377 0.141,2.498 1.551,1.792 1.41,-0.707 2.398,-0.991 2.541,0.143 0.141,1.133 -0.564,1.558 -0.988,2.549 -0.424,0.991 -1.129,2.124 0.141,2.689 1.27,0.567 2.963,-0.708 3.387,0.991 0.422,1.699 1.27,2.832 1.693,3.824 0.424,0.991 -0.705,0.566 -1.271,1.416 -0.564,0.85 -0.52,1.133 1.365,1.841 1.881,0.708 1.598,1.416 0.752,2.548 -0.846,1.133 -1.41,0.143 -2.682,1.133 -1.268,0.992 -3.244,0.566 -1.832,2.124 1.41,1.558 1.975,3.426 0.848,2.351 -1.131,-1.076 -3.105,-3.482 -4.094,-4.049 -0.989,-0.567 -1.834,0 -2.258,1.273 -0.424,1.275 0.141,1.275 0.564,2.123 0.424,0.852 -1.27,3.116 -1.551,1.842 -0.283,-1.274 -1.129,-0.654 -1.555,0.381 -0.422,1.035 -1.27,1.035 -1.973,2.451 -0.707,1.416 -0.424,2.549 -2.4,2.123 -1.975,-0.424 -2.256,-1.981 -3.387,-0.849 -1.129,1.132 -1.691,1.415 -2.396,2.266 -0.707,0.849 -1.836,0.425 -2.4,-0.991 -0.564,-1.416 -1.41,-2.407 -0.143,-3.682 1.271,-1.273 0.566,-2.805 -0.562,-2.889 -1.129,-0.085 -1.27,-0.652 -2.115,0.907 -0.849,1.557 -1.833,0 -3.245,0 -1.412,0 -1.27,0.565 -3.105,0.99 -1.834,0.425 -0.703,0.85 -2.258,1.558 -1.551,0.708 -0.045,0.85 -2.492,0.991 -2.445,0.142 -3.432,-0.708 -3.152,0.708 0.283,1.416 2.4,1.416 0.283,1.416 -2.117,0 -2.398,0.425 -3.949,-0.992 -1.553,-1.415 -2.824,-2.831 -4.094,-2.689 -1.27,0.143 -1.975,0.85 -2.115,2.832 -0.143,1.982 0.703,1.297 1.553,2.277 0.846,0.979 2.822,1.688 1.268,2.395 -1.551,0.709 -2.117,0.709 -1.834,2.125 0.283,1.416 1.695,0.99 0,2.549 -1.693,1.557 -2.256,1.98 -2.822,5.38 -0.562,3.397 0.143,4.106 -1.127,5.38 -1.271,1.275 -2.822,2.974 -3.951,1.699 -1.129,-1.275 -1.412,-1.274 -1.977,-0.283 -0.562,0.991 -0.756,1.275 -2.283,1.416 -1.525,0.142 -2.512,0.425 -3.783,0 -1.27,-0.425 -0.281,-0.4 -2.256,0.225 -1.977,0.625 -3.652,0.2 -2.322,-1.498 1.334,-1.699 0.346,-1.559 -1.205,-2.832 -1.555,-1.275 -2.4,-1.559 -3.105,-0.283 -0.705,1.273 -0.705,1.84 -2.822,1.416 -2.117,-0.426 -3.527,-2.125 -4.232,-0.283 -0.705,1.84 -1.412,2.127 -0.283,3.754 1.129,1.626 1.693,2.051 0.707,3.466 -0.99,1.417 -0.143,1.56 -1.129,2.691 -0.988,1.132 -0.283,0 -2.117,0 -1.834,0 -2.258,-0.126 -3.387,0.503 -1.129,0.629 -1.551,-0.205 -2.539,0 -0.99,0.205 -0.566,1.549 -1.693,0.239 -1.129,-1.31 -0.707,-2.017 -2.117,-0.459 -1.41,1.557 -2.822,1.417 -3.385,-0.283 -0.566,-1.699 -0.283,-0.567 -1.836,-2.691 -1.553,-2.124 -2.822,-3.822 -2.822,-5.521 0,-1.699 -1.129,-1.842 -2.822,-0.851 -1.691,0.991 -0.846,1.7 -2.256,1.982 -1.412,0.284 -1.836,-0.849 -2.963,-0.142 -1.131,0.708 -0.426,-0.283 -1.131,1.842 -0.705,2.123 -0.986,2.549 -1.975,3.114 -0.988,0.566 -0.848,1.415 -1.693,0 -0.846,-1.416 -1.27,-2.831 -2.822,-1.982 -1.551,0.849 -4.797,2.974 -5.926,1.699 -1.129,-1.275 -2.4,-2.69 -3.385,-2.69 -0.988,0 -0.848,-1.274 -0.988,-2.832 -0.143,-1.557 -1.412,-1.274 -2.963,-1.982 -1.555,-0.707 -2.258,0.283 -2.4,-2.123 -0.141,-2.407 -0.141,-3.682 -1.693,-4.956 -1.551,-1.274 -0.988,-1.558 0,-2.69 0.99,-1.132 1.271,-1.416 1.977,-2.407 0.706,-0.991 0.562,-1.415 1.834,-0.565 1.27,0.85 1.834,1.273 1.975,-0.426 0.143,-1.699 0.564,-2.265 1.553,-3.54 0.988,-1.273 2.258,-1.273 3.809,-0.425 1.555,0.85 2.682,0.283 4.234,0.283 1.551,0 2.258,0.566 2.68,1.699 0.424,1.133 0.424,0 1.977,0.143 1.551,0.141 2.822,0.707 3.951,-0.85 1.127,-1.559 0.988,-1.133 0.846,-3.115 -0.141,-1.982 -0.141,-2.549 -0.141,-3.823 0,-1.274 0.846,-1.557 1.693,-0.849 0.846,0.707 1.553,1.132 2.117,-0.143 0.562,-1.273 1.551,-1.558 0.846,-2.973 -0.707,-1.416 -2.256,-1.133 -0.283,-2.975 1.977,-1.841 2.822,-2.265 2.258,-3.114 -0.564,-0.85 0.424,1.273 -0.564,-0.85 -0.988,-2.124 -1.693,-3.114 -0.281,-3.964 1.41,-0.849 2.539,-0.424 4.938,-1.274 2.398,-0.85 1.41,-1.558 1.553,-2.407 0.141,-0.851 -1.836,0.282 -1.693,-0.851 0.141,-1.133 -0.281,-2.832 1.27,-3.397 1.553,-0.567 2.541,-0.283 2.398,-2.124 -0.141,-1.841 0.143,-2.832 -1.41,-1.558 -1.553,1.275 -2.539,0.708 -3.385,0.425 -0.85,-0.283 -1.555,0.566 -1.412,1.416 0.141,0.85 -1.412,-0.566 -1.977,0.283 -0.564,0.851 1.553,0.708 1.834,1.983 0.283,1.274 -1.834,1.982 -2.961,1.557 -1.129,-0.424 -1.836,-1.557 -2.117,-3.115 -0.283,-1.558 0,-1.84 -1.129,-0.849 -1.129,0.991 -1.41,0.849 -1.553,-0.566 -0.141,-1.416 -0.141,-3.398 -1.551,-1.982 -1.412,1.416 -2.682,1.416 -2.682,2.973 0,1.558 0.281,1.416 1.41,1.841 1.129,0.425 0.564,-0.283 1.271,1.699 0.705,1.982 1.693,1.956 1.693,3.385 0,1.429 -0.426,1.288 -1.693,0.58 -1.271,-0.708 -1.412,-1.868 -1.834,-0.58 -0.426,1.288 -0.283,0.722 0.422,1.571 0.705,0.851 0.705,0.991 -0.422,1.133 -1.131,0.142 -0.988,1.133 -1.977,1.274 -0.988,0.142 -2.963,0.708 -2.117,-1.84 0.846,-2.548 -0.564,-3.256 -1.27,-3.256 -0.706,0 -1.412,0.424 -1.553,1.841 -0.141,1.416 0.641,1.557 -0.736,1.132 -1.379,-0.425 -2.789,-2.691 -3.355,-4.957 -0.564,-2.265 -0.705,-4.813 -0.705,-6.229 0,-1.416 0,-2.124 -0.281,-4.53 -0.283,-2.407 -0.283,-4.028 0.564,-4.351 0.846,-0.322 0.703,-1.739 0.141,-2.872 -0.564,-1.133 0.424,-1.699 2.541,-2.689 2.115,-0.991 1.973,-1.377 3.809,-1.609 1.834,-0.232 1.975,-0.939 1.834,-2.214 -0.143,-1.275 -0.143,-2.974 1.129,-2.69 1.27,0.283 1.693,-1.417 0.846,-2.407 -0.846,-0.991 -1.834,-1.558 -1.975,-2.974 -0.143,-1.416 0.141,-1.703 -1.977,-1.063 -2.117,0.639 -4.09,2.475 -4.232,0 -0.141,-2.476 -1.412,-0.498 -1.551,0 -0.143,0.497 -0.848,0.497 -1.834,1.063 -0.988,0.567 -2.117,0.708 -3.105,0.708 -0.988,0 -1.127,0.283 -1.551,1.132 -0.424,0.85 -1.555,0.425 -2.822,1.275 -1.271,0.849 -1.271,1.133 -2.822,1.274 -1.553,0.142 -1.977,0.283 -2.398,-0.991 -0.424,-1.275 -1.129,-1.982 0,-2.975 1.129,-0.99 1.693,-1.985 3.244,-1.487 1.553,0.497 3.105,0.639 2.258,-0.918 -0.846,-1.558 -1.834,-1.982 1.27,-2.266 3.105,-0.284 4.799,-0.708 6.49,-1.133 1.695,-0.424 1.41,-0.567 0.564,-1.84 -0.863,-1.275 -0.437,-2.549 -0.437,-2.549 z"
     id="district-nkangala"
     style="fill:#e6e7e8;stroke:#6d6e71;stroke-width:0.5654" /><path
     d="m 450.582,301.048 c 0.846,-1.132 1.129,-1.84 -0.752,-2.548 -1.885,-0.708 -1.93,-0.991 -1.365,-1.841 0.566,-0.849 1.695,-0.424 1.271,-1.416 -0.424,-0.992 -1.271,-2.125 -1.693,-3.824 -0.424,-1.699 -2.117,-0.424 -3.387,-0.991 -1.27,-0.565 -0.564,-1.699 -0.141,-2.689 0.424,-0.991 1.129,-1.416 0.988,-2.549 -0.143,-1.133 -1.131,-0.849 -2.541,-0.143 -1.41,0.706 -0.705,-1.415 -1.551,-1.792 -0.848,-0.376 -1.271,0.944 -1.412,0 -0.141,-0.943 -1.551,-4.295 -1.551,-6.135 0,-1.841 -0.143,-1.699 -0.848,-1.133 -0.705,0.566 -1.834,1.841 -0.988,3.682 0.848,1.84 -1.691,3.115 -2.963,4.388 -1.27,1.275 -1.834,1.559 -2.682,-0.598 -0.846,-2.158 -2.117,-0.959 -3.244,-0.204 -1.129,0.756 -1.834,-0.755 -2.4,-2.03 -0.562,-1.273 0.707,-2.265 0.988,-3.652 0.283,-1.388 0.145,-2.152 -1.27,-2.152 -1.41,0 -1.551,-0.567 -1.975,-1.943 -0.422,-1.376 0.564,-1.739 0,-3.012 -0.564,-1.275 -1.833,-2.125 -2.962,-3.116 -1.129,-0.991 -0.848,-1.982 -1.27,-1.042 -0.424,0.94 0.283,1.893 -1.09,2.883 -1.371,0.992 -1.309,1.559 -2.438,2.549 -1.129,0.991 -1.553,1.841 -2.117,2.974 -0.564,1.132 -1.27,0.849 -2.117,0.424 -0.846,-0.424 -0.281,-0.849 -0.846,-1.66 1.129,-1.36 0,-3.249 0.941,-5.325 0.939,-2.077 0.939,-4.53 0.564,-7.362 -0.377,-2.832 -1.787,-4.437 0.234,-4.768 2.021,-0.33 1.836,-2.312 3.34,0 1.504,2.313 2.635,2.879 4.139,2.879 1.504,0 1.129,-1.038 1.504,-2.879 0.377,-1.84 0.189,-4.105 2.823,-2.972 2.633,1.132 0.939,-2.095 0,-3.691 -0.941,-1.596 -0.754,-5.75 0.375,-7.826 1.129,-2.076 0.752,-3.356 3.574,-1.489 2.822,1.866 2.07,4.089 4.703,3.167 2.635,-0.923 2.258,-0.923 3.951,-1.489 1.693,-0.567 2.07,-2.455 3.01,-0.19 0.941,2.267 0.941,2.077 2.445,4.342 1.506,2.266 1.693,3.021 2.258,1.133 0.564,-1.889 0.941,-3.21 3.199,-2.454 2.258,0.754 0.1,-0.421 2.496,-1.343 2.396,-0.923 2.395,0.021 3.336,-2.056 0.939,-2.078 2.07,-1.133 1.316,-3.398 -0.752,-2.266 -3.197,-3.398 -0.941,-3.965 2.26,-0.565 1.131,-1.132 3.389,-1.699 2.256,-0.566 2.82,-0.378 1.691,-2.832 -1.127,-2.454 -1.127,-3.636 -0.564,-4.839 0.564,-1.202 2.07,2.335 2.07,-2.265 0,-4.6 -0.754,-10.643 2.445,-7.055 3.199,3.588 5.832,5.098 8.09,4.531 2.256,-0.565 3.385,0.329 3.764,2.524 0.375,2.196 0.562,1.629 4.703,1.44 4.139,-0.189 4.139,-0.755 8.088,-0.377 3.951,0.377 3.764,1.46 4.893,-1.063 1.129,-2.524 0.564,-2.713 0,-4.979 -0.564,-2.266 -1.506,-3.876 -3.951,-3.166 -2.445,0.712 -0.941,-4.008 1.316,-4.008 2.257,0 3.01,-1.888 2.07,-2.832 -0.939,-0.943 -0.941,-2.265 -4.516,-1.321 -3.574,0.944 -6.584,1.699 -5.832,-2.266 0.754,-3.964 -0.562,-8.684 2.07,-9.25 2.633,-0.567 1.881,-0.945 2.822,-2.832 0.939,-1.888 1.127,-2.644 -0.941,-2.455 -2.068,0.189 -2.445,-3.964 -0.188,-2.077 2.256,1.888 3.197,2.455 4.326,0.944 1.129,-1.511 1.49,-4.762 3.473,-1.437 1.983,3.325 0.855,4.835 2.924,4.08 2.07,-0.755 0.566,-0.565 3.574,-0.565 3.01,0 3.574,-2.455 5.08,-1.512 1.506,0.945 1.693,-1.887 3.762,-1.51 2.07,0.377 3.389,1.699 4.703,2.266 1.318,0.566 0.564,-0.377 2.07,-1.133 1.504,-0.755 0.377,10e-4 2.068,0.756 1.693,0.755 0.941,-1.511 2.824,-1.888 1.881,-0.377 1.881,-0.565 2.635,1.322 0.752,1.887 3.008,1.887 3.762,0.566 0.75,-1.321 -0.754,-3.309 1.691,-3.826 2.447,-0.517 1.129,-1.371 3.199,0 2.07,1.371 1.883,1.182 3.574,0.615 1.693,-0.565 1.693,-0.565 1.693,-0.565 v 1.321 c -0.377,2.832 -0.377,9.628 0,11.705 0.377,2.077 1.129,3.587 3.012,7.174 1.879,3.587 1.504,3.775 1.879,8.118 0.377,4.342 0.939,7.744 0,15.482 -0.939,7.738 -2.07,15.838 -1.316,20.473 0.752,4.634 0.564,16.339 -0.377,20.87 -0.941,4.531 -2.258,7.552 -1.504,10.384 0.752,2.832 -0.564,4.342 -1.693,7.362 -1.129,3.021 -0.564,2.077 0,6.608 0.562,4.531 1.693,5.286 0,7.741 -1.693,2.454 -1.693,0.943 -3.012,6.041 -1.314,5.097 -3.572,7.551 -1.691,11.327 0.514,1.031 1.029,1.966 1.562,2.796 v -0.003 c -3.068,2.304 -3.068,5.829 -8.713,1.329 -5.643,-4.5 -21.447,-15.091 -23.328,-17.158 -1.881,-2.067 -3.197,-2.067 -5.078,-1.5 -1.881,0.566 -3.764,0.377 -5.08,2.642 -1.316,2.267 -5.477,5.595 -8.006,7.612 0,0 -2.069,1.644 -2.625,2.696 l 0.265,-0.407 c -2.26,0.377 -5.249,-0.272 -5.813,-1.783 -0.564,-1.51 0.564,-2.076 -0.754,-1.887 -1.316,0.188 -3.008,3.397 -4.137,4.153 -1.129,0.755 -3.012,-0.567 -6.396,-0.944 -3.387,-0.378 -2.822,-1.51 -3.01,-3.209 -0.189,-1.7 -1.506,-1.133 -3.457,-1.7 -1.949,-0.565 -0.307,-1.699 -0.117,-2.642 0.186,-0.945 0.375,-1.322 -1.312,-1.89 -1.686,-0.565 -0.193,-2.831 -0.006,-3.774 0.189,-0.944 -3.762,-2.267 -5.781,-2.398"
     id="district-ehlanzeni"
     style="fill:#6d6e71;stroke:#6d6e71;stroke-width:0.5654" /><path
     d="m 326.276,256.022 c 0,0 0,0 -1.836,0.85 -1.834,0.85 0,0 0.705,1.274 0.707,1.275 0.564,1.983 1.693,2.691 1.129,0.707 1.41,0.99 0,1.981 -1.41,0.991 -0.986,1.275 -2.117,1.841 -1.127,0.566 -0.703,0.991 -1.832,-0.142 -1.129,-1.132 -0.846,-0.566 -2.541,-0.849 -1.693,-0.284 -3.387,0.141 -3.949,1.273 -0.564,1.133 0.422,2.55 -0.848,2.832 -1.27,0.284 -1.693,0.143 -4.09,0.708 -0.584,0.139 -1.555,0.143 -2.682,-0.282 -1.129,-0.426 -0.143,-1.133 -0.848,-1.893 -0.705,-0.76 -1.127,0.334 -2.682,0 -1.551,-0.334 -1.834,0.334 -1.973,1.555 -0.143,1.22 -0.85,1.753 -1.836,2.036 -0.988,0.283 -2.541,1.699 -3.104,0.142 -0.566,-1.558 -1.27,-2.407 -2.963,-2.124 -1.695,0.283 0,1.273 0,2.124 0,0.85 -1.131,1.133 -2.258,0.769 -1.129,-0.362 -1.693,0.505 -2.4,0.081 -0.705,-0.424 -1.229,0.901 -2.961,2.588"
     id="river1"
     style="fill:none;stroke:#6d6e71;stroke-width:0.25" /><path
     d="m 287.757,243.846 c 1.551,-0.284 4.232,-1.275 4.656,0 0.422,1.273 1.693,2.973 3.809,3.54 2.117,0.565 5.785,0.565 4.232,3.539 -1.553,2.973 -2.82,4.39 -3.668,3.115 -0.846,-1.274 -1.695,-2.266 -3.527,-1.982 -1.834,0.284 -3.105,0 -2.822,1.416 0.281,1.416 0.988,0.991 1.977,1.699 0.986,0.708 0.139,2.406 0.986,3.54 0.846,1.132 0.988,1.132 2.822,0.849 1.834,-0.284 2.963,-0.284 3.809,1.416 0.848,1.7 3.549,5.729 3.549,5.729"
     id="river2"
     style="fill:none;stroke:#6d6e71;stroke-width:0.25" /><path
     d="m 528.188,176.21 c 0.189,2.458 2.258,3.023 4.141,4.156 1.879,1.133 4.326,3.209 3.949,6.041 -0.377,2.832 -0.377,9.628 0,11.705 0.377,2.077 1.129,3.587 3.012,7.174 1.879,3.587 1.504,3.775 1.879,8.118 0.377,4.342 0.939,7.744 0,15.482 -0.939,7.738 -2.07,15.838 -1.316,20.473 0.752,4.634 0.564,16.339 -0.377,20.87 -0.941,4.531 -2.258,7.552 -1.504,10.384 0.752,2.832 -0.564,4.342 -1.693,7.362 -1.129,3.021 -0.564,2.077 0,6.608 0.562,4.531 1.693,5.286 0,7.741 -1.693,2.454 -1.693,0.943 -3.012,6.041 -1.314,5.097 -3.572,7.551 -1.691,11.327 1.881,3.776 3.762,6.229 6.584,7.173 2.822,0.945 2.445,2.832 2.445,6.797 0,3.965 -2.07,5.665 -2.633,12.084 -0.564,6.418 0.188,9.886 2.068,14.477 1.883,4.59 -0.375,6.668 0,12.143 0.377,5.474 -0.375,11.137 -1.129,12.837"
     id="river3"
     style="fill:none;stroke:#6d6e71;stroke-width:0.25" /><g
     id="label-nkgangala"><path
       d="m 362.544,303.733 v -4.218 h 0.676 l 1.412,2.815 v -2.815 h 0.646 v 4.218 h -0.699 l -1.387,-2.751 v 2.751 h -0.648 z"
       id="path233"
       style="fill:#6d6e71" /><path
       d="m 366.019,303.733 v -4.218 h 0.693 v 1.877 l 1.408,-1.877 h 0.939 l -1.303,1.643 1.371,2.575 h -0.9 l -0.951,-1.983 -0.564,0.708 v 1.275 h -0.693 z"
       id="path235"
       style="fill:#6d6e71" /><path
       d="m 372.593,303.733 h -0.754 l -0.303,-0.956 h -1.379 l -0.283,0.956 h -0.738 l 1.34,-4.218 h 0.736 l 1.381,4.218 z m -1.28,-1.67 -0.477,-1.565 -0.467,1.565 h 0.944 z"
       id="path237"
       style="fill:#6d6e71" /><path
       d="m 372.966,303.733 v -4.218 h 0.676 l 1.41,2.815 v -2.815 h 0.648 v 4.218 h -0.699 l -1.387,-2.751 v 2.751 h -0.648 z"
       id="path239"
       style="fill:#6d6e71" /><path
       d="m 378.036,302.185 v -0.714 h 1.498 v 1.681 c -0.15,0.18 -0.363,0.332 -0.643,0.46 -0.275,0.129 -0.555,0.193 -0.834,0.193 -0.338,0 -0.641,-0.084 -0.898,-0.251 -0.26,-0.17 -0.465,-0.419 -0.619,-0.756 -0.15,-0.334 -0.227,-0.727 -0.227,-1.18 0,-0.464 0.076,-0.86 0.23,-1.191 0.156,-0.329 0.354,-0.575 0.598,-0.737 0.248,-0.164 0.541,-0.246 0.883,-0.246 0.412,0 0.74,0.105 0.986,0.314 0.246,0.211 0.408,0.519 0.479,0.926 l -0.688,0.158 c -0.053,-0.217 -0.148,-0.383 -0.285,-0.498 -0.137,-0.114 -0.301,-0.172 -0.492,-0.172 -0.297,0 -0.535,0.115 -0.719,0.346 -0.186,0.231 -0.275,0.584 -0.275,1.058 0,0.506 0.1,0.895 0.297,1.159 0.172,0.229 0.4,0.343 0.691,0.343 0.137,0 0.275,-0.033 0.424,-0.096 0.145,-0.064 0.275,-0.152 0.391,-0.264 v -0.533 h -0.797 z"
       id="path241"
       style="fill:#6d6e71" /><path
       d="m 383.286,303.733 h -0.752 l -0.305,-0.956 h -1.377 l -0.287,0.956 h -0.738 l 1.342,-4.218 h 0.736 l 1.381,4.218 z m -1.279,-1.67 -0.477,-1.565 -0.467,1.565 h 0.944 z"
       id="path243"
       style="fill:#6d6e71" /><path
       d="m 383.669,303.733 v -4.183 h 0.695 v 3.469 h 1.73 v 0.714 h -2.425 z"
       id="path245"
       style="fill:#6d6e71" /><path
       d="m 389.702,303.733 h -0.754 l -0.305,-0.956 h -1.379 l -0.283,0.956 h -0.74 l 1.342,-4.218 h 0.736 l 1.383,4.218 z m -1.281,-1.67 -0.475,-1.565 -0.469,1.565 h 0.944 z"
       id="path247"
       style="fill:#6d6e71" /></g><g
     id="label-gert-sibande"><path
       d="m 384.815,362.344 v -0.714 h 1.498 v 1.68 c -0.15,0.18 -0.363,0.332 -0.643,0.459 -0.275,0.129 -0.557,0.194 -0.832,0.194 -0.34,0 -0.639,-0.083 -0.902,-0.252 -0.26,-0.169 -0.465,-0.42 -0.615,-0.754 -0.152,-0.334 -0.23,-0.728 -0.23,-1.181 0,-0.465 0.078,-0.861 0.232,-1.189 0.154,-0.332 0.352,-0.577 0.602,-0.739 0.244,-0.165 0.539,-0.245 0.881,-0.245 0.408,0 0.738,0.104 0.984,0.314 0.248,0.211 0.408,0.519 0.479,0.925 l -0.688,0.159 c -0.053,-0.217 -0.146,-0.383 -0.283,-0.498 -0.139,-0.115 -0.303,-0.173 -0.492,-0.173 -0.299,0 -0.539,0.116 -0.721,0.347 -0.184,0.231 -0.277,0.582 -0.277,1.057 0,0.508 0.102,0.895 0.299,1.16 0.172,0.227 0.4,0.342 0.691,0.342 0.137,0 0.277,-0.031 0.422,-0.097 0.146,-0.063 0.277,-0.151 0.393,-0.263 v -0.532 h -0.798 z"
       id="path251"
       style="fill:#6d6e71" /><path
       d="m 386.96,363.892 v -4.217 h 2.555 v 0.713 h -1.861 v 0.936 h 1.73 v 0.709 h -1.73 v 1.146 h 1.926 v 0.713 h -2.62 z"
       id="path253"
       style="fill:#6d6e71" /><path
       d="m 390.169,363.892 v -4.217 h 1.465 c 0.375,0 0.641,0.037 0.803,0.113 0.16,0.074 0.293,0.207 0.395,0.393 0.105,0.188 0.158,0.412 0.158,0.674 0,0.329 -0.082,0.594 -0.238,0.797 -0.156,0.199 -0.383,0.327 -0.674,0.379 0.15,0.107 0.273,0.224 0.369,0.353 0.098,0.126 0.232,0.354 0.4,0.685 l 0.418,0.824 h -0.828 l -0.506,-0.919 c -0.178,-0.332 -0.303,-0.54 -0.369,-0.62 -0.064,-0.086 -0.133,-0.143 -0.207,-0.174 -0.072,-0.033 -0.188,-0.048 -0.35,-0.048 h -0.143 v 1.761 h -0.693 z m 0.693,-2.435 h 0.516 c 0.316,0 0.518,-0.014 0.602,-0.04 0.086,-0.029 0.158,-0.086 0.211,-0.17 0.053,-0.084 0.08,-0.196 0.08,-0.336 0,-0.135 -0.027,-0.242 -0.08,-0.323 -0.053,-0.083 -0.127,-0.139 -0.219,-0.169 -0.064,-0.022 -0.252,-0.031 -0.564,-0.031 h -0.545 v 1.069 z"
       id="path255"
       style="fill:#6d6e71" /><path
       d="m 394.417,363.892 v -3.504 h -1.023 v -0.713 h 2.738 v 0.713 h -1.023 v 3.504 h -0.692 z"
       id="path257"
       style="fill:#6d6e71" /><path
       d="m 397.743,362.517 0.68,-0.08 c 0.078,0.537 0.328,0.807 0.752,0.807 0.209,0 0.375,-0.055 0.496,-0.166 0.119,-0.11 0.18,-0.245 0.18,-0.408 0,-0.098 -0.02,-0.178 -0.064,-0.246 -0.041,-0.066 -0.104,-0.121 -0.191,-0.164 -0.086,-0.043 -0.293,-0.115 -0.625,-0.217 -0.295,-0.09 -0.512,-0.188 -0.65,-0.293 -0.137,-0.106 -0.248,-0.244 -0.326,-0.415 -0.082,-0.171 -0.123,-0.356 -0.123,-0.555 0,-0.229 0.053,-0.437 0.154,-0.619 0.105,-0.184 0.252,-0.323 0.434,-0.417 0.182,-0.094 0.41,-0.141 0.678,-0.141 0.404,0 0.723,0.109 0.949,0.331 0.23,0.22 0.35,0.535 0.361,0.946 l -0.695,0.037 c -0.031,-0.228 -0.096,-0.385 -0.199,-0.475 -0.1,-0.09 -0.244,-0.136 -0.43,-0.136 -0.189,0 -0.334,0.039 -0.436,0.118 -0.1,0.078 -0.15,0.176 -0.15,0.293 0,0.114 0.045,0.211 0.137,0.289 0.092,0.078 0.301,0.166 0.635,0.258 0.348,0.103 0.602,0.209 0.758,0.321 0.154,0.112 0.273,0.257 0.355,0.435 0.082,0.177 0.123,0.393 0.123,0.646 0,0.366 -0.113,0.675 -0.336,0.923 -0.225,0.25 -0.574,0.374 -1.053,0.374 -0.847,0 -1.318,-0.483 -1.414,-1.446 z"
       id="path259"
       style="fill:#6d6e71" /><path
       d="m 401.11,363.892 v -4.217 h 0.693 v 4.217 h -0.693 z"
       id="path261"
       style="fill:#6d6e71" /><path
       d="m 402.466,359.675 h 1.383 c 0.375,0 0.641,0.035 0.793,0.104 0.152,0.069 0.283,0.189 0.389,0.365 0.105,0.174 0.158,0.372 0.158,0.592 0,0.203 -0.047,0.388 -0.137,0.552 -0.09,0.163 -0.205,0.284 -0.352,0.364 0.203,0.072 0.363,0.197 0.48,0.373 0.115,0.176 0.174,0.391 0.174,0.645 0,0.307 -0.076,0.564 -0.223,0.777 -0.146,0.212 -0.32,0.344 -0.521,0.394 -0.139,0.034 -0.461,0.052 -0.971,0.052 h -1.174 v -4.218 z m 0.697,0.701 v 0.977 h 0.457 c 0.273,0 0.445,-0.006 0.51,-0.016 0.119,-0.02 0.211,-0.069 0.279,-0.15 0.064,-0.083 0.1,-0.193 0.1,-0.332 0,-0.126 -0.029,-0.227 -0.082,-0.305 -0.055,-0.077 -0.121,-0.125 -0.199,-0.145 -0.076,-0.02 -0.299,-0.029 -0.664,-0.029 h -0.401 z m 0,1.678 v 1.125 h 0.645 c 0.283,0 0.465,-0.017 0.545,-0.046 0.082,-0.03 0.148,-0.089 0.203,-0.176 0.053,-0.087 0.082,-0.196 0.082,-0.331 0,-0.137 -0.029,-0.252 -0.088,-0.339 -0.061,-0.09 -0.137,-0.151 -0.232,-0.185 -0.098,-0.034 -0.295,-0.049 -0.594,-0.049 h -0.561 z"
       id="path263"
       style="fill:#6d6e71" /><path
       d="m 409.052,363.892 h -0.754 l -0.305,-0.957 h -1.377 l -0.287,0.957 h -0.738 l 1.342,-4.217 h 0.738 l 1.381,4.217 z m -1.281,-1.668 -0.475,-1.565 -0.467,1.565 h 0.942 z"
       id="path265"
       style="fill:#6d6e71" /><path
       d="m 409.425,363.892 v -4.217 h 0.674 l 1.41,2.814 v -2.814 h 0.648 v 4.217 h -0.697 l -1.389,-2.75 v 2.75 h -0.646 z"
       id="path267"
       style="fill:#6d6e71" /><path
       d="m 412.886,359.675 h 1.266 c 0.324,0 0.566,0.036 0.729,0.107 0.162,0.072 0.314,0.193 0.451,0.362 0.137,0.172 0.246,0.394 0.322,0.665 0.08,0.273 0.119,0.611 0.119,1.017 0,0.364 -0.041,0.681 -0.123,0.95 -0.082,0.268 -0.186,0.482 -0.312,0.641 -0.127,0.157 -0.279,0.274 -0.457,0.355 -0.178,0.078 -0.408,0.119 -0.689,0.119 h -1.305 v -4.216 z m 0.693,0.713 v 2.791 h 0.523 c 0.223,0 0.383,-0.021 0.484,-0.064 0.102,-0.042 0.182,-0.107 0.246,-0.191 0.064,-0.084 0.117,-0.22 0.16,-0.405 0.041,-0.183 0.062,-0.425 0.062,-0.726 0,-0.312 -0.021,-0.557 -0.062,-0.738 -0.043,-0.18 -0.113,-0.322 -0.203,-0.424 -0.09,-0.104 -0.201,-0.174 -0.33,-0.204 -0.1,-0.026 -0.287,-0.038 -0.564,-0.038 h -0.316 z"
       id="path269"
       style="fill:#6d6e71" /><path
       d="m 416.366,363.892 v -4.217 h 2.555 v 0.713 h -1.861 v 0.936 h 1.73 v 0.709 h -1.73 v 1.146 h 1.924 v 0.713 h -2.618 z"
       id="path271"
       style="fill:#6d6e71" /></g><g
     id="label-lesotho"><path
       d="m 490.41,366.072 v -4.182 h 0.693 v 3.467 h 1.73 v 0.715 h -2.423 z"
       id="path275"
       style="fill:#6d6e71" /><path
       d="m 493.332,366.072 v -4.218 h 2.559 v 0.714 h -1.863 v 0.935 h 1.729 v 0.711 h -1.729 v 1.144 h 1.926 v 0.715 h -2.622 z"
       id="path277"
       style="fill:#6d6e71" /><path
       d="m 496.365,364.696 0.68,-0.08 c 0.078,0.539 0.326,0.809 0.75,0.809 0.211,0 0.377,-0.057 0.498,-0.166 0.119,-0.109 0.18,-0.246 0.18,-0.408 0,-0.096 -0.021,-0.178 -0.064,-0.246 -0.043,-0.066 -0.105,-0.121 -0.191,-0.164 -0.086,-0.043 -0.293,-0.115 -0.625,-0.217 -0.297,-0.09 -0.512,-0.188 -0.65,-0.293 -0.137,-0.105 -0.248,-0.245 -0.328,-0.416 -0.08,-0.172 -0.121,-0.354 -0.121,-0.553 0,-0.23 0.053,-0.437 0.154,-0.622 0.105,-0.183 0.25,-0.321 0.434,-0.416 0.182,-0.095 0.408,-0.142 0.678,-0.142 0.404,0 0.723,0.111 0.949,0.333 0.229,0.22 0.348,0.534 0.361,0.945 l -0.697,0.038 c -0.031,-0.227 -0.096,-0.385 -0.197,-0.475 -0.101,-0.09 -0.246,-0.136 -0.432,-0.136 -0.189,0 -0.332,0.04 -0.434,0.118 -0.102,0.078 -0.152,0.177 -0.152,0.291 0,0.116 0.045,0.211 0.139,0.291 0.092,0.077 0.301,0.164 0.633,0.26 0.35,0.1 0.604,0.207 0.758,0.318 0.156,0.113 0.273,0.258 0.357,0.436 0.082,0.176 0.123,0.392 0.123,0.645 0,0.365 -0.113,0.673 -0.336,0.922 -0.225,0.252 -0.574,0.376 -1.055,0.376 -0.847,10e-4 -1.316,-0.482 -1.412,-1.448 z"
       id="path279"
       style="fill:#6d6e71" /><path
       d="m 499.611,363.99 c 0,-0.504 0.072,-0.917 0.221,-1.241 0.15,-0.326 0.342,-0.567 0.58,-0.727 0.24,-0.159 0.531,-0.24 0.869,-0.24 0.494,0 0.893,0.191 1.203,0.568 0.312,0.379 0.467,0.915 0.467,1.613 0,0.706 -0.164,1.256 -0.492,1.654 -0.289,0.351 -0.68,0.526 -1.176,0.526 -0.498,0 -0.893,-0.173 -1.182,-0.521 -0.328,-0.394 -0.49,-0.939 -0.49,-1.632 z m 0.717,-0.029 c 0,0.485 0.09,0.849 0.275,1.091 0.182,0.243 0.41,0.363 0.682,0.363 0.273,0 0.502,-0.119 0.68,-0.36 0.18,-0.241 0.27,-0.61 0.27,-1.107 0,-0.49 -0.086,-0.853 -0.262,-1.085 -0.174,-0.234 -0.404,-0.352 -0.688,-0.352 -0.284,0 -0.514,0.119 -0.691,0.354 -0.18,0.236 -0.266,0.601 -0.266,1.096 z"
       id="path281"
       style="fill:#6d6e71" /><path
       d="m 504.273,366.072 v -3.504 h -1.023 v -0.714 h 2.736 v 0.714 h -1.02 v 3.504 h -0.693 z"
       id="path283"
       style="fill:#6d6e71" /><path
       d="m 506.441,366.072 v -4.218 h 0.691 v 1.66 h 1.369 v -1.66 h 0.691 v 4.218 h -0.691 v -1.845 h -1.369 v 1.845 h -0.691 z"
       id="path285"
       style="fill:#6d6e71" /><path
       d="m 509.771,363.99 c 0,-0.504 0.072,-0.917 0.221,-1.241 0.148,-0.326 0.344,-0.567 0.582,-0.727 0.238,-0.16 0.527,-0.24 0.867,-0.24 0.494,0 0.895,0.191 1.205,0.568 0.311,0.379 0.465,0.915 0.465,1.613 0,0.706 -0.164,1.256 -0.492,1.654 -0.289,0.351 -0.68,0.526 -1.176,0.526 -0.498,0 -0.893,-0.173 -1.18,-0.521 -0.329,-0.394 -0.492,-0.939 -0.492,-1.632 z m 0.715,-0.029 c 0,0.485 0.094,0.849 0.275,1.091 0.184,0.243 0.412,0.363 0.684,0.363 0.275,0 0.5,-0.119 0.68,-0.36 0.182,-0.241 0.271,-0.61 0.271,-1.107 0,-0.49 -0.088,-0.853 -0.264,-1.085 -0.174,-0.234 -0.404,-0.352 -0.688,-0.352 -0.284,0 -0.514,0.119 -0.691,0.354 -0.177,0.236 -0.267,0.601 -0.267,1.096 z"
       id="path287"
       style="fill:#6d6e71" /></g><g
     id="label-gauteng"><path
       d="m 295.642,304.798 v -0.713 h 1.498 v 1.68 c -0.148,0.177 -0.363,0.331 -0.641,0.459 -0.278,0.128 -0.555,0.193 -0.832,0.193 -0.344,0 -0.643,-0.084 -0.902,-0.252 -0.26,-0.167 -0.467,-0.419 -0.617,-0.754 -0.152,-0.334 -0.23,-0.729 -0.23,-1.18 0,-0.466 0.078,-0.862 0.232,-1.191 0.154,-0.33 0.352,-0.576 0.6,-0.738 0.244,-0.164 0.539,-0.245 0.881,-0.245 0.41,0 0.74,0.104 0.986,0.315 0.248,0.211 0.408,0.518 0.48,0.924 l -0.689,0.158 c -0.053,-0.217 -0.146,-0.383 -0.285,-0.497 -0.137,-0.114 -0.299,-0.173 -0.492,-0.173 -0.295,0 -0.535,0.116 -0.721,0.346 -0.18,0.232 -0.275,0.585 -0.275,1.059 0,0.508 0.1,0.894 0.299,1.158 0.17,0.228 0.402,0.343 0.691,0.343 0.137,0 0.275,-0.032 0.424,-0.097 0.146,-0.064 0.275,-0.151 0.389,-0.263 v -0.532 h -0.796 z"
       id="path291"
       style="fill:#6d6e71" /><path
       d="m 300.894,306.345 h -0.756 l -0.303,-0.955 h -1.379 l -0.283,0.955 h -0.742 l 1.344,-4.217 h 0.738 l 1.381,4.217 z m -1.282,-1.669 -0.475,-1.563 -0.469,1.563 h 0.944 z"
       id="path293"
       style="fill:#6d6e71" /><path
       d="m 301.253,302.128 h 0.689 v 2.283 c 0,0.355 0.012,0.586 0.029,0.694 0.029,0.186 0.102,0.329 0.217,0.432 0.119,0.101 0.27,0.152 0.461,0.152 0.158,0 0.291,-0.036 0.391,-0.108 0.102,-0.072 0.174,-0.171 0.209,-0.299 0.039,-0.128 0.055,-0.402 0.055,-0.822 v -2.332 h 0.695 v 2.216 c 0,0.563 -0.031,0.974 -0.092,1.226 -0.059,0.252 -0.195,0.457 -0.404,0.613 -0.211,0.156 -0.49,0.234 -0.838,0.234 -0.357,0 -0.639,-0.065 -0.84,-0.195 -0.201,-0.129 -0.348,-0.311 -0.439,-0.547 -0.09,-0.233 -0.133,-0.666 -0.133,-1.298 v -2.249 z"
       id="path295"
       style="fill:#6d6e71" /><path
       d="m 305.507,306.345 v -3.502 h -1.023 v -0.715 h 2.736 v 0.715 h -1.018 v 3.502 h -0.695 z"
       id="path297"
       style="fill:#6d6e71" /><path
       d="m 307.673,306.345 v -4.217 h 2.557 v 0.715 h -1.863 v 0.934 h 1.73 v 0.711 h -1.73 v 1.144 h 1.928 v 0.714 h -2.622 z"
       id="path299"
       style="fill:#6d6e71" /><path
       d="m 310.89,306.345 v -4.217 h 0.676 l 1.41,2.816 v -2.816 h 0.646 v 4.217 h -0.697 l -1.389,-2.748 v 2.748 h -0.646 z"
       id="path301"
       style="fill:#6d6e71" /><path
       d="m 315.958,304.798 v -0.713 h 1.5 v 1.68 c -0.15,0.177 -0.367,0.331 -0.643,0.459 -0.277,0.128 -0.557,0.193 -0.834,0.193 -0.34,0 -0.641,-0.084 -0.898,-0.252 -0.262,-0.167 -0.465,-0.419 -0.617,-0.754 -0.152,-0.334 -0.229,-0.729 -0.229,-1.18 0,-0.466 0.076,-0.862 0.23,-1.191 0.152,-0.33 0.354,-0.576 0.598,-0.738 0.246,-0.164 0.541,-0.245 0.883,-0.245 0.41,0 0.742,0.104 0.986,0.315 0.248,0.211 0.406,0.518 0.477,0.924 l -0.686,0.158 c -0.053,-0.217 -0.146,-0.383 -0.283,-0.497 -0.139,-0.114 -0.303,-0.173 -0.494,-0.173 -0.299,0 -0.537,0.116 -0.719,0.346 -0.186,0.232 -0.275,0.585 -0.275,1.059 0,0.508 0.098,0.894 0.297,1.158 0.17,0.228 0.398,0.343 0.691,0.343 0.135,0 0.275,-0.032 0.422,-0.097 0.147,-0.065 0.279,-0.151 0.393,-0.263 v -0.532 h -0.799 z"
       id="path303"
       style="fill:#6d6e71" /></g><g
     id="label-limpopo"><path
       d="m 377.079,253.088 v -4.181 h 0.695 v 3.468 h 1.73 v 0.713 h -2.425 z"
       id="path307"
       style="fill:#6d6e71" /><path
       d="m 379.979,253.088 v -4.215 h 0.695 v 4.215 h -0.695 z"
       id="path309"
       style="fill:#6d6e71" /><path
       d="m 381.331,253.088 v -4.215 h 1.041 l 0.625,2.879 0.621,-2.879 h 1.045 v 4.215 h -0.646 v -3.321 l -0.686,3.321 h -0.67 l -0.684,-3.321 v 3.321 h -0.646 z"
       id="path311"
       style="fill:#6d6e71" /><path
       d="m 385.349,253.088 v -4.215 h 1.117 c 0.418,0 0.691,0.021 0.818,0.061 0.203,0.065 0.371,0.203 0.504,0.416 0.135,0.213 0.201,0.488 0.201,0.823 0,0.305 -0.057,0.56 -0.174,0.767 -0.113,0.205 -0.256,0.35 -0.428,0.435 -0.172,0.083 -0.471,0.124 -0.889,0.124 h -0.457 v 1.59 h -0.692 z m 0.693,-3.502 v 1.199 h 0.385 c 0.258,0 0.436,-0.018 0.529,-0.054 0.09,-0.038 0.168,-0.103 0.227,-0.198 0.059,-0.095 0.09,-0.213 0.09,-0.351 0,-0.14 -0.031,-0.259 -0.092,-0.354 -0.062,-0.097 -0.137,-0.16 -0.227,-0.193 -0.09,-0.033 -0.281,-0.048 -0.572,-0.048 h -0.34 z"
       id="path313"
       style="fill:#6d6e71" /><path
       d="m 388.419,251.006 c 0,-0.502 0.072,-0.915 0.221,-1.241 0.149,-0.326 0.342,-0.567 0.584,-0.725 0.236,-0.161 0.527,-0.24 0.865,-0.24 0.494,0 0.896,0.188 1.205,0.567 0.311,0.377 0.467,0.915 0.467,1.614 0,0.705 -0.164,1.255 -0.492,1.653 -0.289,0.351 -0.682,0.525 -1.176,0.525 -0.498,0 -0.893,-0.173 -1.18,-0.521 -0.328,-0.394 -0.494,-0.939 -0.494,-1.632 z m 0.717,-0.028 c 0,0.484 0.092,0.849 0.275,1.091 0.184,0.244 0.412,0.364 0.684,0.364 0.275,0 0.498,-0.121 0.68,-0.361 0.18,-0.24 0.27,-0.61 0.27,-1.109 0,-0.488 -0.088,-0.85 -0.262,-1.084 -0.176,-0.233 -0.404,-0.351 -0.688,-0.351 -0.284,0 -0.516,0.119 -0.691,0.354 -0.18,0.236 -0.268,0.6 -0.268,1.096 z"
       id="path315"
       style="fill:#6d6e71" /><path
       d="m 392.304,253.088 v -4.215 h 1.117 c 0.42,0 0.691,0.021 0.818,0.061 0.205,0.065 0.375,0.203 0.508,0.416 0.131,0.213 0.197,0.488 0.197,0.823 0,0.305 -0.059,0.56 -0.172,0.767 -0.115,0.205 -0.258,0.35 -0.43,0.435 -0.172,0.083 -0.467,0.124 -0.889,0.124 h -0.455 v 1.59 h -0.694 z m 0.695,-3.502 v 1.199 h 0.385 c 0.258,0 0.434,-0.018 0.527,-0.054 0.094,-0.038 0.168,-0.103 0.229,-0.198 0.061,-0.095 0.088,-0.213 0.088,-0.351 0,-0.14 -0.029,-0.259 -0.09,-0.354 -0.064,-0.097 -0.137,-0.16 -0.227,-0.193 -0.09,-0.033 -0.281,-0.048 -0.572,-0.048 h -0.34 z"
       id="path317"
       style="fill:#6d6e71" /><path
       d="m 395.376,251.006 c 0,-0.502 0.07,-0.915 0.221,-1.241 0.148,-0.326 0.344,-0.567 0.58,-0.725 0.238,-0.161 0.529,-0.24 0.869,-0.24 0.492,0 0.896,0.188 1.205,0.567 0.311,0.377 0.465,0.915 0.465,1.614 0,0.705 -0.164,1.255 -0.492,1.653 -0.289,0.351 -0.68,0.525 -1.176,0.525 -0.498,0 -0.891,-0.173 -1.18,-0.521 -0.328,-0.394 -0.492,-0.939 -0.492,-1.632 z m 0.715,-0.028 c 0,0.484 0.092,0.849 0.275,1.091 0.186,0.244 0.412,0.364 0.684,0.364 0.273,0 0.498,-0.121 0.68,-0.361 0.18,-0.24 0.271,-0.61 0.271,-1.109 0,-0.488 -0.088,-0.85 -0.262,-1.084 -0.178,-0.233 -0.406,-0.351 -0.689,-0.351 -0.283,0 -0.512,0.119 -0.691,0.354 -0.18,0.236 -0.268,0.6 -0.268,1.096 z"
       id="path319"
       style="fill:#6d6e71" /></g><g
     id="label-ehlanzeni"><path
       d="M 436.355,268.816 V 264.6 h 2.555 v 0.713 h -1.863 v 0.935 h 1.732 v 0.709 h -1.732 v 1.145 h 1.928 v 0.714 h -2.62 z"
       id="path353"
       style="fill:#ffffff" /><path
       d="M 439.564,268.816 V 264.6 h 0.691 v 1.658 h 1.371 V 264.6 h 0.691 v 4.216 h -0.691 v -1.844 h -1.371 v 1.844 h -0.691 z"
       id="path355"
       style="fill:#ffffff" /><path
       d="m 443.055,268.816 v -4.183 h 0.693 v 3.469 h 1.732 v 0.714 h -2.425 z"
       id="path357"
       style="fill:#ffffff" /><path
       d="m 449.084,268.816 h -0.752 l -0.303,-0.956 h -1.379 l -0.285,0.956 h -0.74 l 1.342,-4.216 h 0.736 l 1.381,4.216 z m -1.277,-1.669 -0.479,-1.565 -0.465,1.565 h 0.944 z"
       id="path359"
       style="fill:#ffffff" /><path
       d="M 449.457,268.816 V 264.6 h 0.678 l 1.41,2.815 V 264.6 h 0.648 v 4.216 h -0.701 l -1.387,-2.751 v 2.751 h -0.648 z"
       id="path361"
       style="fill:#ffffff" /><path
       d="m 452.625,268.816 v -0.771 l 1.811,-2.732 h -1.605 V 264.6 h 2.52 v 0.661 l -1.887,2.842 h 1.963 v 0.714 h -2.802 z"
       id="path363"
       style="fill:#ffffff" /><path
       d="M 455.867,268.816 V 264.6 h 2.557 v 0.713 h -1.863 v 0.935 h 1.732 v 0.709 h -1.732 v 1.145 h 1.924 v 0.714 h -2.618 z"
       id="path365"
       style="fill:#ffffff" /><path
       d="M 459.082,268.816 V 264.6 h 0.676 l 1.412,2.815 V 264.6 h 0.646 v 4.216 h -0.699 l -1.387,-2.751 v 2.751 h -0.648 z"
       id="path367"
       style="fill:#ffffff" /><path
       d="M 462.527,268.816 V 264.6 h 0.693 v 4.216 h -0.693 z"
       id="path369"
       style="fill:#ffffff" /></g></svg>